ISO-10303-21;
HEADER;
FILE_DESCRIPTION (( 'STEP AP214' ),
    '1' );
FILE_NAME ('‘≤»Û‘≤∞¥≈•0807.STEP',
    '2026-08-07T02:59:12',
    ( '' ),
    ( '' ),
    'SwSTEP 2.0',
    'SolidWorks 2024',
    '' );
FILE_SCHEMA (( 'AUTOMOTIVE_DESIGN' ));
ENDSEC;

DATA;
#1 = EDGE_CURVE ( 'NONE', #373, #344, #478, .T. ) ;
#2 = CARTESIAN_POINT ( 'NONE',  ( 35.76710636507766594, -32.43770605650531280, 1.000000000000000000 ) ) ;
#3 = VERTEX_POINT ( 'NONE', #136 ) ;
#4 = CIRCLE ( 'NONE', #351, 5.178540487001170867 ) ;
#5 = AXIS2_PLACEMENT_3D ( 'NONE', #200, #230, #493 ) ;
#6 = CYLINDRICAL_SURFACE ( 'NONE', #300, 1.600000000000000755 ) ;
#7 = ORIENTED_EDGE ( 'NONE', *, *, #305, .F. ) ;
#8 = DIRECTION ( 'NONE',  ( -1.000000000000000000, 0.000000000000000000, 0.000000000000000000 ) ) ;
#9 = DIRECTION ( 'NONE',  ( 0.000000000000000000, 0.000000000000000000, 1.000000000000000000 ) ) ;
#10 = CIRCLE ( 'NONE', #189, 2.838545293463931696 ) ;
#11 = CLOSED_SHELL ( 'NONE', ( #113, #219, #32, #133, #439, #362, #298, #396, #19, #91, #445, #496, #50, #109, #453, #345, #199, #376 ) ) ;
#12 = APPLICATION_PROTOCOL_DEFINITION ( 'draft international standard', 'automotive_design', 1998, #397 ) ;
#13 = CIRCLE ( 'NONE', #125, 5.178540487001170867 ) ;
#14 = CIRCLE ( 'NONE', #361, 2.438545293463934005 ) ;
#15 = DIRECTION ( 'NONE',  ( -1.000000000000000000, 0.000000000000000000, 0.000000000000000000 ) ) ;
#16 = CARTESIAN_POINT ( 'NONE',  ( 32.36710636507766736, -32.43770605650531280, 1.000000000000000000 ) ) ;
#17 = DIRECTION ( 'NONE',  ( -1.000000000000000000, 0.000000000000000000, 0.000000000000000000 ) ) ;
#18 = CARTESIAN_POINT ( 'NONE',  ( 32.36710636507766736, -32.43770605650531280, -1.500000000000000000 ) ) ;
#19 = ADVANCED_FACE ( 'NONE', ( #437 ), #471, .T. ) ;
#20 = CARTESIAN_POINT ( 'NONE',  ( 36.76710636507767305, -32.43770605650531280, 1.000000000000000000 ) ) ;
#21 = PRODUCT_DEFINITION_FORMATION_WITH_SPECIFIED_SOURCE ( '‰ª', '', #86, .NOT_KNOWN. ) ;
#22 = DIRECTION ( 'NONE',  ( 1.000000000000000000, 0.000000000000000000, 0.000000000000000000 ) ) ;
#23 = EDGE_LOOP ( 'NONE', ( #423, #49, #340, #352 ) ) ;
#24 = EDGE_CURVE ( 'NONE', #452, #89, #325, .T. ) ;
#25 = DIRECTION ( 'NONE',  ( 0.000000000000000000, 0.000000000000000000, -1.000000000000000000 ) ) ;
#26 = ORIENTED_EDGE ( 'NONE', *, *, #411, .F. ) ;
#27 = DIRECTION ( 'NONE',  ( -1.000000000000000000, 0.000000000000000000, 0.000000000000000000 ) ) ;
#28 = AXIS2_PLACEMENT_3D ( 'NONE', #319, #212, #131 ) ;
#29 = ORIENTED_EDGE ( 'NONE', *, *, #169, .T. ) ;
#30 = CARTESIAN_POINT ( 'NONE',  ( 32.36710636507766736, -32.43770605650531280, -1.500000000000000000 ) ) ;
#31 = EDGE_LOOP ( 'NONE', ( #201, #120 ) ) ;
#32 = ADVANCED_FACE ( 'NONE', ( #473 ), #90, .T. ) ;
#33 = DIRECTION ( 'NONE',  ( 1.000000000000000000, 0.000000000000000000, 0.000000000000000000 ) ) ;
#34 = ORIENTED_EDGE ( 'NONE', *, *, #1, .T. ) ;
#35 = LINE ( 'NONE', #419, #243 ) ;
#36 = CIRCLE ( 'NONE', #317, 4.400000000000001243 ) ;
#37 = ORIENTED_EDGE ( 'NONE', *, *, #316, .F. ) ;
#38 =( GEOMETRIC_REPRESENTATION_CONTEXT ( 3 ) GLOBAL_UNCERTAINTY_ASSIGNED_CONTEXT ( ( #144 ) ) GLOBAL_UNIT_ASSIGNED_CONTEXT ( ( #174, #314, #392 ) ) REPRESENTATION_CONTEXT ( 'NONE', 'WORKASPACE' ) );
#39 = AXIS2_PLACEMENT_3D ( 'NONE', #394, #52, #203 ) ;
#40 = AXIS2_PLACEMENT_3D ( 'NONE', #477, #474, #211 ) ;
#41 = CARTESIAN_POINT ( 'NONE',  ( 34.60565165854160341, -32.43770605650531280, 0.8000000000000000444 ) ) ;
#42 = ORIENTED_EDGE ( 'NONE', *, *, #262, .F. ) ;
#43 = EDGE_CURVE ( 'NONE', #371, #88, #128, .T. ) ;
#44 = CARTESIAN_POINT ( 'NONE',  ( 32.36710636507766736, -32.43770605650531280, 0.5000000000000000000 ) ) ;
#45 = EDGE_LOOP ( 'NONE', ( #7, #455, #264, #34 ) ) ;
#46 = ORIENTED_EDGE ( 'NONE', *, *, #353, .F. ) ;
#47 = AXIS2_PLACEMENT_3D ( 'NONE', #251, #176, #147 ) ;
#48 = CIRCLE ( 'NONE', #5, 5.178540487001170867 ) ;
#49 = ORIENTED_EDGE ( 'NONE', *, *, #182, .F. ) ;
#50 = ADVANCED_FACE ( 'NONE', ( #202 ), #354, .T. ) ;
#51 = DIRECTION ( 'NONE',  ( -1.000000000000000000, 0.000000000000000000, 0.000000000000000000 ) ) ;
#52 = DIRECTION ( 'NONE',  ( 0.000000000000000000, 0.000000000000000000, 1.000000000000000000 ) ) ;
#53 = VECTOR ( 'NONE', #236, 1000.000000000000000 ) ;
#54 = AXIS2_PLACEMENT_3D ( 'NONE', #241, #432, #175 ) ;
#55 = DIRECTION ( 'NONE',  ( -1.000000000000000000, 0.000000000000000000, 0.000000000000000000 ) ) ;
#56 = PRESENTATION_LAYER_ASSIGNMENT (  '', '', ( #272 ) ) ;
#57 = CARTESIAN_POINT ( 'NONE',  ( 32.36710636507766736, -32.43770605650531280, 1.000000000000000000 ) ) ;
#58 = EDGE_CURVE ( 'NONE', #447, #117, #192, .T. ) ;
#59 = CARTESIAN_POINT ( 'NONE',  ( 36.76710636507767305, -32.43770605650531280, 0.000000000000000000 ) ) ;
#60 = FACE_OUTER_BOUND ( 'NONE', #482, .T. ) ;
#61 = CARTESIAN_POINT ( 'NONE',  ( 29.92856107161373558, -32.43770605650531280, 0.8000000000000000444 ) ) ;
#62 = AXIS2_PLACEMENT_3D ( 'NONE', #381, #459, #224 ) ;
#63 = VECTOR ( 'NONE', #475, 1000.000000000000000 ) ;
#64 = LINE ( 'NONE', #442, #149 ) ;
#65 = EDGE_LOOP ( 'NONE', ( #307, #218, #225, #85 ) ) ;
#66 = DIRECTION ( 'NONE',  ( -1.000000000000000000, 0.000000000000000000, 0.000000000000000000 ) ) ;
#67 = EDGE_LOOP ( 'NONE', ( #461, #75 ) ) ;
#68 = CARTESIAN_POINT ( 'NONE',  ( 33.96710636507767589, -32.43770605650531280, 0.5000000000000000000 ) ) ;
#69 = ORIENTED_EDGE ( 'NONE', *, *, #226, .F. ) ;
#70 = CARTESIAN_POINT ( 'NONE',  ( 27.96710636507766523, -32.43770605650531280, -1.000000000000000000 ) ) ;
#71 = AXIS2_PLACEMENT_3D ( 'NONE', #57, #294, #286 ) ;
#72 = CIRCLE ( 'NONE', #83, 0.1999999999999999833 ) ;
#73 = EDGE_CURVE ( 'NONE', #223, #89, #249, .T. ) ;
#74 = CARTESIAN_POINT ( 'NONE',  ( 29.52856107161373345, -32.43770605650531280, 1.000000000000000000 ) ) ;
#75 = ORIENTED_EDGE ( 'NONE', *, *, #226, .T. ) ;
#76 = DIRECTION ( 'NONE',  ( -0.000000000000000000, -0.000000000000000000, -1.000000000000000000 ) ) ;
#77 = ORIENTED_EDGE ( 'NONE', *, *, #288, .F. ) ;
#78 = DIRECTION ( 'NONE',  ( 0.000000000000000000, 0.000000000000000000, 1.000000000000000000 ) ) ;
#79 = EDGE_CURVE ( 'NONE', #393, #274, #320, .T. ) ;
#80 = VERTEX_POINT ( 'NONE', #93 ) ;
#81 = AXIS2_PLACEMENT_3D ( 'NONE', #434, #245, #15 ) ;
#82 = CIRCLE ( 'NONE', #360, 0.1999999999999999833 ) ;
#83 = AXIS2_PLACEMENT_3D ( 'NONE', #41, #273, #306 ) ;
#84 = FACE_OUTER_BOUND ( 'NONE', #255, .T. ) ;
#85 = ORIENTED_EDGE ( 'NONE', *, *, #235, .F. ) ;
#86 = PRODUCT ( '\X2\57066da65706630994ae\X0\0807', '\X2\57066da65706630994ae\X0\0807', '', ( #401 ) ) ;
#87 = DIRECTION ( 'NONE',  ( 1.000000000000000000, 0.000000000000000000, 0.000000000000000000 ) ) ;
#88 = VERTEX_POINT ( 'NONE', #327 ) ;
#89 = VERTEX_POINT ( 'NONE', #95 ) ;
#90 = TOROIDAL_SURFACE ( 'NONE', #151, 2.238545293463932939, 0.2000000000000000111 ) ;
#91 = ADVANCED_FACE ( 'NONE', ( #279 ), #479, .T. ) ;
#92 = SURFACE_STYLE_FILL_AREA ( #323 ) ;
#93 = CARTESIAN_POINT ( 'NONE',  ( 37.54564685207883912, -32.43770605650531280, -1.000000000000000000 ) ) ;
#94 = CARTESIAN_POINT ( 'NONE',  ( 32.36710636507766736, -32.43770605650531280, 0.8000000000000000444 ) ) ;
#95 = CARTESIAN_POINT ( 'NONE',  ( 36.76710636507767305, -32.43770605650531280, -1.000000000000000000 ) ) ;
#96 = EDGE_CURVE ( 'NONE', #181, #88, #269, .T. ) ;
#97 = DIRECTION ( 'NONE',  ( 0.000000000000000000, 0.000000000000000000, 1.000000000000000000 ) ) ;
#98 = CARTESIAN_POINT ( 'NONE',  ( 32.36710636507766736, -32.43770605650531280, 1.000000000000000000 ) ) ;
#99 = CARTESIAN_POINT ( 'NONE',  ( 29.52856107161373345, -32.43770605650531280, 0.8000000000000000444 ) ) ;
#100 = CARTESIAN_POINT ( 'NONE',  ( 32.36710636507766736, -32.43770605650531280, 0.000000000000000000 ) ) ;
#101 = AXIS2_PLACEMENT_3D ( 'NONE', #121, #157, #33 ) ;
#102 = AXIS2_PLACEMENT_3D ( 'NONE', #94, #242, #207 ) ;
#103 = FACE_OUTER_BOUND ( 'NONE', #67, .T. ) ;
#104 = EDGE_LOOP ( 'NONE', ( #303, #112, #492, #420 ) ) ;
#105 = APPLICATION_PROTOCOL_DEFINITION ( 'draft international standard', 'automotive_design', 1998, #308 ) ;
#106 = CARTESIAN_POINT ( 'NONE',  ( 35.00565165854160199, -32.43770605650531280, 0.8000000000000000444 ) ) ;
#107 = EDGE_LOOP ( 'NONE', ( #115, #266 ) ) ;
#108 = DIRECTION ( 'NONE',  ( -0.000000000000000000, -0.000000000000000000, -1.000000000000000000 ) ) ;
#109 = ADVANCED_FACE ( 'NONE', ( #167, #60 ), #430, .T. ) ;
#110 = CARTESIAN_POINT ( 'NONE',  ( 35.76710636507766594, -32.43770605650531280, 0.000000000000000000 ) ) ;
#111 = CARTESIAN_POINT ( 'NONE',  ( 27.18856587807649916, -32.43770605650531280, -1.000000000000000000 ) ) ;
#112 = ORIENTED_EDGE ( 'NONE', *, *, #24, .T. ) ;
#113 = ADVANCED_FACE ( 'NONE', ( #172 ), #118, .T. ) ;
#114 = LINE ( 'NONE', #111, #277 ) ;
#115 = ORIENTED_EDGE ( 'NONE', *, *, #139, .F. ) ;
#116 = DIRECTION ( 'NONE',  ( 0.000000000000000000, 0.000000000000000000, 1.000000000000000000 ) ) ;
#117 = VERTEX_POINT ( 'NONE', #395 ) ;
#118 = TOROIDAL_SURFACE ( 'NONE', #28, 3.400000000000003908, 1.000000000000000000 ) ;
#119 = CARTESIAN_POINT ( 'NONE',  ( 33.96710636507767589, -32.43770605650531280, -1.500000000000000000 ) ) ;
#120 = ORIENTED_EDGE ( 'NONE', *, *, #431, .F. ) ;
#121 = CARTESIAN_POINT ( 'NONE',  ( 32.36710636507766736, -32.43770605650531280, 0.000000000000000000 ) ) ;
#122 = ORIENTED_EDGE ( 'NONE', *, *, #484, .T. ) ;
#123 = EDGE_CURVE ( 'NONE', #490, #3, #310, .T. ) ;
#124 = PLANE ( 'NONE',  #40 ) ;
#125 = AXIS2_PLACEMENT_3D ( 'NONE', #30, #186, #66 ) ;
#126 = DIRECTION ( 'NONE',  ( -1.000000000000000000, 0.000000000000000000, -0.000000000000000000 ) ) ;
#127 = AXIS2_PLACEMENT_3D ( 'NONE', #18, #358, #55 ) ;
#128 = CIRCLE ( 'NONE', #450, 0.1999999999999987899 ) ;
#129 = AXIS2_PLACEMENT_3D ( 'NONE', #205, #132, #253 ) ;
#130 = CARTESIAN_POINT ( 'NONE',  ( 27.96710636507766523, -32.43770605650531280, 0.000000000000000000 ) ) ;
#131 = DIRECTION ( 'NONE',  ( 1.000000000000000000, 0.000000000000000000, 0.000000000000000000 ) ) ;
#132 = DIRECTION ( 'NONE',  ( 0.000000000000000000, 0.000000000000000000, 1.000000000000000000 ) ) ;
#133 = ADVANCED_FACE ( 'NONE', ( #438 ), #399, .T. ) ;
#134 = DIRECTION ( 'NONE',  ( -0.000000000000000000, -0.000000000000000000, -1.000000000000000000 ) ) ;
#135 =( NAMED_UNIT ( * ) PLANE_ANGLE_UNIT ( ) SI_UNIT ( $, .RADIAN. ) );
#136 = CARTESIAN_POINT ( 'NONE',  ( 28.96710636507766523, -32.43770605650531280, 1.000000000000000000 ) ) ;
#137 = DIRECTION ( 'NONE',  ( -1.000000000000000000, 0.000000000000000000, 0.000000000000000000 ) ) ;
#138 = ORIENTED_EDGE ( 'NONE', *, *, #466, .F. ) ;
#139 = EDGE_CURVE ( 'NONE', #488, #80, #4, .T. ) ;
#140 = CARTESIAN_POINT ( 'NONE',  ( 35.20565165854159773, -32.43770605650531280, 0.8000000000000000444 ) ) ;
#141 = DIRECTION ( 'NONE',  ( 1.000000000000000000, 0.000000000000000000, 0.000000000000000000 ) ) ;
#142 = AXIS2_PLACEMENT_3D ( 'NONE', #16, #239, #278 ) ;
#143 = EDGE_LOOP ( 'NONE', ( #388, #449 ) ) ;
#144 = UNCERTAINTY_MEASURE_WITH_UNIT (LENGTH_MEASURE( 1.000000000000000082E-05 ), #174, 'distance_accuracy_value', 'NONE');
#145 = EDGE_CURVE ( 'NONE', #383, #3, #258, .T. ) ;
#146 = CARTESIAN_POINT ( 'NONE',  ( 32.36710636507766736, -32.43770605650531280, 1.000000000000000000 ) ) ;
#147 = DIRECTION ( 'NONE',  ( 1.000000000000000000, 0.000000000000000000, 0.000000000000000000 ) ) ;
#148 = ORIENTED_EDGE ( 'NONE', *, *, #411, .T. ) ;
#149 = VECTOR ( 'NONE', #413, 1000.000000000000000 ) ;
#150 = DIRECTION ( 'NONE',  ( -0.000000000000000000, -0.000000000000000000, -1.000000000000000000 ) ) ;
#151 = AXIS2_PLACEMENT_3D ( 'NONE', #282, #9, #246 ) ;
#152 = EDGE_LOOP ( 'NONE', ( #311, #378, #349, #69 ) ) ;
#153 = CYLINDRICAL_SURFACE ( 'NONE', #260, 1.600000000000000755 ) ;
#154 = EDGE_LOOP ( 'NONE', ( #495, #193 ) ) ;
#155 = CARTESIAN_POINT ( 'NONE',  ( 34.80565165854160625, -32.43770605650531280, 0.8000000000000000444 ) ) ;
#156 = EDGE_LOOP ( 'NONE', ( #334, #313 ) ) ;
#157 = DIRECTION ( 'NONE',  ( -0.000000000000000000, -0.000000000000000000, -1.000000000000000000 ) ) ;
#158 = VERTEX_POINT ( 'NONE', #183 ) ;
#159 = UNCERTAINTY_MEASURE_WITH_UNIT (LENGTH_MEASURE( 1.000000000000000082E-05 ), #365, 'distance_accuracy_value', 'NONE');
#160 = FACE_OUTER_BOUND ( 'NONE', #107, .T. ) ;
#161 = EDGE_CURVE ( 'NONE', #88, #181, #441, .T. ) ;
#162 = ORIENTED_EDGE ( 'NONE', *, *, #431, .T. ) ;
#163 = DIRECTION ( 'NONE',  ( -1.000000000000000000, 0.000000000000000000, -0.000000000000000000 ) ) ;
#164 = DIRECTION ( 'NONE',  ( -1.000000000000000000, 0.000000000000000000, 0.000000000000000000 ) ) ;
#165 = PRESENTATION_STYLE_ASSIGNMENT (( #429 ) ) ;
#166 = AXIS2_PLACEMENT_3D ( 'NONE', #415, #387, #422 ) ;
#167 = FACE_BOUND ( 'NONE', #31, .T. ) ;
#168 = AXIS2_PLACEMENT_3D ( 'NONE', #407, #491, #489 ) ;
#169 = EDGE_CURVE ( 'NONE', #452, #383, #229, .T. ) ;
#170 = AXIS2_PLACEMENT_3D ( 'NONE', #498, #268, #346 ) ;
#171 = SURFACE_SIDE_STYLE ('',( #92 ) ) ;
#172 = FACE_OUTER_BOUND ( 'NONE', #252, .T. ) ;
#173 = CARTESIAN_POINT ( 'NONE',  ( 32.36710636507766736, -32.43770605650531280, 0.5000000000000000000 ) ) ;
#174 =( LENGTH_UNIT ( ) NAMED_UNIT ( * ) SI_UNIT ( .MILLI., .METRE. ) );
#175 = DIRECTION ( 'NONE',  ( 1.000000000000000000, 0.000000000000000000, 0.000000000000000000 ) ) ;
#176 = DIRECTION ( 'NONE',  ( 0.000000000000000000, 0.000000000000000000, 1.000000000000000000 ) ) ;
#177 = EDGE_CURVE ( 'NONE', #416, #196, #231, .T. ) ;
#178 = DIRECTION ( 'NONE',  ( 1.000000000000000000, 0.000000000000000000, 0.000000000000000000 ) ) ;
#179 = VERTEX_POINT ( 'NONE', #68 ) ;
#180 = DIRECTION ( 'NONE',  ( 0.000000000000000000, -1.000000000000000000, 0.000000000000000000 ) ) ;
#181 = VERTEX_POINT ( 'NONE', #106 ) ;
#182 = EDGE_CURVE ( 'NONE', #410, #371, #10, .T. ) ;
#183 = CARTESIAN_POINT ( 'NONE',  ( 30.76710636507766949, -32.43770605650531280, 0.5000000000000000000 ) ) ;
#184 = MECHANICAL_DESIGN_GEOMETRIC_PRESENTATION_REPRESENTATION (  '', ( #272 ), #497 ) ;
#185 = PRODUCT_DEFINITION_CONTEXT ( 'detailed design', #308, 'design' ) ;
#186 = DIRECTION ( 'NONE',  ( 0.000000000000000000, 0.000000000000000000, -1.000000000000000000 ) ) ;
#187 = FACE_OUTER_BOUND ( 'NONE', #337, .T. ) ;
#188 = EDGE_LOOP ( 'NONE', ( #232, #228 ) ) ;
#189 = AXIS2_PLACEMENT_3D ( 'NONE', #146, #108, #448 ) ;
#190 = CARTESIAN_POINT ( 'NONE',  ( 35.20565165854159773, -32.43770605650531280, 1.000000000000000000 ) ) ;
#191 = AXIS2_PLACEMENT_3D ( 'NONE', #321, #209, #275 ) ;
#192 = CIRCLE ( 'NONE', #54, 2.238545293463935160 ) ;
#193 = ORIENTED_EDGE ( 'NONE', *, *, #480, .F. ) ;
#194 = AXIS2_PLACEMENT_3D ( 'NONE', #348, #451, #87 ) ;
#195 = CARTESIAN_POINT ( 'NONE',  ( 27.18856587807649916, -32.43770605650531280, -1.500000000000000000 ) ) ;
#196 = VERTEX_POINT ( 'NONE', #61 ) ;
#197 = CARTESIAN_POINT ( 'NONE',  ( 30.76710636507766949, -32.43770605650531280, -1.500000000000000000 ) ) ;
#198 = ORIENTED_EDGE ( 'NONE', *, *, #139, .T. ) ;
#199 = ADVANCED_FACE ( 'NONE', ( #370 ), #357, .T. ) ;
#200 = CARTESIAN_POINT ( 'NONE',  ( 32.36710636507766736, -32.43770605650531280, -1.000000000000000000 ) ) ;
#201 = ORIENTED_EDGE ( 'NONE', *, *, #177, .F. ) ;
#202 = FACE_OUTER_BOUND ( 'NONE', #65, .T. ) ;
#203 = DIRECTION ( 'NONE',  ( 1.000000000000000000, 0.000000000000000000, 0.000000000000000000 ) ) ;
#204 = EDGE_CURVE ( 'NONE', #158, #373, #329, .T. ) ;
#205 = CARTESIAN_POINT ( 'NONE',  ( 0.000000000000000000, 0.000000000000000000, 0.000000000000000000 ) ) ;
#206 = AXIS2_PLACEMENT_3D ( 'NONE', #486, #462, #233 ) ;
#207 = DIRECTION ( 'NONE',  ( 1.000000000000000000, 0.000000000000000000, -0.000000000000000000 ) ) ;
#208 = COLOUR_RGB ( '',0.7921568627450980005, 0.8196078431372548767, 0.9333333333333333481 ) ;
#209 = DIRECTION ( 'NONE',  ( 0.000000000000000000, 0.000000000000000000, -1.000000000000000000 ) ) ;
#210 = DIRECTION ( 'NONE',  ( 0.000000000000000000, 0.000000000000000000, -1.000000000000000000 ) ) ;
#211 = DIRECTION ( 'NONE',  ( 1.000000000000000000, 0.000000000000000000, -0.000000000000000000 ) ) ;
#212 = DIRECTION ( 'NONE',  ( 0.000000000000000000, 0.000000000000000000, 1.000000000000000000 ) ) ;
#213 = EDGE_CURVE ( 'NONE', #80, #274, #64, .T. ) ;
#214 = CARTESIAN_POINT ( 'NONE',  ( 30.76710636507766949, -32.43770605650531280, 0.5000000000000000000 ) ) ;
#215 = CIRCLE ( 'NONE', #166, 1.600000000000000755 ) ;
#216 = CARTESIAN_POINT ( 'NONE',  ( 32.36710636507766736, -32.43770605650531280, 0.8000000000000000444 ) ) ;
#217 = CARTESIAN_POINT ( 'NONE',  ( 32.36710636507766736, -32.43770605650531280, -1.000000000000000000 ) ) ;
#218 = ORIENTED_EDGE ( 'NONE', *, *, #316, .T. ) ;
#219 = ADVANCED_FACE ( 'NONE', ( #483 ), #404, .T. ) ;
#220 = CARTESIAN_POINT ( 'NONE',  ( 32.36710636507766736, -32.43770605650531280, 1.000000000000000000 ) ) ;
#221 = ORIENTED_EDGE ( 'NONE', *, *, #123, .F. ) ;
#222 = CARTESIAN_POINT ( 'NONE',  ( 32.36710636507766736, -32.43770605650531280, 0.8000000000000000444 ) ) ;
#223 = VERTEX_POINT ( 'NONE', #70 ) ;
#224 = DIRECTION ( 'NONE',  ( 1.000000000000000000, 0.000000000000000000, 0.000000000000000000 ) ) ;
#225 = ORIENTED_EDGE ( 'NONE', *, *, #403, .T. ) ;
#226 = EDGE_CURVE ( 'NONE', #274, #393, #13, .T. ) ;
#227 = DIRECTION ( 'NONE',  ( -1.000000000000000000, 0.000000000000000000, 0.000000000000000000 ) ) ;
#228 = ORIENTED_EDGE ( 'NONE', *, *, #288, .T. ) ;
#229 = CIRCLE ( 'NONE', #421, 1.000000000000000000 ) ;
#230 = DIRECTION ( 'NONE',  ( 0.000000000000000000, 0.000000000000000000, -1.000000000000000000 ) ) ;
#231 = CIRCLE ( 'NONE', #341, 2.438545293463934005 ) ;
#232 = ORIENTED_EDGE ( 'NONE', *, *, #145, .T. ) ;
#233 = DIRECTION ( 'NONE',  ( -1.000000000000000000, 0.000000000000000000, -0.000000000000000000 ) ) ;
#234 = ORIENTED_EDGE ( 'NONE', *, *, #391, .F. ) ;
#235 = EDGE_CURVE ( 'NONE', #89, #223, #291, .T. ) ;
#236 = DIRECTION ( 'NONE',  ( -0.000000000000000000, -0.000000000000000000, -1.000000000000000000 ) ) ;
#237 = EDGE_LOOP ( 'NONE', ( #501, #148 ) ) ;
#238 = ORIENTED_EDGE ( 'NONE', *, *, #324, .T. ) ;
#239 = DIRECTION ( 'NONE',  ( 0.000000000000000000, 0.000000000000000000, 1.000000000000000000 ) ) ;
#240 = ORIENTED_EDGE ( 'NONE', *, *, #204, .F. ) ;
#241 = CARTESIAN_POINT ( 'NONE',  ( 32.36710636507766736, -32.43770605650531280, 1.000000000000000000 ) ) ;
#242 = DIRECTION ( 'NONE',  ( 0.000000000000000000, 0.000000000000000000, 1.000000000000000000 ) ) ;
#243 = VECTOR ( 'NONE', #424, 1000.000000000000000 ) ;
#244 = DIRECTION ( 'NONE',  ( 1.000000000000000000, 0.000000000000000000, -0.000000000000000000 ) ) ;
#245 = DIRECTION ( 'NONE',  ( 0.000000000000000000, 0.000000000000000000, -1.000000000000000000 ) ) ;
#246 = DIRECTION ( 'NONE',  ( 1.000000000000000000, 0.000000000000000000, 0.000000000000000000 ) ) ;
#247 = CARTESIAN_POINT ( 'NONE',  ( 37.54564685207883912, -32.43770605650531280, -1.500000000000000000 ) ) ;
#248 = AXIS2_PLACEMENT_3D ( 'NONE', #254, #446, #137 ) ;
#249 = CIRCLE ( 'NONE', #335, 4.400000000000004796 ) ;
#250 = EDGE_CURVE ( 'NONE', #410, #181, #82, .T. ) ;
#251 = CARTESIAN_POINT ( 'NONE',  ( 32.36710636507766736, -32.43770605650531280, 1.000000000000000000 ) ) ;
#252 = EDGE_LOOP ( 'NONE', ( #261, #287, #414, #257 ) ) ;
#253 = DIRECTION ( 'NONE',  ( 1.000000000000000000, 0.000000000000000000, 0.000000000000000000 ) ) ;
#254 = CARTESIAN_POINT ( 'NONE',  ( 30.12856107161373842, -32.43770605650531280, 0.8000000000000000444 ) ) ;
#255 = EDGE_LOOP ( 'NONE', ( #295, #463, #297, #240 ) ) ;
#256 = DIRECTION ( 'NONE',  ( 1.000000000000000000, 0.000000000000000000, 0.000000000000000000 ) ) ;
#257 = ORIENTED_EDGE ( 'NONE', *, *, #169, .F. ) ;
#258 = CIRCLE ( 'NONE', #47, 3.400000000000000355 ) ;
#259 = DIRECTION ( 'NONE',  ( 0.000000000000000000, -1.000000000000000000, 0.000000000000000000 ) ) ;
#260 = AXIS2_PLACEMENT_3D ( 'NONE', #44, #150, #417 ) ;
#261 = ORIENTED_EDGE ( 'NONE', *, *, #270, .F. ) ;
#262 = EDGE_CURVE ( 'NONE', #196, #447, #290, .T. ) ;
#263 = CARTESIAN_POINT ( 'NONE',  ( 32.36710636507766736, -32.43770605650531280, 0.5000000000000000000 ) ) ;
#264 = ORIENTED_EDGE ( 'NONE', *, *, #204, .T. ) ;
#265 = LINE ( 'NONE', #454, #53 ) ;
#266 = ORIENTED_EDGE ( 'NONE', *, *, #382, .F. ) ;
#267 = AXIS2_PLACEMENT_3D ( 'NONE', #220, #405, #178 ) ;
#268 = DIRECTION ( 'NONE',  ( 0.000000000000000000, 0.000000000000000000, -1.000000000000000000 ) ) ;
#269 = CIRCLE ( 'NONE', #39, 2.638545293463932850 ) ;
#270 = EDGE_CURVE ( 'NONE', #490, #452, #36, .T. ) ;
#271 = ORIENTED_EDGE ( 'NONE', *, *, #79, .F. ) ;
#272 = STYLED_ITEM ( 'NONE', ( #165 ), #476 ) ;
#273 = DIRECTION ( 'NONE',  ( 0.000000000000000000, -1.000000000000000000, 0.000000000000000000 ) ) ;
#274 = VERTEX_POINT ( 'NONE', #247 ) ;
#275 = DIRECTION ( 'NONE',  ( -1.000000000000000000, 0.000000000000000000, 0.000000000000000000 ) ) ;
#276 = ORIENTED_EDGE ( 'NONE', *, *, #213, .T. ) ;
#277 = VECTOR ( 'NONE', #379, 1000.000000000000000 ) ;
#278 = DIRECTION ( 'NONE',  ( 1.000000000000000000, 0.000000000000000000, 0.000000000000000000 ) ) ;
#279 = FACE_OUTER_BOUND ( 'NONE', #152, .T. ) ;
#280 = CARTESIAN_POINT ( 'NONE',  ( 32.36710636507766736, -32.43770605650531280, -1.000000000000000000 ) ) ;
#281 = DIRECTION ( 'NONE',  ( 0.000000000000000000, 0.000000000000000000, -1.000000000000000000 ) ) ;
#282 = CARTESIAN_POINT ( 'NONE',  ( 32.36710636507766736, -32.43770605650531280, 0.8000000000000000444 ) ) ;
#283 = PRODUCT_RELATED_PRODUCT_CATEGORY ( 'part', '', ( #86 ) ) ;
#284 = AXIS2_PLACEMENT_3D ( 'NONE', #309, #116, #339 ) ;
#285 = CARTESIAN_POINT ( 'NONE',  ( 28.96710636507766523, -32.43770605650531280, 0.000000000000000000 ) ) ;
#286 = DIRECTION ( 'NONE',  ( -1.000000000000000000, 0.000000000000000000, 0.000000000000000000 ) ) ;
#287 = ORIENTED_EDGE ( 'NONE', *, *, #123, .T. ) ;
#288 = EDGE_CURVE ( 'NONE', #3, #383, #333, .T. ) ;
#289 = DIRECTION ( 'NONE',  ( 1.000000000000000000, 0.000000000000000000, 0.000000000000000000 ) ) ;
#290 = CIRCLE ( 'NONE', #248, 0.1999999999999987899 ) ;
#291 = CIRCLE ( 'NONE', #465, 4.400000000000004796 ) ;
#292 = CIRCLE ( 'NONE', #194, 2.838545293463931696 ) ;
#293 = PLANE ( 'NONE',  #206 ) ;
#294 = DIRECTION ( 'NONE',  ( -0.000000000000000000, -0.000000000000000000, -1.000000000000000000 ) ) ;
#295 = ORIENTED_EDGE ( 'NONE', *, *, #484, .F. ) ;
#296 = DIRECTION ( 'NONE',  ( 0.000000000000000000, 0.000000000000000000, 1.000000000000000000 ) ) ;
#297 = ORIENTED_EDGE ( 'NONE', *, *, #480, .T. ) ;
#298 = ADVANCED_FACE ( 'NONE', ( #374, #103 ), #293, .T. ) ;
#299 = AXIS2_PLACEMENT_3D ( 'NONE', #98, #134, #164 ) ;
#300 = AXIS2_PLACEMENT_3D ( 'NONE', #263, #76, #227 ) ;
#301 = FACE_OUTER_BOUND ( 'NONE', #45, .T. ) ;
#302 = TOROIDAL_SURFACE ( 'NONE', #284, 3.400000000000003908, 1.000000000000000000 ) ;
#303 = ORIENTED_EDGE ( 'NONE', *, *, #270, .T. ) ;
#304 = ORIENTED_EDGE ( 'NONE', *, *, #262, .T. ) ;
#305 = EDGE_CURVE ( 'NONE', #179, #344, #265, .T. ) ;
#306 = DIRECTION ( 'NONE',  ( 0.000000000000000000, 0.000000000000000000, -1.000000000000000000 ) ) ;
#307 = ORIENTED_EDGE ( 'NONE', *, *, #24, .F. ) ;
#308 = APPLICATION_CONTEXT ( 'automotive_design' ) ;
#309 = CARTESIAN_POINT ( 'NONE',  ( 32.36710636507766736, -32.43770605650531280, 0.000000000000000000 ) ) ;
#310 = CIRCLE ( 'NONE', #436, 1.000000000000000888 ) ;
#311 = ORIENTED_EDGE ( 'NONE', *, *, #213, .F. ) ;
#312 = PLANE ( 'NONE',  #470 ) ;
#313 = ORIENTED_EDGE ( 'NONE', *, *, #235, .T. ) ;
#314 =( NAMED_UNIT ( * ) PLANE_ANGLE_UNIT ( ) SI_UNIT ( $, .RADIAN. ) );
#315 = CARTESIAN_POINT ( 'NONE',  ( 32.36710636507766736, -32.43770605650531280, -1.000000000000000000 ) ) ;
#316 = EDGE_CURVE ( 'NONE', #452, #490, #428, .T. ) ;
#317 = AXIS2_PLACEMENT_3D ( 'NONE', #100, #332, #289 ) ;
#318 = CARTESIAN_POINT ( 'NONE',  ( 30.12856107161373842, -32.43770605650531280, 1.000000000000000000 ) ) ;
#319 = CARTESIAN_POINT ( 'NONE',  ( 32.36710636507766736, -32.43770605650531280, 0.000000000000000000 ) ) ;
#320 = CIRCLE ( 'NONE', #81, 5.178540487001170867 ) ;
#321 = CARTESIAN_POINT ( 'NONE',  ( 32.36710636507766736, -32.43770605650531280, 0.5000000000000000000 ) ) ;
#322 = DIRECTION ( 'NONE',  ( -1.000000000000000000, 0.000000000000000000, 0.000000000000000000 ) ) ;
#323 = FILL_AREA_STYLE ('',( #398 ) ) ;
#324 = EDGE_CURVE ( 'NONE', #158, #179, #215, .T. ) ;
#325 = LINE ( 'NONE', #20, #63 ) ;
#326 =( NAMED_UNIT ( * ) SI_UNIT ( $, .STERADIAN. ) SOLID_ANGLE_UNIT ( ) );
#327 = CARTESIAN_POINT ( 'NONE',  ( 29.72856107161373274, -32.43770605650531280, 0.8000000000000000444 ) ) ;
#328 = ADVANCED_BREP_SHAPE_REPRESENTATION ( '\X2\57066da65706630994ae\X0\0807', ( #476, #129 ), #38 ) ;
#329 = LINE ( 'NONE', #214, #384 ) ;
#330 = DIRECTION ( 'NONE',  ( 0.000000000000000000, 0.000000000000000000, -1.000000000000000000 ) ) ;
#331 = ORIENTED_EDGE ( 'NONE', *, *, #250, .F. ) ;
#332 = DIRECTION ( 'NONE',  ( -0.000000000000000000, -0.000000000000000000, -1.000000000000000000 ) ) ;
#333 = CIRCLE ( 'NONE', #267, 3.400000000000000355 ) ;
#334 = ORIENTED_EDGE ( 'NONE', *, *, #73, .T. ) ;
#335 = AXIS2_PLACEMENT_3D ( 'NONE', #315, #281, #8 ) ;
#336 = CARTESIAN_POINT ( 'NONE',  ( 32.36710636507766736, -32.43770605650531280, 0.8000000000000000444 ) ) ;
#337 = EDGE_LOOP ( 'NONE', ( #221, #37, #29, #77 ) ) ;
#338 = DIRECTION ( 'NONE',  ( -1.000000000000000000, 0.000000000000000000, 0.000000000000000000 ) ) ;
#339 = DIRECTION ( 'NONE',  ( 1.000000000000000000, 0.000000000000000000, 0.000000000000000000 ) ) ;
#340 = ORIENTED_EDGE ( 'NONE', *, *, #250, .T. ) ;
#341 = AXIS2_PLACEMENT_3D ( 'NONE', #222, #296, #141 ) ;
#342 = CIRCLE ( 'NONE', #127, 1.600000000000000755 ) ;
#343 = FACE_OUTER_BOUND ( 'NONE', #457, .T. ) ;
#344 = VERTEX_POINT ( 'NONE', #119 ) ;
#345 = ADVANCED_FACE ( 'NONE', ( #385 ), #494, .T. ) ;
#346 = DIRECTION ( 'NONE',  ( -1.000000000000000000, 0.000000000000000000, 0.000000000000000000 ) ) ;
#347 = ORIENTED_EDGE ( 'NONE', *, *, #177, .T. ) ;
#348 = CARTESIAN_POINT ( 'NONE',  ( 32.36710636507766736, -32.43770605650531280, 1.000000000000000000 ) ) ;
#349 = ORIENTED_EDGE ( 'NONE', *, *, #353, .T. ) ;
#350 = CYLINDRICAL_SURFACE ( 'NONE', #170, 5.178540487001170867 ) ;
#351 = AXIS2_PLACEMENT_3D ( 'NONE', #377, #330, #27 ) ;
#352 = ORIENTED_EDGE ( 'NONE', *, *, #161, .F. ) ;
#353 = EDGE_CURVE ( 'NONE', #488, #393, #114, .T. ) ;
#354 = CYLINDRICAL_SURFACE ( 'NONE', #299, 4.400000000000004796 ) ;
#355 = PLANE ( 'NONE',  #467 ) ;
#356 = DIRECTION ( 'NONE',  ( -1.000000000000000000, 0.000000000000000000, 0.000000000000000000 ) ) ;
#357 = TOROIDAL_SURFACE ( 'NONE', #444, 2.838545293463935248, 0.2000000000000000111 ) ;
#358 = DIRECTION ( 'NONE',  ( 0.000000000000000000, 0.000000000000000000, -1.000000000000000000 ) ) ;
#359 = DIRECTION ( 'NONE',  ( 1.224646799147353207E-16, 1.000000000000000000, -0.000000000000000000 ) ) ;
#360 = AXIS2_PLACEMENT_3D ( 'NONE', #140, #180, #481 ) ;
#361 = AXIS2_PLACEMENT_3D ( 'NONE', #500, #78, #389 ) ;
#362 = ADVANCED_FACE ( 'NONE', ( #84 ), #153, .F. ) ;
#363 = CARTESIAN_POINT ( 'NONE',  ( 27.18856587807649916, -32.43770605650531280, -1.000000000000000000 ) ) ;
#364 = DIRECTION ( 'NONE',  ( 0.000000000000000000, 0.000000000000000000, -1.000000000000000000 ) ) ;
#365 =( LENGTH_UNIT ( ) NAMED_UNIT ( * ) SI_UNIT ( .MILLI., .METRE. ) );
#366 = CARTESIAN_POINT ( 'NONE',  ( 32.36710636507766736, -32.43770605650531280, -1.000000000000000000 ) ) ;
#367 = DIRECTION ( 'NONE',  ( -0.000000000000000000, -0.000000000000000000, -1.000000000000000000 ) ) ;
#368 = AXIS2_PLACEMENT_3D ( 'NONE', #173, #464, #126 ) ;
#369 = CIRCLE ( 'NONE', #142, 2.238545293463935160 ) ;
#370 = FACE_OUTER_BOUND ( 'NONE', #23, .T. ) ;
#371 = VERTEX_POINT ( 'NONE', #74 ) ;
#372 = DIRECTION ( 'NONE',  ( 0.000000000000000000, 0.000000000000000000, -1.000000000000000000 ) ) ;
#373 = VERTEX_POINT ( 'NONE', #197 ) ;
#374 = FACE_BOUND ( 'NONE', #154, .T. ) ;
#375 = EDGE_LOOP ( 'NONE', ( #238, #122 ) ) ;
#376 = ADVANCED_FACE ( 'NONE', ( #187 ), #302, .T. ) ;
#377 = CARTESIAN_POINT ( 'NONE',  ( 32.36710636507766736, -32.43770605650531280, -1.000000000000000000 ) ) ;
#378 = ORIENTED_EDGE ( 'NONE', *, *, #382, .T. ) ;
#379 = DIRECTION ( 'NONE',  ( 0.000000000000000000, 0.000000000000000000, -1.000000000000000000 ) ) ;
#380 = ORIENTED_EDGE ( 'NONE', *, *, #391, .T. ) ;
#381 = CARTESIAN_POINT ( 'NONE',  ( 32.36710636507766736, -32.43770605650531280, 0.8000000000000000444 ) ) ;
#382 = EDGE_CURVE ( 'NONE', #80, #488, #48, .T. ) ;
#383 = VERTEX_POINT ( 'NONE', #2 ) ;
#384 = VECTOR ( 'NONE', #367, 1000.000000000000000 ) ;
#385 = FACE_OUTER_BOUND ( 'NONE', #425, .T. ) ;
#386 = ORIENTED_EDGE ( 'NONE', *, *, #96, .F. ) ;
#387 = DIRECTION ( 'NONE',  ( 0.000000000000000000, 0.000000000000000000, -1.000000000000000000 ) ) ;
#388 = ORIENTED_EDGE ( 'NONE', *, *, #466, .T. ) ;
#389 = DIRECTION ( 'NONE',  ( 1.000000000000000000, 0.000000000000000000, 0.000000000000000000 ) ) ;
#390 = ORIENTED_EDGE ( 'NONE', *, *, #96, .T. ) ;
#391 = EDGE_CURVE ( 'NONE', #416, #117, #72, .T. ) ;
#392 =( NAMED_UNIT ( * ) SI_UNIT ( $, .STERADIAN. ) SOLID_ANGLE_UNIT ( ) );
#393 = VERTEX_POINT ( 'NONE', #195 ) ;
#394 = CARTESIAN_POINT ( 'NONE',  ( 32.36710636507766736, -32.43770605650531280, 0.8000000000000000444 ) ) ;
#395 = CARTESIAN_POINT ( 'NONE',  ( 34.60565165854160341, -32.43770605650531280, 1.000000000000000000 ) ) ;
#396 = ADVANCED_FACE ( 'NONE', ( #301 ), #6, .F. ) ;
#397 = APPLICATION_CONTEXT ( 'automotive_design' ) ;
#398 = FILL_AREA_STYLE_COLOUR ( '', #208 ) ;
#399 = CYLINDRICAL_SURFACE ( 'NONE', #71, 4.400000000000004796 ) ;
#400 = DIRECTION ( 'NONE',  ( 1.224646799147353207E-16, 1.000000000000000000, -0.000000000000000000 ) ) ;
#401 = PRODUCT_CONTEXT ( 'NONE', #397, 'mechanical' ) ;
#402 = CARTESIAN_POINT ( 'NONE',  ( 32.36710636507766736, -32.43770605650531280, -1.500000000000000000 ) ) ;
#403 = EDGE_CURVE ( 'NONE', #490, #223, #35, .T. ) ;
#404 = TOROIDAL_SURFACE ( 'NONE', #485, 2.838545293463935248, 0.2000000000000000111 ) ;
#405 = DIRECTION ( 'NONE',  ( 0.000000000000000000, 0.000000000000000000, 1.000000000000000000 ) ) ;
#406 = CIRCLE ( 'NONE', #191, 1.600000000000000755 ) ;
#407 = CARTESIAN_POINT ( 'NONE',  ( 32.36710636507766736, -32.43770605650531280, 0.8000000000000000444 ) ) ;
#408 = ORIENTED_EDGE ( 'NONE', *, *, #58, .F. ) ;
#409 = DIRECTION ( 'NONE',  ( 0.000000000000000000, 0.000000000000000000, 1.000000000000000000 ) ) ;
#410 = VERTEX_POINT ( 'NONE', #190 ) ;
#411 = EDGE_CURVE ( 'NONE', #371, #410, #292, .T. ) ;
#412 = SHAPE_DEFINITION_REPRESENTATION ( #468, #328 ) ;
#413 = DIRECTION ( 'NONE',  ( 0.000000000000000000, 0.000000000000000000, -1.000000000000000000 ) ) ;
#414 = ORIENTED_EDGE ( 'NONE', *, *, #145, .F. ) ;
#415 = CARTESIAN_POINT ( 'NONE',  ( 32.36710636507766736, -32.43770605650531280, 0.5000000000000000000 ) ) ;
#416 = VERTEX_POINT ( 'NONE', #155 ) ;
#417 = DIRECTION ( 'NONE',  ( -1.000000000000000000, 0.000000000000000000, 0.000000000000000000 ) ) ;
#418 = ORIENTED_EDGE ( 'NONE', *, *, #161, .T. ) ;
#419 = CARTESIAN_POINT ( 'NONE',  ( 27.96710636507766523, -32.43770605650531280, 1.000000000000000000 ) ) ;
#420 = ORIENTED_EDGE ( 'NONE', *, *, #403, .F. ) ;
#421 = AXIS2_PLACEMENT_3D ( 'NONE', #110, #259, #25 ) ;
#422 = DIRECTION ( 'NONE',  ( -1.000000000000000000, 0.000000000000000000, 0.000000000000000000 ) ) ;
#423 = ORIENTED_EDGE ( 'NONE', *, *, #43, .F. ) ;
#424 = DIRECTION ( 'NONE',  ( -0.000000000000000000, -0.000000000000000000, -1.000000000000000000 ) ) ;
#425 = EDGE_LOOP ( 'NONE', ( #42, #162, #380, #408 ) ) ;
#426 = CARTESIAN_POINT ( 'NONE',  ( 32.36710636507766736, -32.43770605650531280, 1.000000000000000000 ) ) ;
#427 = ORIENTED_EDGE ( 'NONE', *, *, #43, .T. ) ;
#428 = CIRCLE ( 'NONE', #101, 4.400000000000001243 ) ;
#429 = SURFACE_STYLE_USAGE ( .BOTH. , #171 ) ;
#430 = PLANE ( 'NONE',  #102 ) ;
#431 = EDGE_CURVE ( 'NONE', #196, #416, #14, .T. ) ;
#432 = DIRECTION ( 'NONE',  ( 0.000000000000000000, 0.000000000000000000, 1.000000000000000000 ) ) ;
#433 = DIRECTION ( 'NONE',  ( 0.000000000000000000, 0.000000000000000000, -1.000000000000000000 ) ) ;
#434 = CARTESIAN_POINT ( 'NONE',  ( 32.36710636507766736, -32.43770605650531280, -1.500000000000000000 ) ) ;
#435 = FACE_BOUND ( 'NONE', #237, .T. ) ;
#436 = AXIS2_PLACEMENT_3D ( 'NONE', #285, #359, #322 ) ;
#437 = FACE_OUTER_BOUND ( 'NONE', #375, .T. ) ;
#438 = FACE_OUTER_BOUND ( 'NONE', #104, .T. ) ;
#439 = ADVANCED_FACE ( 'NONE', ( #343 ), #350, .T. ) ;
#440 = DIRECTION ( 'NONE',  ( 0.000000000000000000, 0.000000000000000000, 1.000000000000000000 ) ) ;
#441 = CIRCLE ( 'NONE', #168, 2.638545293463932850 ) ;
#442 = CARTESIAN_POINT ( 'NONE',  ( 37.54564685207883912, -32.43770605650531280, -1.000000000000000000 ) ) ;
#443 = EDGE_LOOP ( 'NONE', ( #26, #427, #386, #331 ) ) ;
#444 = AXIS2_PLACEMENT_3D ( 'NONE', #216, #409, #256 ) ;
#445 = ADVANCED_FACE ( 'NONE', ( #456, #160 ), #312, .F. ) ;
#446 = DIRECTION ( 'NONE',  ( 1.224646799147353207E-16, 1.000000000000000000, -0.000000000000000000 ) ) ;
#447 = VERTEX_POINT ( 'NONE', #318 ) ;
#448 = DIRECTION ( 'NONE',  ( 1.000000000000000000, 0.000000000000000000, 0.000000000000000000 ) ) ;
#449 = ORIENTED_EDGE ( 'NONE', *, *, #58, .T. ) ;
#450 = AXIS2_PLACEMENT_3D ( 'NONE', #99, #400, #356 ) ;
#451 = DIRECTION ( 'NONE',  ( -0.000000000000000000, -0.000000000000000000, -1.000000000000000000 ) ) ;
#452 = VERTEX_POINT ( 'NONE', #59 ) ;
#453 = ADVANCED_FACE ( 'NONE', ( #469 ), #124, .T. ) ;
#454 = CARTESIAN_POINT ( 'NONE',  ( 33.96710636507767589, -32.43770605650531280, 0.5000000000000000000 ) ) ;
#455 = ORIENTED_EDGE ( 'NONE', *, *, #324, .F. ) ;
#456 = FACE_BOUND ( 'NONE', #156, .T. ) ;
#457 = EDGE_LOOP ( 'NONE', ( #198, #276, #271, #46 ) ) ;
#458 = AXIS2_PLACEMENT_3D ( 'NONE', #402, #210, #51 ) ;
#459 = DIRECTION ( 'NONE',  ( 0.000000000000000000, 0.000000000000000000, 1.000000000000000000 ) ) ;
#460 = PRODUCT_DEFINITION ( 'Êú', '', #21, #185 ) ;
#461 = ORIENTED_EDGE ( 'NONE', *, *, #79, .T. ) ;
#462 = DIRECTION ( 'NONE',  ( 0.000000000000000000, 0.000000000000000000, -1.000000000000000000 ) ) ;
#463 = ORIENTED_EDGE ( 'NONE', *, *, #305, .T. ) ;
#464 = DIRECTION ( 'NONE',  ( 0.000000000000000000, 0.000000000000000000, -1.000000000000000000 ) ) ;
#465 = AXIS2_PLACEMENT_3D ( 'NONE', #217, #372, #338 ) ;
#466 = EDGE_CURVE ( 'NONE', #117, #447, #369, .T. ) ;
#467 = AXIS2_PLACEMENT_3D ( 'NONE', #426, #97, #244 ) ;
#468 = PRODUCT_DEFINITION_SHAPE ( 'NONE', 'NONE',  #460 ) ;
#469 = FACE_OUTER_BOUND ( 'NONE', #143, .T. ) ;
#470 = AXIS2_PLACEMENT_3D ( 'NONE', #280, #433, #163 ) ;
#471 = PLANE ( 'NONE',  #368 ) ;
#472 = FACE_OUTER_BOUND ( 'NONE', #188, .T. ) ;
#473 = FACE_OUTER_BOUND ( 'NONE', #499, .T. ) ;
#474 = DIRECTION ( 'NONE',  ( 0.000000000000000000, 0.000000000000000000, 1.000000000000000000 ) ) ;
#475 = DIRECTION ( 'NONE',  ( -0.000000000000000000, -0.000000000000000000, -1.000000000000000000 ) ) ;
#476 = MANIFOLD_SOLID_BREP ( '‘≤Ω«2', #11 ) ;
#477 = CARTESIAN_POINT ( 'NONE',  ( 32.36710636507766736, -32.43770605650531280, 1.000000000000000000 ) ) ;
#478 = CIRCLE ( 'NONE', #458, 1.600000000000000755 ) ;
#479 = CYLINDRICAL_SURFACE ( 'NONE', #487, 5.178540487001170867 ) ;
#480 = EDGE_CURVE ( 'NONE', #344, #373, #342, .T. ) ;
#481 = DIRECTION ( 'NONE',  ( 0.000000000000000000, 0.000000000000000000, -1.000000000000000000 ) ) ;
#482 = EDGE_LOOP ( 'NONE', ( #390, #418 ) ) ;
#483 = FACE_OUTER_BOUND ( 'NONE', #443, .T. ) ;
#484 = EDGE_CURVE ( 'NONE', #179, #158, #406, .T. ) ;
#485 = AXIS2_PLACEMENT_3D ( 'NONE', #336, #440, #22 ) ;
#486 = CARTESIAN_POINT ( 'NONE',  ( 32.36710636507766736, -32.43770605650531280, -1.500000000000000000 ) ) ;
#487 = AXIS2_PLACEMENT_3D ( 'NONE', #366, #364, #17 ) ;
#488 = VERTEX_POINT ( 'NONE', #363 ) ;
#489 = DIRECTION ( 'NONE',  ( 1.000000000000000000, 0.000000000000000000, 0.000000000000000000 ) ) ;
#490 = VERTEX_POINT ( 'NONE', #130 ) ;
#491 = DIRECTION ( 'NONE',  ( 0.000000000000000000, 0.000000000000000000, 1.000000000000000000 ) ) ;
#492 = ORIENTED_EDGE ( 'NONE', *, *, #73, .F. ) ;
#493 = DIRECTION ( 'NONE',  ( -1.000000000000000000, 0.000000000000000000, 0.000000000000000000 ) ) ;
#494 = TOROIDAL_SURFACE ( 'NONE', #62, 2.238545293463932939, 0.2000000000000000111 ) ;
#495 = ORIENTED_EDGE ( 'NONE', *, *, #1, .F. ) ;
#496 = ADVANCED_FACE ( 'NONE', ( #472, #435 ), #355, .T. ) ;
#497 =( GEOMETRIC_REPRESENTATION_CONTEXT ( 3 ) GLOBAL_UNCERTAINTY_ASSIGNED_CONTEXT ( ( #159 ) ) GLOBAL_UNIT_ASSIGNED_CONTEXT ( ( #365, #135, #326 ) ) REPRESENTATION_CONTEXT ( 'NONE', 'WORKASPACE' ) );
#498 = CARTESIAN_POINT ( 'NONE',  ( 32.36710636507766736, -32.43770605650531280, -1.000000000000000000 ) ) ;
#499 = EDGE_LOOP ( 'NONE', ( #347, #304, #138, #234 ) ) ;
#500 = CARTESIAN_POINT ( 'NONE',  ( 32.36710636507766736, -32.43770605650531280, 0.8000000000000000444 ) ) ;
#501 = ORIENTED_EDGE ( 'NONE', *, *, #182, .T. ) ;
ENDSEC;
END-ISO-10303-21;
