ISO-10303-21;
HEADER;
FILE_DESCRIPTION (( 'STEP AP214' ),
    '1' );
FILE_NAME ('0808 V2µ×¿Ç.STEP',
    '2026-08-13T06:19:25',
    ( '' ),
    ( '' ),
    'SwSTEP 2.0',
    'SolidWorks 2024',
    '' );
FILE_SCHEMA (( 'AUTOMOTIVE_DESIGN' ));
ENDSEC;

DATA;
#1 = DIRECTION ( 'NONE',  ( 0.000000000000000000, 0.000000000000000000, -1.000000000000000000 ) ) ;
#2 = ORIENTED_EDGE ( 'NONE', *, *, #493, .F. ) ;
#3 = FACE_OUTER_BOUND ( 'NONE', #39, .T. ) ;
#4 = VERTEX_POINT ( 'NONE', #934 ) ;
#5 = FACE_OUTER_BOUND ( 'NONE', #919, .T. ) ;
#6 = CYLINDRICAL_SURFACE ( 'NONE', #158, 1.799999999999999822 ) ;
#7 = EDGE_CURVE ( 'NONE', #634, #980, #567, .T. ) ;
#8 = CARTESIAN_POINT ( 'NONE',  ( 1.459655412721067025, 18.74374527427763581, -2.000000000000000000 ) ) ;
#9 = DIRECTION ( 'NONE',  ( 1.000000000000000000, 0.000000000000000000, 0.000000000000000000 ) ) ;
#10 = EDGE_LOOP ( 'NONE', ( #842, #872 ) ) ;
#11 = CYLINDRICAL_SURFACE ( 'NONE', #890, 1.149999999999998135 ) ;
#12 = CIRCLE ( 'NONE', #741, 1.149999999999998135 ) ;
#13 = ORIENTED_EDGE ( 'NONE', *, *, #956, .T. ) ;
#14 = VECTOR ( 'NONE', #1112, 1000.000000000000000 ) ;
#15 = DIRECTION ( 'NONE',  ( -1.000000000000000000, 0.000000000000000000, 0.000000000000000000 ) ) ;
#16 = LINE ( 'NONE', #106, #1001 ) ;
#17 = CARTESIAN_POINT ( 'NONE',  ( -0.1850161592051086101, 19.39267481122346837, -1.000000000000000000 ) ) ;
#18 = ORIENTED_EDGE ( 'NONE', *, *, #193, .T. ) ;
#19 = VERTEX_POINT ( 'NONE', #803 ) ;
#20 = FACE_OUTER_BOUND ( 'NONE', #616, .T. ) ;
#21 = CIRCLE ( 'NONE', #790, 3.849999999999998312 ) ;
#22 = CYLINDRICAL_SURFACE ( 'NONE', #61, 1.149999999999999023 ) ;
#23 = CARTESIAN_POINT ( 'NONE',  ( -44.22735356466328938, -45.46841504291472802, -2.000000000000000000 ) ) ;
#24 = ORIENTED_EDGE ( 'NONE', *, *, #1346, .T. ) ;
#25 = EDGE_CURVE ( 'NONE', #570, #342, #813, .T. ) ;
#26 = VERTEX_POINT ( 'NONE', #289 ) ;
#27 = DIRECTION ( 'NONE',  ( 1.000000000000000000, 0.000000000000000000, 0.000000000000000000 ) ) ;
#28 = DIRECTION ( 'NONE',  ( 1.000000000000000000, 0.000000000000000000, 0.000000000000000000 ) ) ;
#29 = CARTESIAN_POINT ( 'NONE',  ( -45.75028585900997768, -12.99993138616776989, 0.000000000000000000 ) ) ;
#30 = EDGE_LOOP ( 'NONE', ( #990, #1187, #1008, #1251 ) ) ;
#31 = ORIENTED_EDGE ( 'NONE', *, *, #286, .T. ) ;
#32 = AXIS2_PLACEMENT_3D ( 'NONE', #1229, #262, #161 ) ;
#33 = DIRECTION ( 'NONE',  ( 0.000000000000000000, 0.000000000000000000, -1.000000000000000000 ) ) ;
#34 = ADVANCED_FACE ( 'NONE', ( #403 ), #703, .T. ) ;
#35 = CIRCLE ( 'NONE', #385, 1.799999999999999822 ) ;
#36 = DIRECTION ( 'NONE',  ( 1.000000000000000000, 0.000000000000000000, 0.000000000000000000 ) ) ;
#37 = DIRECTION ( 'NONE',  ( 1.000000000000000000, 0.000000000000000000, 0.000000000000000000 ) ) ;
#38 = FACE_OUTER_BOUND ( 'NONE', #81, .T. ) ;
#39 = EDGE_LOOP ( 'NONE', ( #320, #373, #213, #961 ) ) ;
#40 = AXIS2_PLACEMENT_3D ( 'NONE', #339, #1070, #653 ) ;
#41 = ORIENTED_EDGE ( 'NONE', *, *, #510, .F. ) ;
#42 = DIRECTION ( 'NONE',  ( 0.000000000000000000, 0.000000000000000000, 1.000000000000000000 ) ) ;
#43 = EDGE_CURVE ( 'NONE', #531, #738, #275, .T. ) ;
#44 = LINE ( 'NONE', #556, #1285 ) ;
#45 =( NAMED_UNIT ( * ) PLANE_ANGLE_UNIT ( ) SI_UNIT ( $, .RADIAN. ) );
#46 = CYLINDRICAL_SURFACE ( 'NONE', #984, 1.800000000000002931 ) ;
#47 = EDGE_LOOP ( 'NONE', ( #1048, #197 ) ) ;
#48 =( LENGTH_UNIT ( ) NAMED_UNIT ( * ) SI_UNIT ( .MILLI., .METRE. ) );
#49 = CARTESIAN_POINT ( 'NONE',  ( -47.75028585900997768, -12.99993138616776989, 1.911745309139292193 ) ) ;
#50 = EDGE_CURVE ( 'NONE', #700, #1276, #918, .T. ) ;
#51 = CARTESIAN_POINT ( 'NONE',  ( -2.390344587278961708, -45.46841504291472091, 0.000000000000000000 ) ) ;
#52 = EDGE_LOOP ( 'NONE', ( #1296, #784 ) ) ;
#53 = DIRECTION ( 'NONE',  ( 1.000000000000000000, 0.000000000000000000, 0.000000000000000000 ) ) ;
#54 = CIRCLE ( 'NONE', #162, 3.849999999999998312 ) ;
#55 = CIRCLE ( 'NONE', #1306, 1.799999999999999822 ) ;
#56 = CARTESIAN_POINT ( 'NONE',  ( -1.335016159205108854, 19.39267481122346837, -1.000000000000000000 ) ) ;
#57 = ADVANCED_FACE ( 'NONE', ( #1242 ), #924, .F. ) ;
#58 = CIRCLE ( 'NONE', #1000, 1.999999999999999556 ) ;
#59 = ORIENTED_EDGE ( 'NONE', *, *, #1059, .F. ) ;
#60 = PLANE ( 'NONE',  #1016 ) ;
#61 = AXIS2_PLACEMENT_3D ( 'NONE', #619, #837, #550 ) ;
#62 = EDGE_LOOP ( 'NONE', ( #1157, #420, #767, #1119, #601, #480, #83, #833, #147 ) ) ;
#63 = EDGE_CURVE ( 'NONE', #1115, #731, #822, .T. ) ;
#64 = CARTESIAN_POINT ( 'NONE',  ( -3.135016159205109787, -43.23723148550483586, 0.000000000000000000 ) ) ;
#65 = DIRECTION ( 'NONE',  ( -0.000000000000000000, -0.000000000000000000, -1.000000000000000000 ) ) ;
#66 = DIRECTION ( 'NONE',  ( 1.000000000000000000, 0.000000000000000000, 0.000000000000000000 ) ) ;
#67 = ORIENTED_EDGE ( 'NONE', *, *, #50, .T. ) ;
#68 = AXIS2_PLACEMENT_3D ( 'NONE', #535, #1249, #307 ) ;
#69 = PLANE ( 'NONE',  #494 ) ;
#70 = CARTESIAN_POINT ( 'NONE',  ( -46.03722585882248808, 19.14266193162950103, -1.000000000000000000 ) ) ;
#71 = AXIS2_PLACEMENT_3D ( 'NONE', #321, #826, #756 ) ;
#72 = LINE ( 'NONE', #194, #1216 ) ;
#73 = EDGE_LOOP ( 'NONE', ( #1333, #943 ) ) ;
#74 = DIRECTION ( 'NONE',  ( -0.000000000000000000, 1.000000000000000000, -0.000000000000000000 ) ) ;
#75 = VECTOR ( 'NONE', #613, 1000.000000000000000 ) ;
#76 = ORIENTED_EDGE ( 'NONE', *, *, #1107, .F. ) ;
#77 = AXIS2_PLACEMENT_3D ( 'NONE', #146, #245, #394 ) ;
#78 = CARTESIAN_POINT ( 'NONE',  ( -48.07735355008384914, -41.61875009804676040, 0.000000000000000000 ) ) ;
#79 = ADVANCED_FACE ( 'NONE', ( #89 ), #709, .T. ) ;
#80 = DIRECTION ( 'NONE',  ( -0.004510476481664449019, -0.9999898277492168530, 0.000000000000000000 ) ) ;
#81 = EDGE_LOOP ( 'NONE', ( #797, #968, #1349, #437, #18 ) ) ;
#82 = CARTESIAN_POINT ( 'NONE',  ( -1.335016159205108854, 19.39267481122346837, -2.000000000000000000 ) ) ;
#83 = ORIENTED_EDGE ( 'NONE', *, *, #1034, .F. ) ;
#84 = CARTESIAN_POINT ( 'NONE',  ( -1.335016159205108854, -43.23723148550483586, -1.000000000000000000 ) ) ;
#85 = CARTESIAN_POINT ( 'NONE',  ( -46.03722585882248808, -43.23723148550483586, -2.000000000000000000 ) ) ;
#86 = EDGE_CURVE ( 'NONE', #165, #1022, #58, .T. ) ;
#87 = UNCERTAINTY_MEASURE_WITH_UNIT (LENGTH_MEASURE( 1.000000000000000082E-05 ), #48, 'distance_accuracy_value', 'NONE');
#88 = EDGE_CURVE ( 'NONE', #1084, #110, #1175, .T. ) ;
#89 = FACE_OUTER_BOUND ( 'NONE', #1097, .T. ) ;
#90 = EDGE_LOOP ( 'NONE', ( #178, #777, #1331, #1324, #448, #831, #1269, #1302 ) ) ;
#91 = DIRECTION ( 'NONE',  ( 0.000000000000000000, -1.000000000000000000, -0.000000000000000000 ) ) ;
#92 = CYLINDRICAL_SURFACE ( 'NONE', #1125, 1.800000000000002931 ) ;
#93 = DIRECTION ( 'NONE',  ( 0.000000000000000000, 0.000000000000000000, -1.000000000000000000 ) ) ;
#94 = CARTESIAN_POINT ( 'NONE',  ( -44.88722585882248950, -43.23723148550483586, -1.000000000000000000 ) ) ;
#95 = CIRCLE ( 'NONE', #71, 1.800000000000002931 ) ;
#96 = DIRECTION ( 'NONE',  ( 0.000000000000000000, 0.000000000000000000, 1.000000000000000000 ) ) ;
#97 = AXIS2_PLACEMENT_3D ( 'NONE', #596, #1222, #707 ) ;
#98 = VERTEX_POINT ( 'NONE', #170 ) ;
#99 = EDGE_CURVE ( 'NONE', #303, #1162, #520, .T. ) ;
#100 = CIRCLE ( 'NONE', #783, 2.000000000000000000 ) ;
#101 = CARTESIAN_POINT ( 'NONE',  ( -43.98256164536424251, 18.74374527427766779, -2.000000000000000000 ) ) ;
#102 = ORIENTED_EDGE ( 'NONE', *, *, #415, .T. ) ;
#103 = DIRECTION ( 'NONE',  ( -0.000000000000000000, 1.000000000000000000, -0.000000000000000000 ) ) ;
#104 = DIRECTION ( 'NONE',  ( -0.000000000000000000, 1.000000000000000000, -0.000000000000000000 ) ) ;
#105 = VECTOR ( 'NONE', #419, 1000.000000000000000 ) ;
#106 = CARTESIAN_POINT ( 'NONE',  ( -2.890344587278975919, 22.59374527427766211, 0.000000000000000000 ) ) ;
#107 = VECTOR ( 'NONE', #552, 1000.000000000000000 ) ;
#108 = AXIS2_PLACEMENT_3D ( 'NONE', #175, #503, #978 ) ;
#109 = CARTESIAN_POINT ( 'NONE',  ( -2.390344587278959487, 22.59374527427766211, 0.000000000000000000 ) ) ;
#110 = VERTEX_POINT ( 'NONE', #1021 ) ;
#111 = CARTESIAN_POINT ( 'NONE',  ( -46.68722585882249376, 19.14266193162950103, 0.000000000000000000 ) ) ;
#112 = ADVANCED_FACE ( 'NONE', ( #830 ), #1343, .T. ) ;
#113 = DIRECTION ( 'NONE',  ( 0.000000000000000000, 1.000000000000000000, 0.000000000000000000 ) ) ;
#114 = DIRECTION ( 'NONE',  ( 0.000000000000000000, 0.000000000000000000, 1.000000000000000000 ) ) ;
#115 = DIRECTION ( 'NONE',  ( -1.000000000000000000, 0.000000000000000000, 0.000000000000000000 ) ) ;
#116 = ORIENTED_EDGE ( 'NONE', *, *, #1163, .F. ) ;
#117 = CARTESIAN_POINT ( 'NONE',  ( -1.335016159205108854, -43.23723148550483586, 0.000000000000000000 ) ) ;
#118 = ORIENTED_EDGE ( 'NONE', *, *, #582, .F. ) ;
#119 = DIRECTION ( 'NONE',  ( -1.000000000000000000, 0.000000000000000000, 0.000000000000000000 ) ) ;
#120 = DIRECTION ( 'NONE',  ( -0.004510476481664449887, -0.9999898277492168530, 0.000000000000000000 ) ) ;
#121 = LINE ( 'NONE', #1165, #461 ) ;
#122 = ORIENTED_EDGE ( 'NONE', *, *, #88, .F. ) ;
#123 = CIRCLE ( 'NONE', #475, 1.149999999999998135 ) ;
#124 = ORIENTED_EDGE ( 'NONE', *, *, #1075, .F. ) ;
#125 = VECTOR ( 'NONE', #950, 1000.000000000000000 ) ;
#126 = DIRECTION ( 'NONE',  ( 0.000000000000000000, 0.000000000000000000, -1.000000000000000000 ) ) ;
#127 = AXIS2_PLACEMENT_3D ( 'NONE', #299, #411, #281 ) ;
#128 = EDGE_CURVE ( 'NONE', #1221, #464, #72, .T. ) ;
#129 = CIRCLE ( 'NONE', #748, 1.149999999999998135 ) ;
#130 = EDGE_CURVE ( 'NONE', #26, #814, #1330, .T. ) ;
#131 = VECTOR ( 'NONE', #883, 1000.000000000000000 ) ;
#132 = LINE ( 'NONE', #441, #1325 ) ;
#133 = ORIENTED_EDGE ( 'NONE', *, *, #25, .T. ) ;
#134 = ORIENTED_EDGE ( 'NONE', *, *, #295, .T. ) ;
#135 = DIRECTION ( 'NONE',  ( 0.000000000000000000, 0.000000000000000000, 1.000000000000000000 ) ) ;
#136 = ORIENTED_EDGE ( 'NONE', *, *, #450, .T. ) ;
#137 = VERTEX_POINT ( 'NONE', #167 ) ;
#138 = DIRECTION ( 'NONE',  ( 1.000000000000000000, 0.000000000000000000, 0.000000000000000000 ) ) ;
#139 = CYLINDRICAL_SURFACE ( 'NONE', #298, 1.999999999999999556 ) ;
#140 = ORIENTED_EDGE ( 'NONE', *, *, #1170, .T. ) ;
#141 = VERTEX_POINT ( 'NONE', #598 ) ;
#142 = EDGE_CURVE ( 'NONE', #1166, #1071, #718, .T. ) ;
#143 = AXIS2_PLACEMENT_3D ( 'NONE', #880, #1279, #470 ) ;
#144 = LINE ( 'NONE', #457, #1232 ) ;
#145 = VECTOR ( 'NONE', #80, 1000.000000000000000 ) ;
#146 = CARTESIAN_POINT ( 'NONE',  ( -2.890344587278975919, 22.59374527427766211, -2.000000000000000000 ) ) ;
#147 = ORIENTED_EDGE ( 'NONE', *, *, #353, .F. ) ;
#148 = CIRCLE ( 'NONE', #912, 1.800000000000002931 ) ;
#149 = ORIENTED_EDGE ( 'NONE', *, *, #1195, .T. ) ;
#150 = DIRECTION ( 'NONE',  ( -0.8135651854280979700, 0.000000000000000000, -0.5814737217272544223 ) ) ;
#151 = ADVANCED_FACE ( 'NONE', ( #489 ), #1013, .T. ) ;
#152 = FACE_OUTER_BOUND ( 'NONE', #1063, .T. ) ;
#153 = ORIENTED_EDGE ( 'NONE', *, *, #1101, .T. ) ;
#154 = ORIENTED_EDGE ( 'NONE', *, *, #247, .T. ) ;
#155 = DIRECTION ( 'NONE',  ( -1.000000000000000000, 0.000000000000000000, 0.000000000000000000 ) ) ;
#156 = CARTESIAN_POINT ( 'NONE',  ( -45.75028585900997768, -12.99993138616776989, 3.911745309139291749 ) ) ;
#157 = EDGE_CURVE ( 'NONE', #1071, #1126, #425, .T. ) ;
#158 = AXIS2_PLACEMENT_3D ( 'NONE', #1265, #618, #751 ) ;
#159 = EDGE_LOOP ( 'NONE', ( #565, #118, #397, #1270 ) ) ;
#160 = DIRECTION ( 'NONE',  ( -0.000000000000000000, 1.000000000000000000, 0.000000000000000000 ) ) ;
#161 = DIRECTION ( 'NONE',  ( 1.000000000000000000, 0.000000000000000000, -0.000000000000000000 ) ) ;
#162 = AXIS2_PLACEMENT_3D ( 'NONE', #352, #367, #138 ) ;
#163 = VECTOR ( 'NONE', #383, 1000.000000000000000 ) ;
#164 = EDGE_CURVE ( 'NONE', #505, #553, #546, .T. ) ;
#165 = VERTEX_POINT ( 'NONE', #1258 ) ;
#166 = CARTESIAN_POINT ( 'NONE',  ( -26.38725206655752586, -15.51993787714232198, 1.911745309139289972 ) ) ;
#167 = CARTESIAN_POINT ( 'NONE',  ( -46.03722585882248808, 19.14266193162950103, -1.000000000000000000 ) ) ;
#168 = LINE ( 'NONE', #1121, #1191 ) ;
#169 = LINE ( 'NONE', #463, #589 ) ;
#170 = CARTESIAN_POINT ( 'NONE',  ( 1.459655412721067025, 18.74374527427763581, 0.000000000000000000 ) ) ;
#171 = ORIENTED_EDGE ( 'NONE', *, *, #128, .T. ) ;
#172 = CARTESIAN_POINT ( 'NONE',  ( 1.459655412721067025, 18.74374527427763581, 0.000000000000000000 ) ) ;
#173 = EDGE_CURVE ( 'NONE', #1201, #195, #121, .T. ) ;
#174 = CARTESIAN_POINT ( 'NONE',  ( -26.33706251844780510, 12.00006861383223011, 1.911745309139289972 ) ) ;
#175 = CARTESIAN_POINT ( 'NONE',  ( -1.335016159205108854, 19.39267481122346837, -1.000000000000000000 ) ) ;
#176 = AXIS2_PLACEMENT_3D ( 'NONE', #992, #1318, #53 ) ;
#177 = DIRECTION ( 'NONE',  ( -0.8135651854280979700, 0.000000000000000000, -0.5814737217272544223 ) ) ;
#178 = ORIENTED_EDGE ( 'NONE', *, *, #1217, .T. ) ;
#179 = DIRECTION ( 'NONE',  ( 0.000000000000000000, 0.000000000000000000, -1.000000000000000000 ) ) ;
#180 = EDGE_LOOP ( 'NONE', ( #189, #1174, #945, #1103 ) ) ;
#181 = EDGE_CURVE ( 'NONE', #1201, #839, #1054, .T. ) ;
#182 = CARTESIAN_POINT ( 'NONE',  ( -1.335016159205108854, -43.23723148550483586, -1.000000000000000000 ) ) ;
#183 = AXIS2_PLACEMENT_3D ( 'NONE', #561, #1294, #1200 ) ;
#184 = FACE_OUTER_BOUND ( 'NONE', #663, .T. ) ;
#185 = DIRECTION ( 'NONE',  ( 0.000000000000000000, 0.000000000000000000, -1.000000000000000000 ) ) ;
#186 = ORIENTED_EDGE ( 'NONE', *, *, #88, .T. ) ;
#187 = CIRCLE ( 'NONE', #376, 2.000000000000000000 ) ;
#188 = DIRECTION ( 'NONE',  ( -0.000000000000000000, -0.000000000000000000, -1.000000000000000000 ) ) ;
#189 = ORIENTED_EDGE ( 'NONE', *, *, #881, .F. ) ;
#190 = AXIS2_PLACEMENT_3D ( 'NONE', #525, #1351, #417 ) ;
#191 = PLANE ( 'NONE',  #626 ) ;
#192 = DIRECTION ( 'NONE',  ( -0.000000000000000000, -1.000000000000000000, -0.000000000000000000 ) ) ;
#193 = EDGE_CURVE ( 'NONE', #507, #1201, #348, .T. ) ;
#194 = CARTESIAN_POINT ( 'NONE',  ( -2.390344587278961708, -45.46841504291472091, -2.000000000000000000 ) ) ;
#195 = VERTEX_POINT ( 'NONE', #1076 ) ;
#196 = LINE ( 'NONE', #1133, #1069 ) ;
#197 = ORIENTED_EDGE ( 'NONE', *, *, #1237, .F. ) ;
#198 = DIRECTION ( 'NONE',  ( -1.000000000000000000, 0.000000000000000000, 0.000000000000000000 ) ) ;
#199 = DIRECTION ( 'NONE',  ( 0.000000000000000000, -1.000000000000000000, 0.000000000000000000 ) ) ;
#200 = CARTESIAN_POINT ( 'NONE',  ( -2.485016159205108099, -43.23723148550483586, -1.000000000000000000 ) ) ;
#201 = AXIS2_PLACEMENT_3D ( 'NONE', #1050, #312, #15 ) ;
#202 = EDGE_CURVE ( 'NONE', #925, #4, #629, .T. ) ;
#203 = DIRECTION ( 'NONE',  ( 0.000000000000000000, 0.000000000000000000, 1.000000000000000000 ) ) ;
#204 = VECTOR ( 'NONE', #160, 1000.000000000000000 ) ;
#205 = ORIENTED_EDGE ( 'NONE', *, *, #582, .T. ) ;
#206 = PRODUCT_RELATED_PRODUCT_CATEGORY ( 'part', '', ( #1224 ) ) ;
#207 = CARTESIAN_POINT ( 'NONE',  ( -2.890344587278975919, 22.59374527427766211, -2.000000000000000000 ) ) ;
#208 = ORIENTED_EDGE ( 'NONE', *, *, #659, .F. ) ;
#209 = DIRECTION ( 'NONE',  ( 0.000000000000000000, 0.000000000000000000, 1.000000000000000000 ) ) ;
#210 = CARTESIAN_POINT ( 'NONE',  ( -2.485016159205108988, 19.39267481122346837, -1.000000000000000000 ) ) ;
#211 = DIRECTION ( 'NONE',  ( 0.000000000000000000, 0.000000000000000000, 1.000000000000000000 ) ) ;
#212 = LINE ( 'NONE', #757, #680 ) ;
#213 = ORIENTED_EDGE ( 'NONE', *, *, #983, .T. ) ;
#214 = DIRECTION ( 'NONE',  ( -0.000000000000000000, 1.000000000000000000, 0.000000000000000000 ) ) ;
#215 = EDGE_LOOP ( 'NONE', ( #502, #186 ) ) ;
#216 = DIRECTION ( 'NONE',  ( 3.469446951953562913E-15, 1.000000000000000000, 0.000000000000000000 ) ) ;
#217 = FACE_BOUND ( 'NONE', #52, .T. ) ;
#218 = DIRECTION ( 'NONE',  ( 1.000000000000000000, 0.000000000000000000, 0.000000000000000000 ) ) ;
#219 = ORIENTED_EDGE ( 'NONE', *, *, #1335, .F. ) ;
#220 = ORIENTED_EDGE ( 'NONE', *, *, #415, .F. ) ;
#221 = CARTESIAN_POINT ( 'NONE',  ( -44.88722585882248950, 19.14266193162950103, -1.000000000000000000 ) ) ;
#222 = EDGE_CURVE ( 'NONE', #676, #579, #460, .T. ) ;
#223 = DIRECTION ( 'NONE',  ( 0.000000000000000000, 0.000000000000000000, 1.000000000000000000 ) ) ;
#224 = CIRCLE ( 'NONE', #68, 1.999999999999999556 ) ;
#225 = DIRECTION ( 'NONE',  ( -0.000000000000000000, -1.000000000000000000, -0.000000000000000000 ) ) ;
#226 = ORIENTED_EDGE ( 'NONE', *, *, #865, .T. ) ;
#227 = PRESENTATION_LAYER_ASSIGNMENT (  '', '', ( #818 ) ) ;
#228 = ORIENTED_EDGE ( 'NONE', *, *, #1144, .F. ) ;
#229 = AXIS2_PLACEMENT_3D ( 'NONE', #101, #284, #427 ) ;
#230 = CARTESIAN_POINT ( 'NONE',  ( -44.22735356466328938, -45.46841504291472802, -2.000000000000000000 ) ) ;
#231 = EDGE_CURVE ( 'NONE', #731, #4, #633, .T. ) ;
#232 = DIRECTION ( 'NONE',  ( -0.000000000000000000, -1.000000000000000000, -0.000000000000000000 ) ) ;
#233 = AXIS2_PLACEMENT_3D ( 'NONE', #719, #1124, #177 ) ;
#234 = CARTESIAN_POINT ( 'NONE',  ( -47.75028585900997768, -12.99993138616776989, 1.911745309139292193 ) ) ;
#235 = EDGE_LOOP ( 'NONE', ( #358, #226, #1138, #1078 ) ) ;
#236 = EDGE_LOOP ( 'NONE', ( #149, #720 ) ) ;
#237 = CARTESIAN_POINT ( 'NONE',  ( -43.75223403046771153, -12.99993138616776989, -0.08825469086070961144 ) ) ;
#238 = CARTESIAN_POINT ( 'NONE',  ( -44.88722585882248950, 19.14266193162950103, -1.000000000000000000 ) ) ;
#239 = AXIS2_PLACEMENT_3D ( 'NONE', #940, #199, #625 ) ;
#240 = ADVANCED_FACE ( 'NONE', ( #557 ), #942, .T. ) ;
#241 = DIRECTION ( 'NONE',  ( 1.000000000000000000, 0.000000000000000000, 0.000000000000000000 ) ) ;
#242 = EDGE_LOOP ( 'NONE', ( #292, #318, #778, #1312 ) ) ;
#243 = ORIENTED_EDGE ( 'NONE', *, *, #692, .F. ) ;
#244 = PLANE ( 'NONE',  #654 ) ;
#245 = DIRECTION ( 'NONE',  ( 0.000000000000000000, 1.000000000000000000, -0.000000000000000000 ) ) ;
#246 = ORIENTED_EDGE ( 'NONE', *, *, #334, .T. ) ;
#247 = EDGE_CURVE ( 'NONE', #392, #1356, #497, .T. ) ;
#248 = ORIENTED_EDGE ( 'NONE', *, *, #796, .F. ) ;
#249 = AXIS2_PLACEMENT_3D ( 'NONE', #1286, #1199, #866 ) ;
#250 = DIRECTION ( 'NONE',  ( 0.000000000000000000, 0.000000000000000000, -1.000000000000000000 ) ) ;
#251 = VECTOR ( 'NONE', #595, 1000.000000000000000 ) ;
#252 = CARTESIAN_POINT ( 'NONE',  ( -43.08722585882248524, -43.23723148550483586, 0.000000000000000000 ) ) ;
#253 = AXIS2_PLACEMENT_3D ( 'NONE', #882, #693, #1106 ) ;
#254 = DIRECTION ( 'NONE',  ( 1.000000000000000000, 0.000000000000000000, 0.000000000000000000 ) ) ;
#255 = EDGE_LOOP ( 'NONE', ( #884, #736 ) ) ;
#256 = DIRECTION ( 'NONE',  ( 3.469446951953562913E-15, 1.000000000000000000, -0.000000000000000000 ) ) ;
#257 = CARTESIAN_POINT ( 'NONE',  ( -43.73722585882249092, 19.14266193162950103, -2.000000000000000000 ) ) ;
#258 = CARTESIAN_POINT ( 'NONE',  ( -43.08722585882248524, 19.14266193162950103, -1.000000000000000000 ) ) ;
#259 = VERTEX_POINT ( 'NONE', #17 ) ;
#260 = DIRECTION ( 'NONE',  ( -0.000000000000000000, -0.000000000000000000, 1.000000000000000000 ) ) ;
#261 = EDGE_CURVE ( 'NONE', #141, #469, #387, .T. ) ;
#262 = DIRECTION ( 'NONE',  ( 0.000000000000000000, 0.000000000000000000, 1.000000000000000000 ) ) ;
#263 = ORIENTED_EDGE ( 'NONE', *, *, #712, .F. ) ;
#264 = CARTESIAN_POINT ( 'NONE',  ( -43.73722585882249092, 19.14266193162950103, -1.000000000000000000 ) ) ;
#265 = AXIS2_PLACEMENT_3D ( 'NONE', #886, #555, #33 ) ;
#266 = DIRECTION ( 'NONE',  ( 0.000000000000000000, 0.000000000000000000, 1.000000000000000000 ) ) ;
#267 = CIRCLE ( 'NONE', #1234, 1.800000000000002931 ) ;
#268 = CIRCLE ( 'NONE', #176, 1.800000000000002931 ) ;
#269 = ORIENTED_EDGE ( 'NONE', *, *, #334, .F. ) ;
#270 = VECTOR ( 'NONE', #225, 1000.000000000000000 ) ;
#271 = DIRECTION ( 'NONE',  ( -1.000000000000000000, 0.000000000000000000, 0.000000000000000000 ) ) ;
#272 = LINE ( 'NONE', #1011, #1066 ) ;
#273 = VECTOR ( 'NONE', #989, 1000.000000000000000 ) ;
#274 = EDGE_CURVE ( 'NONE', #1226, #570, #132, .T. ) ;
#275 = LINE ( 'NONE', #504, #75 ) ;
#276 = EDGE_LOOP ( 'NONE', ( #449, #689, #412, #754 ) ) ;
#277 = CARTESIAN_POINT ( 'NONE',  ( -1.335016159205108854, 19.39267481122346837, -2.000000000000000000 ) ) ;
#278 = ORIENTED_EDGE ( 'NONE', *, *, #274, .T. ) ;
#279 = DIRECTION ( 'NONE',  ( 0.000000000000000000, 0.000000000000000000, 1.000000000000000000 ) ) ;
#280 = CARTESIAN_POINT ( 'NONE',  ( -44.88722585882248950, 19.14266193162950103, -1.000000000000000000 ) ) ;
#281 = DIRECTION ( 'NONE',  ( -1.000000000000000000, 0.000000000000000000, 0.000000000000000000 ) ) ;
#282 = ORIENTED_EDGE ( 'NONE', *, *, #1114, .T. ) ;
#283 = EDGE_CURVE ( 'NONE', #891, #1207, #129, .T. ) ;
#284 = DIRECTION ( 'NONE',  ( 0.000000000000000000, 0.000000000000000000, 1.000000000000000000 ) ) ;
#285 = ORIENTED_EDGE ( 'NONE', *, *, #782, .F. ) ;
#286 = EDGE_CURVE ( 'NONE', #1310, #1228, #148, .T. ) ;
#287 = PLANE ( 'NONE',  #402 ) ;
#288 = AXIS2_PLACEMENT_3D ( 'NONE', #237, #566, #250 ) ;
#289 = CARTESIAN_POINT ( 'NONE',  ( -26.38725206655752586, 12.00006861383223011, 0.4464277560554757440 ) ) ;
#290 = VERTEX_POINT ( 'NONE', #109 ) ;
#291 = CARTESIAN_POINT ( 'NONE',  ( -26.33706251844780510, 12.00006861383223011, 3.911745309139291749 ) ) ;
#292 = ORIENTED_EDGE ( 'NONE', *, *, #479, .F. ) ;
#293 = VECTOR ( 'NONE', #764, 1000.000000000000000 ) ;
#294 = CARTESIAN_POINT ( 'NONE',  ( -26.38725206655752586, -15.51993787714232198, 1.911745309139289972 ) ) ;
#295 = EDGE_CURVE ( 'NONE', #857, #991, #331, .T. ) ;
#296 = DIRECTION ( 'NONE',  ( -0.9999898277492168530, 0.004510476481664449887, 0.000000000000000000 ) ) ;
#297 = CARTESIAN_POINT ( 'NONE',  ( -45.16547317164523889, -12.99993138616776989, 1.326932621774551402 ) ) ;
#298 = AXIS2_PLACEMENT_3D ( 'NONE', #708, #1020, #356 ) ;
#299 = CARTESIAN_POINT ( 'NONE',  ( -1.335016159205108854, 19.39267481122346837, -1.000000000000000000 ) ) ;
#300 = ORIENTED_EDGE ( 'NONE', *, *, #181, .F. ) ;
#301 = ADVANCED_BREP_SHAPE_REPRESENTATION ( '0808 V2\X2\5e9558f3\X0\', ( #1027, #253 ), #605 ) ;
#302 = DIRECTION ( 'NONE',  ( 0.000000000000000000, 0.000000000000000000, 1.000000000000000000 ) ) ;
#303 = VERTEX_POINT ( 'NONE', #1153 ) ;
#304 = CARTESIAN_POINT ( 'NONE',  ( -0.1850161592051086101, 19.39267481122346837, -2.000000000000000000 ) ) ;
#305 = FACE_OUTER_BOUND ( 'NONE', #90, .T. ) ;
#306 = EDGE_CURVE ( 'NONE', #755, #1219, #212, .T. ) ;
#307 = DIRECTION ( 'NONE',  ( 0.000000000000000000, 0.000000000000000000, 1.000000000000000000 ) ) ;
#308 = DIRECTION ( 'NONE',  ( -0.000000000000000000, -0.000000000000000000, 1.000000000000000000 ) ) ;
#309 = EDGE_LOOP ( 'NONE', ( #935, #153, #521, #1116 ) ) ;
#310 = DIRECTION ( 'NONE',  ( -0.7071067811865474617, 0.000000000000000000, 0.7071067811865474617 ) ) ;
#311 = EDGE_LOOP ( 'NONE', ( #630, #442 ) ) ;
#312 = DIRECTION ( 'NONE',  ( 0.000000000000000000, 0.000000000000000000, -1.000000000000000000 ) ) ;
#313 = DIRECTION ( 'NONE',  ( 0.000000000000000000, 0.000000000000000000, 1.000000000000000000 ) ) ;
#314 = DIRECTION ( 'NONE',  ( -0.000000000000000000, -0.000000000000000000, -1.000000000000000000 ) ) ;
#315 = CIRCLE ( 'NONE', #1087, 2.000000000000000000 ) ;
#316 = CARTESIAN_POINT ( 'NONE',  ( -45.75028585900997768, -12.99993138616776989, 1.911745309139292193 ) ) ;
#317 = AXIS2_PLACEMENT_3D ( 'NONE', #1178, #1197, #1065 ) ;
#318 = ORIENTED_EDGE ( 'NONE', *, *, #128, .F. ) ;
#319 = CARTESIAN_POINT ( 'NONE',  ( -24.33706251844780155, 12.00006861383223011, 1.911745309139289972 ) ) ;
#320 = ORIENTED_EDGE ( 'NONE', *, *, #686, .F. ) ;
#321 = CARTESIAN_POINT ( 'NONE',  ( -44.88722585882248950, -43.23723148550483586, 0.000000000000000000 ) ) ;
#322 = CARTESIAN_POINT ( 'NONE',  ( -43.08722585882248524, 19.14266193162950103, -1.000000000000000000 ) ) ;
#323 = AXIS2_PLACEMENT_3D ( 'NONE', #593, #1007, #66 ) ;
#324 = FACE_OUTER_BOUND ( 'NONE', #484, .T. ) ;
#325 = CARTESIAN_POINT ( 'NONE',  ( -47.75028585900997768, -12.99993138616776989, 0.000000000000000000 ) ) ;
#326 = ORIENTED_EDGE ( 'NONE', *, *, #431, .T. ) ;
#327 = EDGE_CURVE ( 'NONE', #998, #507, #1062, .T. ) ;
#328 = CIRCLE ( 'NONE', #1272, 3.849999999999999201 ) ;
#329 = EDGE_LOOP ( 'NONE', ( #435, #610 ) ) ;
#330 = DIRECTION ( 'NONE',  ( 1.000000000000000000, 0.000000000000000000, 0.000000000000000000 ) ) ;
#331 = LINE ( 'NONE', #965, #895 ) ;
#332 = ORIENTED_EDGE ( 'NONE', *, *, #957, .F. ) ;
#333 = EDGE_LOOP ( 'NONE', ( #640, #399, #855, #622, #512, #357, #76, #722 ) ) ;
#334 = EDGE_CURVE ( 'NONE', #694, #195, #1173, .T. ) ;
#335 = AXIS2_PLACEMENT_3D ( 'NONE', #812, #192, #114 ) ;
#336 = DIRECTION ( 'NONE',  ( -1.000000000000000000, 0.000000000000000000, 0.000000000000000000 ) ) ;
#337 = EDGE_CURVE ( 'NONE', #980, #634, #1003, .T. ) ;
#338 = CARTESIAN_POINT ( 'NONE',  ( 1.459655412721065471, -41.61841504291471949, 0.000000000000000000 ) ) ;
#339 = CARTESIAN_POINT ( 'NONE',  ( -44.88722585882248950, -43.23723148550483586, 0.000000000000000000 ) ) ;
#340 = VERTEX_POINT ( 'NONE', #569 ) ;
#341 = VECTOR ( 'NONE', #1179, 1000.000000000000000 ) ;
#342 = VERTEX_POINT ( 'NONE', #78 ) ;
#343 = VECTOR ( 'NONE', #1017, 1000.000000000000000 ) ;
#344 = CARTESIAN_POINT ( 'NONE',  ( -26.38725206655752586, -12.99993138616776989, 1.911745309139289972 ) ) ;
#345 = ADVANCED_FACE ( 'NONE', ( #1096, #807 ), #1123, .T. ) ;
#346 = CYLINDRICAL_SURFACE ( 'NONE', #249, 1.800000000000002931 ) ;
#347 = AXIS2_PLACEMENT_3D ( 'NONE', #607, #185, #1118 ) ;
#348 = LINE ( 'NONE', #639, #960 ) ;
#349 = ORIENTED_EDGE ( 'NONE', *, *, #588, .F. ) ;
#350 = EDGE_LOOP ( 'NONE', ( #1213, #382, #662, #102 ) ) ;
#351 = DIRECTION ( 'NONE',  ( 1.000000000000000000, 0.000000000000000000, 0.000000000000000000 ) ) ;
#352 = CARTESIAN_POINT ( 'NONE',  ( -2.390344587278932842, -41.61841504291471949, -2.000000000000000000 ) ) ;
#353 = EDGE_CURVE ( 'NONE', #549, #1166, #604, .T. ) ;
#354 = CARTESIAN_POINT ( 'NONE',  ( -47.75028585900997768, -12.99993138616776989, 0.000000000000000000 ) ) ;
#355 = ADVANCED_FACE ( 'NONE', ( #916 ), #1328, .T. ) ;
#356 = DIRECTION ( 'NONE',  ( 0.000000000000000000, 0.000000000000000000, 1.000000000000000000 ) ) ;
#357 = ORIENTED_EDGE ( 'NONE', *, *, #1299, .T. ) ;
#358 = ORIENTED_EDGE ( 'NONE', *, *, #1210, .T. ) ;
#359 = LINE ( 'NONE', #678, #204 ) ;
#360 = CARTESIAN_POINT ( 'NONE',  ( -1.335016159205108854, -43.23723148550483586, -1.000000000000000000 ) ) ;
#361 = AXIS2_PLACEMENT_3D ( 'NONE', #575, #993, #1080 ) ;
#362 = ORIENTED_EDGE ( 'NONE', *, *, #25, .F. ) ;
#363 = ORIENTED_EDGE ( 'NONE', *, *, #63, .T. ) ;
#364 = CIRCLE ( 'NONE', #265, 2.000000000000000000 ) ;
#365 =( NAMED_UNIT ( * ) PLANE_ANGLE_UNIT ( ) SI_UNIT ( $, .RADIAN. ) );
#366 = AXIS2_PLACEMENT_3D ( 'NONE', #1215, #74, #999 ) ;
#367 = DIRECTION ( 'NONE',  ( 0.000000000000000000, 0.000000000000000000, 1.000000000000000000 ) ) ;
#368 = PRODUCT_DEFINITION_FORMATION_WITH_SPECIFIED_SOURCE ( 'ä»', '', #1224, .NOT_KNOWN. ) ;
#369 = SHAPE_DEFINITION_REPRESENTATION ( #592, #301 ) ;
#370 = AXIS2_PLACEMENT_3D ( 'NONE', #543, #211, #1061 ) ;
#371 = LINE ( 'NONE', #682, #273 ) ;
#372 = AXIS2_PLACEMENT_3D ( 'NONE', #906, #396, #1288 ) ;
#373 = ORIENTED_EDGE ( 'NONE', *, *, #164, .F. ) ;
#374 = ADVANCED_FACE ( 'NONE', ( #672 ), #46, .F. ) ;
#375 = CARTESIAN_POINT ( 'NONE',  ( -47.75028585900997768, 12.00006861383223011, 0.000000000000000000 ) ) ;
#376 = AXIS2_PLACEMENT_3D ( 'NONE', #1033, #104, #409 ) ;
#377 = ORIENTED_EDGE ( 'NONE', *, *, #222, .F. ) ;
#378 = EDGE_LOOP ( 'NONE', ( #300, #499, #656, #490 ) ) ;
#379 = AXIS2_PLACEMENT_3D ( 'NONE', #94, #1068, #752 ) ;
#380 = LINE ( 'NONE', #795, #587 ) ;
#381 = EDGE_LOOP ( 'NONE', ( #885, #134, #898, #966 ) ) ;
#382 = ORIENTED_EDGE ( 'NONE', *, *, #1120, .F. ) ;
#383 = DIRECTION ( 'NONE',  ( 1.301042606982712606E-15, 1.000000000000000000, -0.000000000000000000 ) ) ;
#384 = VECTOR ( 'NONE', #232, 1000.000000000000000 ) ;
#385 = AXIS2_PLACEMENT_3D ( 'NONE', #56, #648, #37 ) ;
#386 = ADVANCED_FACE ( 'NONE', ( #38 ), #688, .T. ) ;
#387 = CIRCLE ( 'NONE', #568, 2.000000000000000000 ) ;
#388 = CARTESIAN_POINT ( 'NONE',  ( -43.08722585882248524, -43.23723148550483586, -1.000000000000000000 ) ) ;
#389 = VECTOR ( 'NONE', #1352, 1000.000000000000000 ) ;
#390 = CIRCLE ( 'NONE', #1327, 1.799999999999999822 ) ;
#391 = DIRECTION ( 'NONE',  ( 0.000000000000000000, 0.000000000000000000, 1.000000000000000000 ) ) ;
#392 = VERTEX_POINT ( 'NONE', #258 ) ;
#393 = CIRCLE ( 'NONE', #660, 1.800000000000002931 ) ;
#394 = DIRECTION ( 'NONE',  ( 0.000000000000000000, 0.000000000000000000, 1.000000000000000000 ) ) ;
#395 = EDGE_CURVE ( 'NONE', #1162, #878, #390, .T. ) ;
#396 = DIRECTION ( 'NONE',  ( 0.000000000000000000, 0.000000000000000000, 1.000000000000000000 ) ) ;
#397 = ORIENTED_EDGE ( 'NONE', *, *, #443, .T. ) ;
#398 = CARTESIAN_POINT ( 'NONE',  ( -48.07735355008384914, -41.61875009804676040, -2.000000000000000000 ) ) ;
#399 = ORIENTED_EDGE ( 'NONE', *, *, #836, .T. ) ;
#400 = FACE_OUTER_BOUND ( 'NONE', #62, .T. ) ;
#401 = FACE_BOUND ( 'NONE', #1182, .T. ) ;
#402 = AXIS2_PLACEMENT_3D ( 'NONE', #716, #611, #1026 ) ;
#403 = FACE_OUTER_BOUND ( 'NONE', #159, .T. ) ;
#404 = ORIENTED_EDGE ( 'NONE', *, *, #1299, .F. ) ;
#405 = ADVANCED_FACE ( 'NONE', ( #1102 ), #986, .T. ) ;
#406 = LINE ( 'NONE', #816, #547 ) ;
#407 = ORIENTED_EDGE ( 'NONE', *, *, #327, .T. ) ;
#408 = LINE ( 'NONE', #1238, #954 ) ;
#409 = DIRECTION ( 'NONE',  ( 0.000000000000000000, 0.000000000000000000, -1.000000000000000000 ) ) ;
#410 = AXIS2_PLACEMENT_3D ( 'NONE', #786, #975, #774 ) ;
#411 = DIRECTION ( 'NONE',  ( -0.000000000000000000, -0.000000000000000000, -1.000000000000000000 ) ) ;
#412 = ORIENTED_EDGE ( 'NONE', *, *, #659, .T. ) ;
#413 = FACE_OUTER_BOUND ( 'NONE', #333, .T. ) ;
#414 = ORIENTED_EDGE ( 'NONE', *, *, #856, .T. ) ;
#415 = EDGE_CURVE ( 'NONE', #549, #570, #169, .T. ) ;
#416 = CARTESIAN_POINT ( 'NONE',  ( 1.459655412721067025, 18.74374527427763581, -2.000000000000000000 ) ) ;
#417 = DIRECTION ( 'NONE',  ( 1.000000000000000000, 0.000000000000000000, 0.000000000000000000 ) ) ;
#418 = DIRECTION ( 'NONE',  ( -1.000000000000000000, 0.000000000000000000, 0.000000000000000000 ) ) ;
#419 = DIRECTION ( 'NONE',  ( -0.000000000000000000, -0.000000000000000000, 1.000000000000000000 ) ) ;
#420 = ORIENTED_EDGE ( 'NONE', *, *, #983, .F. ) ;
#421 = CARTESIAN_POINT ( 'NONE',  ( -47.83256164536424393, 18.74374527427764647, -2.000000000000000000 ) ) ;
#422 = ORIENTED_EDGE ( 'NONE', *, *, #1093, .F. ) ;
#423 = PLANE ( 'NONE',  #1344 ) ;
#424 = CARTESIAN_POINT ( 'NONE',  ( -47.83256164536424393, 12.65254820714462625, -2.000000000000000000 ) ) ;
#425 = LINE ( 'NONE', #23, #1196 ) ;
#426 = VERTEX_POINT ( 'NONE', #1223 ) ;
#427 = DIRECTION ( 'NONE',  ( 1.000000000000000000, 0.000000000000000000, 0.000000000000000000 ) ) ;
#428 = ORIENTED_EDGE ( 'NONE', *, *, #881, .T. ) ;
#429 = CARTESIAN_POINT ( 'NONE',  ( -43.73722585882249092, -43.23723148550483586, -1.000000000000000000 ) ) ;
#430 = CARTESIAN_POINT ( 'NONE',  ( -44.88722585882248950, -43.23723148550483586, -1.000000000000000000 ) ) ;
#431 = EDGE_CURVE ( 'NONE', #137, #1337, #876, .T. ) ;
#432 = AXIS2_PLACEMENT_3D ( 'NONE', #859, #1086, #1100 ) ;
#433 = DIRECTION ( 'NONE',  ( 0.000000000000000000, -1.000000000000000000, 0.000000000000000000 ) ) ;
#434 = CIRCLE ( 'NONE', #931, 1.149999999999999911 ) ;
#435 = ORIENTED_EDGE ( 'NONE', *, *, #817, .T. ) ;
#436 = LINE ( 'NONE', #920, #765 ) ;
#437 = ORIENTED_EDGE ( 'NONE', *, *, #551, .T. ) ;
#438 = CARTESIAN_POINT ( 'NONE',  ( -46.68722585882249376, 19.14266193162950103, -1.000000000000000000 ) ) ;
#439 = FACE_OUTER_BOUND ( 'NONE', #276, .T. ) ;
#440 = ADVANCED_FACE ( 'NONE', ( #152 ), #139, .T. ) ;
#441 = CARTESIAN_POINT ( 'NONE',  ( -47.83256164536424393, 18.74374527427764647, 0.000000000000000000 ) ) ;
#442 = ORIENTED_EDGE ( 'NONE', *, *, #337, .F. ) ;
#443 = EDGE_CURVE ( 'NONE', #1281, #1004, #328, .T. ) ;
#444 = ORIENTED_EDGE ( 'NONE', *, *, #1105, .T. ) ;
#445 = DIRECTION ( 'NONE',  ( 0.000000000000000000, 0.000000000000000000, 1.000000000000000000 ) ) ;
#446 = DIRECTION ( 'NONE',  ( 0.000000000000000000, 0.000000000000000000, 1.000000000000000000 ) ) ;
#447 = DIRECTION ( 'NONE',  ( 0.000000000000000000, 0.000000000000000000, -1.000000000000000000 ) ) ;
#448 = ORIENTED_EDGE ( 'NONE', *, *, #1210, .F. ) ;
#449 = ORIENTED_EDGE ( 'NONE', *, *, #1203, .F. ) ;
#450 = EDGE_CURVE ( 'NONE', #1126, #464, #1081, .T. ) ;
#451 = CARTESIAN_POINT ( 'NONE',  ( -2.485016159205108988, 19.39267481122346837, -2.000000000000000000 ) ) ;
#452 = CARTESIAN_POINT ( 'NONE',  ( -1.335016159205108854, -43.23723148550483586, -2.000000000000000000 ) ) ;
#453 = ORIENTED_EDGE ( 'NONE', *, *, #761, .F. ) ;
#454 = CIRCLE ( 'NONE', #713, 3.849999999999999201 ) ;
#455 = CIRCLE ( 'NONE', #1212, 1.149999999999999911 ) ;
#456 = ORIENTED_EDGE ( 'NONE', *, *, #142, .T. ) ;
#457 = CARTESIAN_POINT ( 'NONE',  ( 1.459655412721065471, -41.61841504291471949, -2.000000000000000000 ) ) ;
#458 = ADVANCED_FACE ( 'NONE', ( #577 ), #1300, .F. ) ;
#459 = EDGE_CURVE ( 'NONE', #839, #694, #371, .T. ) ;
#460 = CIRCLE ( 'NONE', #1130, 1.149999999999998135 ) ;
#461 = VECTOR ( 'NONE', #135, 1000.000000000000000 ) ;
#462 = AXIS2_PLACEMENT_3D ( 'NONE', #527, #314, #933 ) ;
#463 = CARTESIAN_POINT ( 'NONE',  ( -47.83256164536424393, 12.65254820714462625, -2.000000000000000000 ) ) ;
#464 = VERTEX_POINT ( 'NONE', #51 ) ;
#465 = VERTEX_POINT ( 'NONE', #888 ) ;
#466 = CARTESIAN_POINT ( 'NONE',  ( -2.390344587278961708, -45.46841504291472091, -2.000000000000000000 ) ) ;
#467 = PLANE ( 'NONE',  #889 ) ;
#468 = CARTESIAN_POINT ( 'NONE',  ( -2.390344587278961708, -45.46841504291472091, 0.000000000000000000 ) ) ;
#469 = VERTEX_POINT ( 'NONE', #923 ) ;
#470 = DIRECTION ( 'NONE',  ( -1.000000000000000000, 0.000000000000000000, 0.000000000000000000 ) ) ;
#471 = ADVANCED_FACE ( 'NONE', ( #1255 ), #828, .F. ) ;
#472 = DIRECTION ( 'NONE',  ( -1.000000000000000000, 0.000000000000000000, 0.000000000000000000 ) ) ;
#473 = ORIENTED_EDGE ( 'NONE', *, *, #99, .F. ) ;
#474 = ORIENTED_EDGE ( 'NONE', *, *, #686, .T. ) ;
#475 = AXIS2_PLACEMENT_3D ( 'NONE', #1297, #126, #336 ) ;
#476 = FACE_OUTER_BOUND ( 'NONE', #309, .T. ) ;
#477 = VECTOR ( 'NONE', #1244, 1000.000000000000000 ) ;
#478 = CARTESIAN_POINT ( 'NONE',  ( -43.73722585882249092, -43.23723148550483586, -1.000000000000000000 ) ) ;
#479 = EDGE_CURVE ( 'NONE', #464, #766, #21, .T. ) ;
#480 = ORIENTED_EDGE ( 'NONE', *, *, #734, .F. ) ;
#481 = DIRECTION ( 'NONE',  ( -0.000000000000000000, -0.000000000000000000, 1.000000000000000000 ) ) ;
#482 = VECTOR ( 'NONE', #627, 1000.000000000000000 ) ;
#483 = EDGE_LOOP ( 'NONE', ( #1253, #949 ) ) ;
#484 = EDGE_LOOP ( 'NONE', ( #122, #1057, #554, #208 ) ) ;
#485 = DIRECTION ( 'NONE',  ( 1.000000000000000000, 0.000000000000000000, 0.000000000000000000 ) ) ;
#486 = EDGE_CURVE ( 'NONE', #998, #608, #187, .T. ) ;
#487 = UNCERTAINTY_MEASURE_WITH_UNIT (LENGTH_MEASURE( 1.000000000000000082E-05 ), #1095, 'distance_accuracy_value', 'NONE');
#488 = APPLICATION_CONTEXT ( 'automotive_design' ) ;
#489 = FACE_OUTER_BOUND ( 'NONE', #242, .T. ) ;
#490 = ORIENTED_EDGE ( 'NONE', *, *, #1346, .F. ) ;
#491 = CARTESIAN_POINT ( 'NONE',  ( -43.08722585882248524, -43.23723148550483586, -1.000000000000000000 ) ) ;
#492 = AXIS2_PLACEMENT_3D ( 'NONE', #851, #1134, #119 ) ;
#493 = EDGE_CURVE ( 'NONE', #392, #1228, #725, .T. ) ;
#494 = AXIS2_PLACEMENT_3D ( 'NONE', #166, #271, #391 ) ;
#495 = CARTESIAN_POINT ( 'NONE',  ( -47.83256164536424393, 12.65254820714462625, -2.000000000000000000 ) ) ;
#496 = ADVANCED_FACE ( 'NONE', ( #184 ), #740, .T. ) ;
#497 = CIRCLE ( 'NONE', #801, 1.800000000000002931 ) ;
#498 = DIRECTION ( 'NONE',  ( 0.000000000000000000, 0.000000000000000000, 1.000000000000000000 ) ) ;
#499 = ORIENTED_EDGE ( 'NONE', *, *, #193, .F. ) ;
#500 = AXIS2_PLACEMENT_3D ( 'NONE', #787, #1088, #770 ) ;
#501 = LINE ( 'NONE', #1104, #163 ) ;
#502 = ORIENTED_EDGE ( 'NONE', *, *, #815, .T. ) ;
#503 = DIRECTION ( 'NONE',  ( 0.000000000000000000, 0.000000000000000000, 1.000000000000000000 ) ) ;
#504 = CARTESIAN_POINT ( 'NONE',  ( -2.485016159205108988, 19.39267481122346837, -1.000000000000000000 ) ) ;
#505 = VERTEX_POINT ( 'NONE', #1142 ) ;
#506 = CARTESIAN_POINT ( 'NONE',  ( -44.88722585882248950, 19.14266193162950103, 0.000000000000000000 ) ) ;
#507 = VERTEX_POINT ( 'NONE', #947 ) ;
#508 = DIRECTION ( 'NONE',  ( 1.000000000000000000, -3.469446951953562913E-15, 0.000000000000000000 ) ) ;
#509 = LINE ( 'NONE', #8, #389 ) ;
#510 = EDGE_CURVE ( 'NONE', #469, #694, #701, .T. ) ;
#511 = CARTESIAN_POINT ( 'NONE',  ( -45.75028585900997768, 12.00006861383223011, 1.911745309139292193 ) ) ;
#512 = ORIENTED_EDGE ( 'NONE', *, *, #791, .F. ) ;
#513 = CARTESIAN_POINT ( 'NONE',  ( -47.97191496096312591, -12.99993138616776989, 3.911745309139291749 ) ) ;
#514 = ORIENTED_EDGE ( 'NONE', *, *, #1075, .T. ) ;
#515 = DIRECTION ( 'NONE',  ( -0.000000000000000000, -0.000000000000000000, 1.000000000000000000 ) ) ;
#516 = CYLINDRICAL_SURFACE ( 'NONE', #190, 1.800000000000002931 ) ;
#517 = CYLINDRICAL_SURFACE ( 'NONE', #462, 1.149999999999999911 ) ;
#518 = CIRCLE ( 'NONE', #201, 1.149999999999999911 ) ;
#519 = CIRCLE ( 'NONE', #1287, 1.149999999999999911 ) ;
#520 = LINE ( 'NONE', #735, #1113 ) ;
#521 = ORIENTED_EDGE ( 'NONE', *, *, #699, .T. ) ;
#522 = CARTESIAN_POINT ( 'NONE',  ( -44.88722585882248950, 19.14266193162950103, -1.000000000000000000 ) ) ;
#523 = EDGE_LOOP ( 'NONE', ( #877, #377 ) ) ;
#524 = FACE_BOUND ( 'NONE', #73, .T. ) ;
#525 = CARTESIAN_POINT ( 'NONE',  ( -44.88722585882248950, -43.23723148550483586, -1.000000000000000000 ) ) ;
#526 = AXIS2_PLACEMENT_3D ( 'NONE', #1135, #1151, #93 ) ;
#527 = CARTESIAN_POINT ( 'NONE',  ( -1.335016159205108854, 19.39267481122346837, -1.000000000000000000 ) ) ;
#528 = DIRECTION ( 'NONE',  ( 0.000000000000000000, 1.000000000000000000, 0.000000000000000000 ) ) ;
#529 = ORIENTED_EDGE ( 'NONE', *, *, #643, .F. ) ;
#530 = CARTESIAN_POINT ( 'NONE',  ( -47.83256164536424393, 18.74374527427764647, 0.000000000000000000 ) ) ;
#531 = VERTEX_POINT ( 'NONE', #210 ) ;
#532 = CARTESIAN_POINT ( 'NONE',  ( -46.68722585882249376, -43.23723148550483586, -1.000000000000000000 ) ) ;
#533 = ADVANCED_FACE ( 'NONE', ( #835 ), #516, .F. ) ;
#534 = CARTESIAN_POINT ( 'NONE',  ( -43.98256164536420698, 22.59374527427766211, 0.000000000000000000 ) ) ;
#535 = CARTESIAN_POINT ( 'NONE',  ( -45.75028585900997768, 12.00006861383223011, 1.911745309139292193 ) ) ;
#536 = DIRECTION ( 'NONE',  ( 0.000000000000000000, 0.000000000000000000, 1.000000000000000000 ) ) ;
#537 = ORIENTED_EDGE ( 'NONE', *, *, #1338, .T. ) ;
#538 = DIRECTION ( 'NONE',  ( 0.000000000000000000, 0.000000000000000000, 1.000000000000000000 ) ) ;
#539 = ORIENTED_EDGE ( 'NONE', *, *, #791, .T. ) ;
#540 = DIRECTION ( 'NONE',  ( -0.000000000000000000, -0.000000000000000000, -1.000000000000000000 ) ) ;
#541 = DIRECTION ( 'NONE',  ( 1.000000000000000000, 0.000000000000000000, 0.000000000000000000 ) ) ;
#542 = ADVANCED_FACE ( 'NONE', ( #305 ), #932, .T. ) ;
#543 = CARTESIAN_POINT ( 'NONE',  ( -1.335016159205108854, 19.39267481122346837, 0.000000000000000000 ) ) ;
#544 = EDGE_CURVE ( 'NONE', #1022, #1259, #636, .T. ) ;
#545 = AXIS2_PLACEMENT_3D ( 'NONE', #1247, #732, #330 ) ;
#546 = LINE ( 'NONE', #1274, #1290 ) ;
#547 = VECTOR ( 'NONE', #188, 1000.000000000000000 ) ;
#548 = EDGE_LOOP ( 'NONE', ( #897, #584, #363, #849 ) ) ;
#549 = VERTEX_POINT ( 'NONE', #1051 ) ;
#550 = DIRECTION ( 'NONE',  ( -1.000000000000000000, 0.000000000000000000, 0.000000000000000000 ) ) ;
#551 = EDGE_CURVE ( 'NONE', #1177, #507, #576, .T. ) ;
#552 = DIRECTION ( 'NONE',  ( -0.000000000000000000, -0.000000000000000000, 1.000000000000000000 ) ) ;
#553 = VERTEX_POINT ( 'NONE', #534 ) ;
#554 = ORIENTED_EDGE ( 'NONE', *, *, #337, .T. ) ;
#555 = DIRECTION ( 'NONE',  ( 0.000000000000000000, -1.000000000000000000, 0.000000000000000000 ) ) ;
#556 = CARTESIAN_POINT ( 'NONE',  ( -47.97191496096312591, 12.00006861383223011, 1.911745309139289972 ) ) ;
#557 = FACE_OUTER_BOUND ( 'NONE', #848, .T. ) ;
#558 = VERTEX_POINT ( 'NONE', #1060 ) ;
#559 = ADVANCED_FACE ( 'NONE', ( #1240 ), #6, .F. ) ;
#560 = EDGE_LOOP ( 'NONE', ( #862, #1111, #414, #571 ) ) ;
#561 = CARTESIAN_POINT ( 'NONE',  ( -47.97191496096312591, -12.99993138616776989, 3.911745309139291749 ) ) ;
#562 = ORIENTED_EDGE ( 'NONE', *, *, #157, .T. ) ;
#563 = AXIS2_PLACEMENT_3D ( 'NONE', #221, #819, #198 ) ;
#564 = MECHANICAL_DESIGN_GEOMETRIC_PRESENTATION_REPRESENTATION (  '', ( #818 ), #1263 ) ;
#565 = ORIENTED_EDGE ( 'NONE', *, *, #723, .F. ) ;
#566 = DIRECTION ( 'NONE',  ( 0.000000000000000000, -1.000000000000000000, 0.000000000000000000 ) ) ;
#567 = CIRCLE ( 'NONE', #717, 1.149999999999999023 ) ;
#568 = AXIS2_PLACEMENT_3D ( 'NONE', #316, #433, #854 ) ;
#569 = CARTESIAN_POINT ( 'NONE',  ( -3.135016159205108899, 19.39267481122346837, -1.000000000000000000 ) ) ;
#570 = VERTEX_POINT ( 'NONE', #1159 ) ;
#571 = ORIENTED_EDGE ( 'NONE', *, *, #1028, .T. ) ;
#572 = ORIENTED_EDGE ( 'NONE', *, *, #202, .T. ) ;
#573 = CARTESIAN_POINT ( 'NONE',  ( -1.335016159205108854, -43.23723148550483586, -1.000000000000000000 ) ) ;
#574 = ADVANCED_FACE ( 'NONE', ( #217, #645, #953, #401, #1129, #1230 ), #287, .T. ) ;
#575 = CARTESIAN_POINT ( 'NONE',  ( -47.75028585900997768, -12.99993138616776989, 0.000000000000000000 ) ) ;
#576 = CIRCLE ( 'NONE', #335, 2.000000000000000000 ) ;
#577 = FACE_OUTER_BOUND ( 'NONE', #823, .T. ) ;
#578 = VERTEX_POINT ( 'NONE', #821 ) ;
#579 = VERTEX_POINT ( 'NONE', #85 ) ;
#580 = CARTESIAN_POINT ( 'NONE',  ( -45.79441320444033181, 12.00006861383223011, 1.955872654569645874 ) ) ;
#581 = CARTESIAN_POINT ( 'NONE',  ( -1.335016159205108854, -43.23723148550483586, 0.000000000000000000 ) ) ;
#582 = EDGE_CURVE ( 'NONE', #1281, #98, #509, .T. ) ;
#583 = EDGE_CURVE ( 'NONE', #878, #1162, #1152, .T. ) ;
#584 = ORIENTED_EDGE ( 'NONE', *, *, #1195, .F. ) ;
#585 = CIRCLE ( 'NONE', #492, 1.149999999999998135 ) ;
#586 = CARTESIAN_POINT ( 'NONE',  ( -47.83256164536424393, 18.74374527427764647, -2.000000000000000000 ) ) ;
#587 = VECTOR ( 'NONE', #481, 1000.000000000000000 ) ;
#588 = EDGE_CURVE ( 'NONE', #290, #553, #16, .T. ) ;
#589 = VECTOR ( 'NONE', #910, 1000.000000000000000 ) ;
#590 = EDGE_LOOP ( 'NONE', ( #285, #804, #704, #282 ) ) ;
#591 = LINE ( 'NONE', #586, #343 ) ;
#592 = PRODUCT_DEFINITION_SHAPE ( 'NONE', 'NONE',  #1239 ) ;
#593 = CARTESIAN_POINT ( 'NONE',  ( -44.22735356466332490, -41.61841504291472660, -2.000000000000000000 ) ) ;
#594 = ADVANCED_FACE ( 'NONE', ( #324 ), #22, .F. ) ;
#595 = DIRECTION ( 'NONE',  ( -0.000000000000000000, -0.000000000000000000, -1.000000000000000000 ) ) ;
#596 = CARTESIAN_POINT ( 'NONE',  ( -1.335016159205108854, -43.23723148550483586, -1.000000000000000000 ) ) ;
#597 = DIRECTION ( 'NONE',  ( 1.000000000000000000, 0.000000000000000000, 0.000000000000000000 ) ) ;
#598 = CARTESIAN_POINT ( 'NONE',  ( -45.75028585900997768, -12.99993138616776989, 3.911745309139291749 ) ) ;
#599 = ORIENTED_EDGE ( 'NONE', *, *, #911, .F. ) ;
#600 = CARTESIAN_POINT ( 'NONE',  ( -0.1850161592051096926, -43.23723148550483586, -1.000000000000000000 ) ) ;
#601 = ORIENTED_EDGE ( 'NONE', *, *, #1083, .F. ) ;
#602 = CARTESIAN_POINT ( 'NONE',  ( -44.88722585882248950, -43.23723148550483586, -1.000000000000000000 ) ) ;
#603 = EDGE_CURVE ( 'NONE', #1356, #392, #393, .T. ) ;
#604 = LINE ( 'NONE', #495, #131 ) ;
#605 =( GEOMETRIC_REPRESENTATION_CONTEXT ( 3 ) GLOBAL_UNCERTAINTY_ASSIGNED_CONTEXT ( ( #487 ) ) GLOBAL_UNIT_ASSIGNED_CONTEXT ( ( #1095, #45, #887 ) ) REPRESENTATION_CONTEXT ( 'NONE', 'WORKASPACE' ) );
#606 = VECTOR ( 'NONE', #1225, 1000.000000000000000 ) ;
#607 = CARTESIAN_POINT ( 'NONE',  ( -1.335016159205108854, -43.23723148550483586, -1.000000000000000000 ) ) ;
#608 = VERTEX_POINT ( 'NONE', #297 ) ;
#609 = DIRECTION ( 'NONE',  ( -1.000000000000000000, 0.000000000000000000, 0.000000000000000000 ) ) ;
#610 = ORIENTED_EDGE ( 'NONE', *, *, #973, .T. ) ;
#611 = DIRECTION ( 'NONE',  ( 0.000000000000000000, 0.000000000000000000, 1.000000000000000000 ) ) ;
#612 = ADVANCED_FACE ( 'NONE', ( #439 ), #853, .F. ) ;
#613 = DIRECTION ( 'NONE',  ( -0.000000000000000000, -0.000000000000000000, -1.000000000000000000 ) ) ;
#614 = EDGE_LOOP ( 'NONE', ( #278, #133, #683, #136, #746, #140, #772, #649, #474 ) ) ;
#615 = DIRECTION ( 'NONE',  ( 0.000000000000000000, -0.000000000000000000, 1.000000000000000000 ) ) ;
#616 = EDGE_LOOP ( 'NONE', ( #404, #124, #972, #1295, #407, #642 ) ) ;
#617 = DIRECTION ( 'NONE',  ( 0.000000000000000000, 0.000000000000000000, -1.000000000000000000 ) ) ;
#618 = DIRECTION ( 'NONE',  ( -0.000000000000000000, -0.000000000000000000, 1.000000000000000000 ) ) ;
#619 = CARTESIAN_POINT ( 'NONE',  ( -1.335016159205108854, -43.23723148550483586, -1.000000000000000000 ) ) ;
#620 = ADVANCED_FACE ( 'NONE', ( #1256, #1044 ), #727, .T. ) ;
#621 = DIRECTION ( 'NONE',  ( 0.000000000000000000, 0.000000000000000000, 1.000000000000000000 ) ) ;
#622 = ORIENTED_EDGE ( 'NONE', *, *, #130, .T. ) ;
#623 = DIRECTION ( 'NONE',  ( -1.000000000000000000, 0.000000000000000000, 0.000000000000000000 ) ) ;
#624 = DIRECTION ( 'NONE',  ( -0.000000000000000000, -0.000000000000000000, 1.000000000000000000 ) ) ;
#625 = DIRECTION ( 'NONE',  ( 0.000000000000000000, -0.000000000000000000, -1.000000000000000000 ) ) ;
#626 = AXIS2_PLACEMENT_3D ( 'NONE', #416, #508, #216 ) ;
#627 = DIRECTION ( 'NONE',  ( -0.000000000000000000, -0.000000000000000000, -1.000000000000000000 ) ) ;
#628 = VECTOR ( 'NONE', #1192, 1000.000000000000000 ) ;
#629 = LINE ( 'NONE', #1145, #107 ) ;
#630 = ORIENTED_EDGE ( 'NONE', *, *, #7, .F. ) ;
#631 = ADVANCED_FACE ( 'NONE', ( #1052 ), #517, .F. ) ;
#632 = DIRECTION ( 'NONE',  ( 1.000000000000000000, 0.000000000000000000, 0.000000000000000000 ) ) ;
#633 = CIRCLE ( 'NONE', #40, 1.800000000000002931 ) ;
#634 = VERTEX_POINT ( 'NONE', #829 ) ;
#635 = LINE ( 'NONE', #294, #867 ) ;
#636 = LINE ( 'NONE', #1043, #1053 ) ;
#637 = VECTOR ( 'NONE', #844, 1000.000000000000000 ) ;
#638 = DIRECTION ( 'NONE',  ( 1.000000000000000000, 0.000000000000000000, 0.000000000000000000 ) ) ;
#639 = CARTESIAN_POINT ( 'NONE',  ( -47.75028585900997768, 12.00006861383223011, 0.000000000000000000 ) ) ;
#640 = ORIENTED_EDGE ( 'NONE', *, *, #544, .T. ) ;
#641 = CARTESIAN_POINT ( 'NONE',  ( -43.08722585882248524, 19.14266193162950103, 0.000000000000000000 ) ) ;
#642 = ORIENTED_EDGE ( 'NONE', *, *, #551, .F. ) ;
#643 = EDGE_CURVE ( 'NONE', #195, #165, #224, .T. ) ;
#644 = DIRECTION ( 'NONE',  ( 0.000000000000000000, 0.000000000000000000, 1.000000000000000000 ) ) ;
#645 = FACE_BOUND ( 'NONE', #1140, .T. ) ;
#646 = DIRECTION ( 'NONE',  ( 0.000000000000000000, 0.000000000000000000, 1.000000000000000000 ) ) ;
#647 = ORIENTED_EDGE ( 'NONE', *, *, #1315, .T. ) ;
#648 = DIRECTION ( 'NONE',  ( 0.000000000000000000, 0.000000000000000000, 1.000000000000000000 ) ) ;
#649 = ORIENTED_EDGE ( 'NONE', *, *, #588, .T. ) ;
#650 = CARTESIAN_POINT ( 'NONE',  ( -45.75028585900997768, 12.00006861383223011, 3.911745309139291749 ) ) ;
#651 = DIRECTION ( 'NONE',  ( -0.000000000000000000, -0.000000000000000000, -1.000000000000000000 ) ) ;
#652 = COLOUR_RGB ( '',0.7921568627450980005, 0.8196078431372548767, 0.9333333333333333481 ) ;
#653 = DIRECTION ( 'NONE',  ( 1.000000000000000000, 0.000000000000000000, 0.000000000000000000 ) ) ;
#654 = AXIS2_PLACEMENT_3D ( 'NONE', #466, #1085, #879 ) ;
#655 = ORIENTED_EDGE ( 'NONE', *, *, #1034, .T. ) ;
#656 = ORIENTED_EDGE ( 'NONE', *, *, #327, .F. ) ;
#657 = CYLINDRICAL_SURFACE ( 'NONE', #288, 2.000000000000000000 ) ;
#658 = PLANE ( 'NONE',  #361 ) ;
#659 = EDGE_CURVE ( 'NONE', #110, #634, #1143, .T. ) ;
#660 = AXIS2_PLACEMENT_3D ( 'NONE', #1241, #223, #638 ) ;
#661 = DIRECTION ( 'NONE',  ( 0.000000000000000000, -1.000000000000000000, 0.000000000000000000 ) ) ;
#662 = ORIENTED_EDGE ( 'NONE', *, *, #1308, .T. ) ;
#663 = EDGE_LOOP ( 'NONE', ( #362, #220, #1183, #13 ) ) ;
#664 = FILL_AREA_STYLE_COLOUR ( '', #652 ) ;
#665 = DIRECTION ( 'NONE',  ( 0.000000000000000000, 0.000000000000000000, -1.000000000000000000 ) ) ;
#666 = DIRECTION ( 'NONE',  ( -0.000000000000000000, -0.000000000000000000, -1.000000000000000000 ) ) ;
#667 = ORIENTED_EDGE ( 'NONE', *, *, #1319, .F. ) ;
#668 = ORIENTED_EDGE ( 'NONE', *, *, #583, .T. ) ;
#669 = CARTESIAN_POINT ( 'NONE',  ( -2.390344587278959487, 22.59374527427766211, -2.000000000000000000 ) ) ;
#670 = FACE_OUTER_BOUND ( 'NONE', #350, .T. ) ;
#671 = APPLICATION_PROTOCOL_DEFINITION ( 'draft international standard', 'automotive_design', 1998, #488 ) ;
#672 = FACE_OUTER_BOUND ( 'NONE', #1154, .T. ) ;
#673 = ORIENTED_EDGE ( 'NONE', *, *, #459, .T. ) ;
#674 = AXIS2_PLACEMENT_3D ( 'NONE', #602, #691, #1002 ) ;
#675 = VECTOR ( 'NONE', #27, 1000.000000000000000 ) ;
#676 = VERTEX_POINT ( 'NONE', #846 ) ;
#677 = ADVANCED_FACE ( 'NONE', ( #742 ), #658, .T. ) ;
#678 = CARTESIAN_POINT ( 'NONE',  ( -43.75223403046771153, 12.00006861383223011, 1.911745309139289972 ) ) ;
#679 = DIRECTION ( 'NONE',  ( -1.000000000000000000, 0.000000000000000000, 0.000000000000000000 ) ) ;
#680 = VECTOR ( 'NONE', #847, 1000.000000000000000 ) ;
#681 = PRODUCT_CONTEXT ( 'NONE', #840, 'mechanical' ) ;
#682 = CARTESIAN_POINT ( 'NONE',  ( -47.75028585900997768, -12.99993138616776989, 0.000000000000000000 ) ) ;
#683 = ORIENTED_EDGE ( 'NONE', *, *, #1059, .T. ) ;
#684 = ORIENTED_EDGE ( 'NONE', *, *, #1170, .F. ) ;
#685 = CARTESIAN_POINT ( 'NONE',  ( -45.16547317164523889, 12.00006861383223011, 1.326932621774551402 ) ) ;
#686 = EDGE_CURVE ( 'NONE', #553, #1226, #1014, .T. ) ;
#687 = CARTESIAN_POINT ( 'NONE',  ( -24.33706251844780155, -12.99993138616776989, 1.911745309139289972 ) ) ;
#688 = PLANE ( 'NONE',  #500 ) ;
#689 = ORIENTED_EDGE ( 'NONE', *, *, #815, .F. ) ;
#690 = DIRECTION ( 'NONE',  ( 1.000000000000000000, 0.000000000000000000, 0.000000000000000000 ) ) ;
#691 = DIRECTION ( 'NONE',  ( -0.000000000000000000, -0.000000000000000000, -1.000000000000000000 ) ) ;
#692 = EDGE_CURVE ( 'NONE', #1022, #141, #985, .T. ) ;
#693 = DIRECTION ( 'NONE',  ( 0.000000000000000000, 0.000000000000000000, 1.000000000000000000 ) ) ;
#694 = VERTEX_POINT ( 'NONE', #49 ) ;
#695 = AXIS2_PLACEMENT_3D ( 'NONE', #84, #739, #939 ) ;
#696 = LINE ( 'NONE', #580, #743 ) ;
#697 = CIRCLE ( 'NONE', #820, 1.800000000000000711 ) ;
#698 = CARTESIAN_POINT ( 'NONE',  ( -47.75028585900997768, -12.99993138616776989, 0.000000000000000000 ) ) ;
#699 = EDGE_CURVE ( 'NONE', #1161, #1276, #929, .T. ) ;
#700 = VERTEX_POINT ( 'NONE', #969 ) ;
#701 = CIRCLE ( 'NONE', #526, 2.000000000000000000 ) ;
#702 = CARTESIAN_POINT ( 'NONE',  ( 1.459655412721065471, -41.61841504291471949, -2.000000000000000000 ) ) ;
#703 = CYLINDRICAL_SURFACE ( 'NONE', #1266, 3.849999999999999201 ) ;
#704 = ORIENTED_EDGE ( 'NONE', *, *, #43, .T. ) ;
#705 = CARTESIAN_POINT ( 'NONE',  ( -47.75028585900997768, -12.99993138616776989, 0.000000000000000000 ) ) ;
#706 = ORIENTED_EDGE ( 'NONE', *, *, #699, .F. ) ;
#707 = DIRECTION ( 'NONE',  ( -1.000000000000000000, 0.000000000000000000, 0.000000000000000000 ) ) ;
#708 = CARTESIAN_POINT ( 'NONE',  ( -45.75028585900997768, -12.99993138616776989, 1.911745309139292193 ) ) ;
#709 = PLANE ( 'NONE',  #233 ) ;
#710 = ORIENTED_EDGE ( 'NONE', *, *, #863, .T. ) ;
#711 = CARTESIAN_POINT ( 'NONE',  ( -46.03722585882248808, 19.14266193162950103, -2.000000000000000000 ) ) ;
#712 = EDGE_CURVE ( 'NONE', #749, #1337, #1320, .T. ) ;
#713 = AXIS2_PLACEMENT_3D ( 'NONE', #858, #785, #1303 ) ;
#714 = CARTESIAN_POINT ( 'NONE',  ( -26.38725206655752586, 12.00006861383223011, 1.911745309139289972 ) ) ;
#715 = AXIS2_PLACEMENT_3D ( 'NONE', #1355, #214, #615 ) ;
#716 = CARTESIAN_POINT ( 'NONE',  ( -44.22735356466332490, -41.61841504291472660, 0.000000000000000000 ) ) ;
#717 = AXIS2_PLACEMENT_3D ( 'NONE', #1029, #1231, #1035 ) ;
#718 = CIRCLE ( 'NONE', #323, 3.849999999999992539 ) ;
#719 = CARTESIAN_POINT ( 'NONE',  ( -24.33706251844780155, -15.51993787714232198, 1.911745309139289972 ) ) ;
#720 = ORIENTED_EDGE ( 'NONE', *, *, #761, .T. ) ;
#721 = FACE_OUTER_BOUND ( 'NONE', #1064, .T. ) ;
#722 = ORIENTED_EDGE ( 'NONE', *, *, #86, .T. ) ;
#723 = EDGE_CURVE ( 'NONE', #98, #290, #763, .T. ) ;
#724 = CARTESIAN_POINT ( 'NONE',  ( -44.88722585882248950, 19.14266193162950103, -1.000000000000000000 ) ) ;
#725 = LINE ( 'NONE', #322, #637 ) ;
#726 = VECTOR ( 'NONE', #1186, 1000.000000000000000 ) ;
#727 = PLANE ( 'NONE',  #379 ) ;
#728 = DIRECTION ( 'NONE',  ( 0.000000000000000000, 0.000000000000000000, 1.000000000000000000 ) ) ;
#729 = ORIENTED_EDGE ( 'NONE', *, *, #306, .T. ) ;
#730 = DIRECTION ( 'NONE',  ( 1.000000000000000000, 0.000000000000000000, 0.000000000000000000 ) ) ;
#731 = VERTEX_POINT ( 'NONE', #252 ) ;
#732 = DIRECTION ( 'NONE',  ( -0.000000000000000000, -0.000000000000000000, 1.000000000000000000 ) ) ;
#733 = DIRECTION ( 'NONE',  ( -1.000000000000000000, 0.000000000000000000, 0.000000000000000000 ) ) ;
#734 = EDGE_CURVE ( 'NONE', #1221, #1167, #54, .T. ) ;
#735 = CARTESIAN_POINT ( 'NONE',  ( 0.4649838407948909125, 19.39267481122346837, -1.000000000000000000 ) ) ;
#736 = ORIENTED_EDGE ( 'NONE', *, *, #863, .F. ) ;
#737 = DIRECTION ( 'NONE',  ( -0.000000000000000000, -0.000000000000000000, -1.000000000000000000 ) ) ;
#738 = VERTEX_POINT ( 'NONE', #451 ) ;
#739 = DIRECTION ( 'NONE',  ( 0.000000000000000000, 0.000000000000000000, 1.000000000000000000 ) ) ;
#740 = PLANE ( 'NONE',  #852 ) ;
#741 = AXIS2_PLACEMENT_3D ( 'NONE', #238, #665, #1122 ) ;
#742 = FACE_OUTER_BOUND ( 'NONE', #759, .T. ) ;
#743 = VECTOR ( 'NONE', #1323, 1000.000000000000114 ) ;
#744 = ADVANCED_FACE ( 'NONE', ( #1185 ), #346, .F. ) ;
#745 = CARTESIAN_POINT ( 'NONE',  ( -44.88722585882248950, -43.23723148550483586, -1.000000000000000000 ) ) ;
#746 = ORIENTED_EDGE ( 'NONE', *, *, #479, .T. ) ;
#747 = CARTESIAN_POINT ( 'NONE',  ( -2.390344587278961708, -45.46841504291472091, -2.000000000000000000 ) ) ;
#748 = AXIS2_PLACEMENT_3D ( 'NONE', #745, #1, #115 ) ;
#749 = VERTEX_POINT ( 'NONE', #257 ) ;
#750 = CARTESIAN_POINT ( 'NONE',  ( -26.33706251844780510, 12.00006861383223011, 3.911745309139291749 ) ) ;
#751 = DIRECTION ( 'NONE',  ( 1.000000000000000000, 0.000000000000000000, 0.000000000000000000 ) ) ;
#752 = DIRECTION ( 'NONE',  ( 1.000000000000000000, 0.000000000000000000, -0.000000000000000000 ) ) ;
#753 = DIRECTION ( 'NONE',  ( -1.000000000000000000, 0.000000000000000000, 0.000000000000000000 ) ) ;
#754 = ORIENTED_EDGE ( 'NONE', *, *, #7, .T. ) ;
#755 = VERTEX_POINT ( 'NONE', #687 ) ;
#756 = DIRECTION ( 'NONE',  ( 1.000000000000000000, 0.000000000000000000, 0.000000000000000000 ) ) ;
#757 = CARTESIAN_POINT ( 'NONE',  ( -24.33706251844780155, -12.99993138616776989, 1.911745309139289972 ) ) ;
#758 = ORIENTED_EDGE ( 'NONE', *, *, #286, .F. ) ;
#759 = EDGE_LOOP ( 'NONE', ( #673, #246, #1340, #1354 ) ) ;
#760 = SURFACE_STYLE_USAGE ( .BOTH. , #982 ) ;
#761 = EDGE_CURVE ( 'NONE', #925, #1115, #907, .T. ) ;
#762 = CARTESIAN_POINT ( 'NONE',  ( -47.83256164536424393, 18.74374527427764647, -2.000000000000000000 ) ) ;
#763 = CIRCLE ( 'NONE', #1169, 3.849999999999999201 ) ;
#764 = DIRECTION ( 'NONE',  ( 0.000000000000000000, 1.000000000000000000, 0.000000000000000000 ) ) ;
#765 = VECTOR ( 'NONE', #632, 1000.000000000000000 ) ;
#766 = VERTEX_POINT ( 'NONE', #338 ) ;
#767 = ORIENTED_EDGE ( 'NONE', *, *, #1257, .F. ) ;
#768 = CARTESIAN_POINT ( 'NONE',  ( -0.1850161592051096926, -43.23723148550483586, -2.000000000000000000 ) ) ;
#769 = DIRECTION ( 'NONE',  ( 0.000000000000000000, 0.000000000000000000, 1.000000000000000000 ) ) ;
#770 = DIRECTION ( 'NONE',  ( 0.000000000000000000, -0.000000000000000000, 1.000000000000000000 ) ) ;
#771 = EDGE_LOOP ( 'NONE', ( #684, #959, #1289, #205 ) ) ;
#772 = ORIENTED_EDGE ( 'NONE', *, *, #723, .T. ) ;
#773 = CARTESIAN_POINT ( 'NONE',  ( -44.22735356466332490, -41.61841504291472660, 0.000000000000000000 ) ) ;
#774 = DIRECTION ( 'NONE',  ( 1.000000000000000000, 0.000000000000000000, 0.000000000000000000 ) ) ;
#775 = ADVANCED_FACE ( 'NONE', ( #670 ), #467, .T. ) ;
#776 = DIRECTION ( 'NONE',  ( 1.000000000000000000, 0.000000000000000000, 0.000000000000000000 ) ) ;
#777 = ORIENTED_EDGE ( 'NONE', *, *, #295, .F. ) ;
#778 = ORIENTED_EDGE ( 'NONE', *, *, #734, .T. ) ;
#779 = FILL_AREA_STYLE ('',( #664 ) ) ;
#780 = CARTESIAN_POINT ( 'NONE',  ( -2.390344587278931954, 18.74374527427766068, -2.000000000000000000 ) ) ;
#781 = AXIS2_PLACEMENT_3D ( 'NONE', #581, #446, #36 ) ;
#782 = EDGE_CURVE ( 'NONE', #259, #921, #1171, .T. ) ;
#783 = AXIS2_PLACEMENT_3D ( 'NONE', #1047, #91, #1348 ) ;
#784 = ORIENTED_EDGE ( 'NONE', *, *, #583, .F. ) ;
#785 = DIRECTION ( 'NONE',  ( 0.000000000000000000, 0.000000000000000000, 1.000000000000000000 ) ) ;
#786 = CARTESIAN_POINT ( 'NONE',  ( -43.98256164536424251, 18.74374527427766779, 0.000000000000000000 ) ) ;
#787 = CARTESIAN_POINT ( 'NONE',  ( -47.75028585900997768, 12.00006861383223011, 0.000000000000000000 ) ) ;
#788 = EDGE_LOOP ( 'NONE', ( #1291, #794, #655, #171 ) ) ;
#789 = DIRECTION ( 'NONE',  ( 0.000000000000000000, 0.000000000000000000, -1.000000000000000000 ) ) ;
#790 = AXIS2_PLACEMENT_3D ( 'NONE', #1248, #313, #1359 ) ;
#791 = EDGE_CURVE ( 'NONE', #558, #814, #44, .T. ) ;
#792 = FACE_OUTER_BOUND ( 'NONE', #560, .T. ) ;
#793 = EDGE_LOOP ( 'NONE', ( #1030, #903, #1018, #729 ) ) ;
#794 = ORIENTED_EDGE ( 'NONE', *, *, #157, .F. ) ;
#795 = CARTESIAN_POINT ( 'NONE',  ( -3.135016159205109343, -43.23723148550483586, -1.000000000000000000 ) ) ;
#796 = EDGE_CURVE ( 'NONE', #137, #578, #12, .T. ) ;
#797 = ORIENTED_EDGE ( 'NONE', *, *, #173, .T. ) ;
#798 = CIRCLE ( 'NONE', #317, 1.149999999999998135 ) ;
#799 = CARTESIAN_POINT ( 'NONE',  ( -44.22735356466328938, -45.46841504291472802, 0.000000000000000000 ) ) ;
#800 = PLANE ( 'NONE',  #32 ) ;
#801 = AXIS2_PLACEMENT_3D ( 'NONE', #958, #970, #218 ) ;
#802 = EDGE_CURVE ( 'NONE', #891, #676, #1204, .T. ) ;
#803 = CARTESIAN_POINT ( 'NONE',  ( -26.33706251844780510, -12.99993138616776989, 3.911745309139291749 ) ) ;
#804 = ORIENTED_EDGE ( 'NONE', *, *, #1338, .F. ) ;
#805 = CARTESIAN_POINT ( 'NONE',  ( 0.4649838407948909125, 19.39267481122346837, 0.000000000000000000 ) ) ;
#806 = ORIENTED_EDGE ( 'NONE', *, *, #493, .T. ) ;
#807 = FACE_BOUND ( 'NONE', #937, .T. ) ;
#808 = ADVANCED_FACE ( 'NONE', ( #1316, #909, #1326, #1006, #400 ), #800, .F. ) ;
#809 = CARTESIAN_POINT ( 'NONE',  ( -47.83256164536424393, 12.65254820714462625, 0.000000000000000000 ) ) ;
#810 = EDGE_LOOP ( 'NONE', ( #349, #228, #1282, #1236 ) ) ;
#811 = LINE ( 'NONE', #172, #977 ) ;
#812 = CARTESIAN_POINT ( 'NONE',  ( -43.75223403046771153, 12.00006861383223011, -0.08825469086070961144 ) ) ;
#813 = LINE ( 'NONE', #809, #145 ) ;
#814 = VERTEX_POINT ( 'NONE', #714 ) ;
#815 = EDGE_CURVE ( 'NONE', #110, #1084, #1108, .T. ) ;
#816 = CARTESIAN_POINT ( 'NONE',  ( -0.1850161592051096926, -43.23723148550483586, -1.000000000000000000 ) ) ;
#817 = EDGE_CURVE ( 'NONE', #700, #465, #976, .T. ) ;
#818 = STYLED_ITEM ( 'NONE', ( #1168 ), #1027 ) ;
#819 = DIRECTION ( 'NONE',  ( -0.000000000000000000, -0.000000000000000000, -1.000000000000000000 ) ) ;
#820 = AXIS2_PLACEMENT_3D ( 'NONE', #117, #538, #1147 ) ;
#821 = CARTESIAN_POINT ( 'NONE',  ( -43.73722585882249092, 19.14266193162950103, -1.000000000000000000 ) ) ;
#822 = LINE ( 'NONE', #388, #606 ) ;
#823 = EDGE_LOOP ( 'NONE', ( #1188, #1046, #67, #1317 ) ) ;
#824 = LINE ( 'NONE', #421, #477 ) ;
#825 = EDGE_LOOP ( 'NONE', ( #1082, #987, #806, #647 ) ) ;
#826 = DIRECTION ( 'NONE',  ( 0.000000000000000000, 0.000000000000000000, 1.000000000000000000 ) ) ;
#827 = ADVANCED_FACE ( 'NONE', ( #792 ), #1209, .F. ) ;
#828 = CYLINDRICAL_SURFACE ( 'NONE', #963, 1.149999999999998135 ) ;
#829 = CARTESIAN_POINT ( 'NONE',  ( -2.485016159205108099, -43.23723148550483586, -2.000000000000000000 ) ) ;
#830 = FACE_OUTER_BOUND ( 'NONE', #793, .T. ) ;
#831 = ORIENTED_EDGE ( 'NONE', *, *, #261, .T. ) ;
#832 = LINE ( 'NONE', #1139, #1040 ) ;
#833 = ORIENTED_EDGE ( 'NONE', *, *, #142, .F. ) ;
#834 = LINE ( 'NONE', #750, #845 ) ;
#835 = FACE_OUTER_BOUND ( 'NONE', #548, .T. ) ;
#836 = EDGE_CURVE ( 'NONE', #1259, #1219, #315, .T. ) ;
#837 = DIRECTION ( 'NONE',  ( -0.000000000000000000, -0.000000000000000000, -1.000000000000000000 ) ) ;
#838 = DIRECTION ( 'NONE',  ( 0.000000000000000000, 0.000000000000000000, -1.000000000000000000 ) ) ;
#839 = VERTEX_POINT ( 'NONE', #698 ) ;
#840 = APPLICATION_CONTEXT ( 'automotive_design' ) ;
#841 = DIRECTION ( 'NONE',  ( -0.8135651854280979700, 0.000000000000000000, -0.5814737217272545333 ) ) ;
#842 = ORIENTED_EDGE ( 'NONE', *, *, #1010, .T. ) ;
#843 = CARTESIAN_POINT ( 'NONE',  ( -47.83256164536424393, 18.74374527427764647, -2.000000000000000000 ) ) ;
#844 = DIRECTION ( 'NONE',  ( -0.000000000000000000, -0.000000000000000000, 1.000000000000000000 ) ) ;
#845 = VECTOR ( 'NONE', #103, 1000.000000000000000 ) ;
#846 = CARTESIAN_POINT ( 'NONE',  ( -43.73722585882249092, -43.23723148550483586, -2.000000000000000000 ) ) ;
#847 = DIRECTION ( 'NONE',  ( 0.000000000000000000, 1.000000000000000000, 0.000000000000000000 ) ) ;
#848 = EDGE_LOOP ( 'NONE', ( #59, #1015, #456, #562 ) ) ;
#849 = ORIENTED_EDGE ( 'NONE', *, *, #231, .T. ) ;
#850 = VECTOR ( 'NONE', #666, 1000.000000000000000 ) ;
#851 = CARTESIAN_POINT ( 'NONE',  ( -44.88722585882248950, 19.14266193162950103, -2.000000000000000000 ) ) ;
#852 = AXIS2_PLACEMENT_3D ( 'NONE', #424, #296, #120 ) ;
#853 = CYLINDRICAL_SURFACE ( 'NONE', #1205, 1.149999999999999023 ) ;
#854 = DIRECTION ( 'NONE',  ( 0.000000000000000000, 0.000000000000000000, -1.000000000000000000 ) ) ;
#855 = ORIENTED_EDGE ( 'NONE', *, *, #1335, .T. ) ;
#856 = EDGE_CURVE ( 'NONE', #1207, #579, #272, .T. ) ;
#857 = VERTEX_POINT ( 'NONE', #1041 ) ;
#858 = CARTESIAN_POINT ( 'NONE',  ( -43.98256164536424251, 18.74374527427766779, -2.000000000000000000 ) ) ;
#859 = CARTESIAN_POINT ( 'NONE',  ( -44.88722585882248950, -43.23723148550483586, -1.000000000000000000 ) ) ;
#860 = DIRECTION ( 'NONE',  ( -1.000000000000000000, -0.000000000000000000, -0.000000000000000000 ) ) ;
#861 = ORIENTED_EDGE ( 'NONE', *, *, #283, .F. ) ;
#862 = ORIENTED_EDGE ( 'NONE', *, *, #802, .F. ) ;
#863 = EDGE_CURVE ( 'NONE', #4, #731, #95, .T. ) ;
#864 = DIRECTION ( 'NONE',  ( 0.000000000000000000, 0.000000000000000000, 1.000000000000000000 ) ) ;
#865 = EDGE_CURVE ( 'NONE', #19, #1259, #834, .T. ) ;
#866 = DIRECTION ( 'NONE',  ( 1.000000000000000000, 0.000000000000000000, 0.000000000000000000 ) ) ;
#867 = VECTOR ( 'NONE', #113, 1000.000000000000000 ) ;
#868 = AXIS2_PLACEMENT_3D ( 'NONE', #724, #644, #1254 ) ;
#869 = DIRECTION ( 'NONE',  ( 0.000000000000000000, 0.000000000000000000, 1.000000000000000000 ) ) ;
#870 = CIRCLE ( 'NONE', #1109, 1.149999999999998135 ) ;
#871 = EDGE_LOOP ( 'NONE', ( #332, #1090, #514, #539 ) ) ;
#872 = ORIENTED_EDGE ( 'NONE', *, *, #283, .T. ) ;
#873 =( NAMED_UNIT ( * ) SI_UNIT ( $, .STERADIAN. ) SOLID_ANGLE_UNIT ( ) );
#874 = ADVANCED_FACE ( 'NONE', ( #1350, #524 ), #952, .T. ) ;
#875 = CARTESIAN_POINT ( 'NONE',  ( -2.390344587278931954, 18.74374527427766068, 0.000000000000000000 ) ) ;
#876 = LINE ( 'NONE', #70, #850 ) ;
#877 = ORIENTED_EDGE ( 'NONE', *, *, #1028, .F. ) ;
#878 = VERTEX_POINT ( 'NONE', #930 ) ;
#879 = DIRECTION ( 'NONE',  ( 1.000000000000000000, 1.387778780781533555E-14, 0.000000000000000000 ) ) ;
#880 = CARTESIAN_POINT ( 'NONE',  ( -44.88722585882248950, 19.14266193162950103, -2.000000000000000000 ) ) ;
#881 = EDGE_CURVE ( 'NONE', #259, #531, #518, .T. ) ;
#882 = CARTESIAN_POINT ( 'NONE',  ( 0.000000000000000000, 0.000000000000000000, 0.000000000000000000 ) ) ;
#883 = DIRECTION ( 'NONE',  ( -0.004510476481664449019, -0.9999898277492168530, 0.000000000000000000 ) ) ;
#884 = ORIENTED_EDGE ( 'NONE', *, *, #231, .F. ) ;
#885 = ORIENTED_EDGE ( 'NONE', *, *, #1105, .F. ) ;
#886 = CARTESIAN_POINT ( 'NONE',  ( -26.33706251844780510, -12.99993138616776989, 1.911745309139289972 ) ) ;
#887 =( NAMED_UNIT ( * ) SI_UNIT ( $, .STERADIAN. ) SOLID_ANGLE_UNIT ( ) );
#888 = CARTESIAN_POINT ( 'NONE',  ( -3.135016159205109787, -43.23723148550483586, -1.000000000000000000 ) ) ;
#889 = AXIS2_PLACEMENT_3D ( 'NONE', #762, #679, #769 ) ;
#890 = AXIS2_PLACEMENT_3D ( 'NONE', #522, #737, #623 ) ;
#891 = VERTEX_POINT ( 'NONE', #429 ) ;
#892 = ORIENTED_EDGE ( 'NONE', *, *, #1315, .F. ) ;
#893 = CYLINDRICAL_SURFACE ( 'NONE', #1321, 1.800000000000000711 ) ;
#894 = DIRECTION ( 'NONE',  ( 1.000000000000000000, 0.000000000000000000, 0.000000000000000000 ) ) ;
#895 = VECTOR ( 'NONE', #646, 1000.000000000000000 ) ;
#896 = CARTESIAN_POINT ( 'NONE',  ( -46.68722585882249376, 19.14266193162950103, -1.000000000000000000 ) ) ;
#897 = ORIENTED_EDGE ( 'NONE', *, *, #202, .F. ) ;
#898 = ORIENTED_EDGE ( 'NONE', *, *, #957, .T. ) ;
#899 = ADVANCED_FACE ( 'NONE', ( #1158 ), #191, .T. ) ;
#900 = LINE ( 'NONE', #915, #14 ) ;
#901 = ADVANCED_FACE ( 'NONE', ( #1357 ), #1058, .F. ) ;
#902 = DIRECTION ( 'NONE',  ( -0.000000000000000000, 1.000000000000000000, 0.000000000000000000 ) ) ;
#903 = ORIENTED_EDGE ( 'NONE', *, *, #865, .F. ) ;
#904 = CARTESIAN_POINT ( 'NONE',  ( -44.88722585882248950, 19.14266193162950103, -1.000000000000000000 ) ) ;
#905 = EDGE_CURVE ( 'NONE', #1356, #1310, #946, .T. ) ;
#906 = CARTESIAN_POINT ( 'NONE',  ( -2.390344587278932842, -41.61841504291471949, -2.000000000000000000 ) ) ;
#907 = CIRCLE ( 'NONE', #432, 1.800000000000002931 ) ;
#908 = FACE_OUTER_BOUND ( 'NONE', #381, .T. ) ;
#909 = FACE_BOUND ( 'NONE', #311, .T. ) ;
#910 = DIRECTION ( 'NONE',  ( 0.000000000000000000, 0.000000000000000000, 1.000000000000000000 ) ) ;
#911 = EDGE_CURVE ( 'NONE', #1337, #749, #585, .T. ) ;
#912 = AXIS2_PLACEMENT_3D ( 'NONE', #948, #536, #9 ) ;
#913 = CARTESIAN_POINT ( 'NONE',  ( 0.4649838407948918007, -43.23723148550483586, -1.000000000000000000 ) ) ;
#914 = EDGE_LOOP ( 'NONE', ( #861, #1233, #1194, #1024 ) ) ;
#915 = CARTESIAN_POINT ( 'NONE',  ( -2.390344587278959487, 22.59374527427766211, -2.000000000000000000 ) ) ;
#916 = FACE_OUTER_BOUND ( 'NONE', #235, .T. ) ;
#917 = ADVANCED_FACE ( 'NONE', ( #5 ), #1271, .F. ) ;
#918 = LINE ( 'NONE', #913, #105 ) ;
#919 = EDGE_LOOP ( 'NONE', ( #116, #951, #668, #473 ) ) ;
#920 = CARTESIAN_POINT ( 'NONE',  ( -47.97191496096312591, -12.99993138616776989, 1.911745309139289972 ) ) ;
#921 = VERTEX_POINT ( 'NONE', #304 ) ;
#922 = FACE_OUTER_BOUND ( 'NONE', #871, .T. ) ;
#923 = CARTESIAN_POINT ( 'NONE',  ( -47.16449942138306994, -12.99993138616776989, 3.325958871512387116 ) ) ;
#924 = CYLINDRICAL_SURFACE ( 'NONE', #127, 1.149999999999999911 ) ;
#925 = VERTEX_POINT ( 'NONE', #532 ) ;
#926 = ADVANCED_FACE ( 'NONE', ( #1141, #1164 ), #1025, .T. ) ;
#927 = LINE ( 'NONE', #207, #1042 ) ;
#928 = VERTEX_POINT ( 'NONE', #843 ) ;
#929 = CIRCLE ( 'NONE', #781, 1.800000000000000711 ) ;
#930 = CARTESIAN_POINT ( 'NONE',  ( -3.135016159205108899, 19.39267481122346837, 0.000000000000000000 ) ) ;
#931 = AXIS2_PLACEMENT_3D ( 'NONE', #277, #789, #1117 ) ;
#932 = PLANE ( 'NONE',  #239 ) ;
#933 = DIRECTION ( 'NONE',  ( -1.000000000000000000, 0.000000000000000000, 0.000000000000000000 ) ) ;
#934 = CARTESIAN_POINT ( 'NONE',  ( -46.68722585882249376, -43.23723148550483586, 0.000000000000000000 ) ) ;
#935 = ORIENTED_EDGE ( 'NONE', *, *, #973, .F. ) ;
#936 = CARTESIAN_POINT ( 'NONE',  ( -24.33706251844780155, 12.00006861383223011, 1.911745309139289972 ) ) ;
#937 = EDGE_LOOP ( 'NONE', ( #537, #428 ) ) ;
#938 = ADVANCED_FACE ( 'NONE', ( #922 ), #423, .T. ) ;
#939 = DIRECTION ( 'NONE',  ( 1.000000000000000000, 0.000000000000000000, -0.000000000000000000 ) ) ;
#940 = CARTESIAN_POINT ( 'NONE',  ( -47.97191496096312591, -12.99993138616776989, 3.911745309139291749 ) ) ;
#941 = DIRECTION ( 'NONE',  ( -1.000000000000000000, 0.000000000000000000, 0.000000000000000000 ) ) ;
#942 = CYLINDRICAL_SURFACE ( 'NONE', #1091, 3.849999999999999201 ) ;
#943 = ORIENTED_EDGE ( 'NONE', *, *, #1180, .T. ) ;
#944 = PLANE ( 'NONE',  #715 ) ;
#945 = ORIENTED_EDGE ( 'NONE', *, *, #1237, .T. ) ;
#946 = LINE ( 'NONE', #438, #1190 ) ;
#947 = CARTESIAN_POINT ( 'NONE',  ( -45.75028585900997768, 12.00006861383223011, 0.000000000000000000 ) ) ;
#948 = CARTESIAN_POINT ( 'NONE',  ( -44.88722585882248950, 19.14266193162950103, 0.000000000000000000 ) ) ;
#949 = ORIENTED_EDGE ( 'NONE', *, *, #1163, .T. ) ;
#950 = DIRECTION ( 'NONE',  ( 1.000000000000000000, 0.000000000000000000, 0.000000000000000000 ) ) ;
#951 = ORIENTED_EDGE ( 'NONE', *, *, #1319, .T. ) ;
#952 = PLANE ( 'NONE',  #868 ) ;
#953 = FACE_BOUND ( 'NONE', #255, .T. ) ;
#954 = VECTOR ( 'NONE', #209, 1000.000000000000000 ) ;
#955 = AXIS2_PLACEMENT_3D ( 'NONE', #773, #445, #351 ) ;
#956 = EDGE_CURVE ( 'NONE', #1166, #342, #408, .T. ) ;
#957 = EDGE_CURVE ( 'NONE', #991, #814, #635, .T. ) ;
#958 = CARTESIAN_POINT ( 'NONE',  ( -44.88722585882248950, 19.14266193162950103, -1.000000000000000000 ) ) ;
#959 = ORIENTED_EDGE ( 'NONE', *, *, #1019, .F. ) ;
#960 = VECTOR ( 'NONE', #860, 1000.000000000000000 ) ;
#961 = ORIENTED_EDGE ( 'NONE', *, *, #1120, .T. ) ;
#962 = LINE ( 'NONE', #230, #675 ) ;
#963 = AXIS2_PLACEMENT_3D ( 'NONE', #430, #1342, #733 ) ;
#964 = ADVANCED_FACE ( 'NONE', ( #1264 ), #92, .F. ) ;
#965 = CARTESIAN_POINT ( 'NONE',  ( -26.38725206655752586, -12.99993138616776989, 1.911745309139289972 ) ) ;
#966 = ORIENTED_EDGE ( 'NONE', *, *, #130, .F. ) ;
#967 = EDGE_CURVE ( 'NONE', #755, #19, #364, .T. ) ;
#968 = ORIENTED_EDGE ( 'NONE', *, *, #643, .T. ) ;
#969 = CARTESIAN_POINT ( 'NONE',  ( 0.4649838407948918007, -43.23723148550483586, -1.000000000000000000 ) ) ;
#970 = DIRECTION ( 'NONE',  ( 0.000000000000000000, 0.000000000000000000, 1.000000000000000000 ) ) ;
#971 = ORIENTED_EDGE ( 'NONE', *, *, #510, .T. ) ;
#972 = ORIENTED_EDGE ( 'NONE', *, *, #1136, .F. ) ;
#973 = EDGE_CURVE ( 'NONE', #465, #700, #1038, .T. ) ;
#974 = LINE ( 'NONE', #988, #1211 ) ;
#975 = DIRECTION ( 'NONE',  ( 0.000000000000000000, 0.000000000000000000, 1.000000000000000000 ) ) ;
#976 = CIRCLE ( 'NONE', #1148, 1.800000000000000711 ) ;
#977 = VECTOR ( 'NONE', #256, 1000.000000000000000 ) ;
#978 = DIRECTION ( 'NONE',  ( 1.000000000000000000, 0.000000000000000000, -0.000000000000000000 ) ) ;
#979 = ORIENTED_EDGE ( 'NONE', *, *, #994, .T. ) ;
#980 = VERTEX_POINT ( 'NONE', #768 ) ;
#981 = VECTOR ( 'NONE', #308, 1000.000000000000000 ) ;
#982 = SURFACE_SIDE_STYLE ('',( #1283 ) ) ;
#983 = EDGE_CURVE ( 'NONE', #505, #928, #454, .T. ) ;
#984 = AXIS2_PLACEMENT_3D ( 'NONE', #280, #1334, #597 ) ;
#985 = LINE ( 'NONE', #156, #384 ) ;
#986 = PLANE ( 'NONE',  #77 ) ;
#987 = ORIENTED_EDGE ( 'NONE', *, *, #247, .F. ) ;
#988 = CARTESIAN_POINT ( 'NONE',  ( -24.33706251844780155, -12.99993138616776989, 1.911745309139289972 ) ) ;
#989 = DIRECTION ( 'NONE',  ( 0.000000000000000000, 0.000000000000000000, 1.000000000000000000 ) ) ;
#990 = ORIENTED_EDGE ( 'NONE', *, *, #1180, .F. ) ;
#991 = VERTEX_POINT ( 'NONE', #344 ) ;
#992 = CARTESIAN_POINT ( 'NONE',  ( -44.88722585882248950, -43.23723148550483586, -1.000000000000000000 ) ) ;
#993 = DIRECTION ( 'NONE',  ( -1.000000000000000000, 0.000000000000000000, 0.000000000000000000 ) ) ;
#994 = EDGE_CURVE ( 'NONE', #755, #857, #974, .T. ) ;
#995 = PRODUCT_DEFINITION_CONTEXT ( 'detailed design', #488, 'design' ) ;
#996 = VECTOR ( 'NONE', #841, 1000.000000000000000 ) ;
#997 = EDGE_LOOP ( 'NONE', ( #667, #1313, #1262, #1345 ) ) ;
#998 = VERTEX_POINT ( 'NONE', #1278 ) ;
#999 = DIRECTION ( 'NONE',  ( 3.469446951953614189E-15, 0.000000000000000000, -1.000000000000000000 ) ) ;
#1000 = AXIS2_PLACEMENT_3D ( 'NONE', #511, #1131, #96 ) ;
#1001 = VECTOR ( 'NONE', #418, 1000.000000000000000 ) ;
#1002 = DIRECTION ( 'NONE',  ( -1.000000000000000000, 0.000000000000000000, 0.000000000000000000 ) ) ;
#1003 = CIRCLE ( 'NONE', #1094, 1.149999999999999023 ) ;
#1004 = VERTEX_POINT ( 'NONE', #669 ) ;
#1005 = LINE ( 'NONE', #264, #251 ) ;
#1006 = FACE_BOUND ( 'NONE', #1146, .T. ) ;
#1007 = DIRECTION ( 'NONE',  ( 0.000000000000000000, 0.000000000000000000, 1.000000000000000000 ) ) ;
#1008 = ORIENTED_EDGE ( 'NONE', *, *, #712, .T. ) ;
#1009 = DIRECTION ( 'NONE',  ( 0.000000000000000000, -0.000000000000000000, -1.000000000000000000 ) ) ;
#1010 = EDGE_CURVE ( 'NONE', #1207, #891, #123, .T. ) ;
#1011 = CARTESIAN_POINT ( 'NONE',  ( -46.03722585882248808, -43.23723148550483586, -1.000000000000000000 ) ) ;
#1012 = DIRECTION ( 'NONE',  ( 0.000000000000000000, 0.000000000000000000, 1.000000000000000000 ) ) ;
#1013 = CYLINDRICAL_SURFACE ( 'NONE', #372, 3.849999999999998312 ) ;
#1014 = CIRCLE ( 'NONE', #410, 3.849999999999999201 ) ;
#1015 = ORIENTED_EDGE ( 'NONE', *, *, #956, .F. ) ;
#1016 = AXIS2_PLACEMENT_3D ( 'NONE', #705, #1220, #1009 ) ;
#1017 = DIRECTION ( 'NONE',  ( 0.000000000000000000, 0.000000000000000000, 1.000000000000000000 ) ) ;
#1018 = ORIENTED_EDGE ( 'NONE', *, *, #967, .F. ) ;
#1019 = EDGE_CURVE ( 'NONE', #1167, #766, #144, .T. ) ;
#1020 = DIRECTION ( 'NONE',  ( 0.000000000000000000, 1.000000000000000000, 0.000000000000000000 ) ) ;
#1021 = CARTESIAN_POINT ( 'NONE',  ( -2.485016159205108099, -43.23723148550483586, -1.000000000000000000 ) ) ;
#1022 = VERTEX_POINT ( 'NONE', #650 ) ;
#1023 = CYLINDRICAL_SURFACE ( 'NONE', #229, 3.849999999999999201 ) ;
#1024 = ORIENTED_EDGE ( 'NONE', *, *, #856, .F. ) ;
#1025 = PLANE ( 'NONE',  #695 ) ;
#1026 = DIRECTION ( 'NONE',  ( 1.000000000000000000, 0.000000000000000000, -0.000000000000000000 ) ) ;
#1027 = MANIFOLD_SOLID_BREP ( 'ÇÐ³ý-À­Éì2', #1309 ) ;
#1028 = EDGE_CURVE ( 'NONE', #579, #676, #798, .T. ) ;
#1029 = CARTESIAN_POINT ( 'NONE',  ( -1.335016159205108854, -43.23723148550483586, -2.000000000000000000 ) ) ;
#1030 = ORIENTED_EDGE ( 'NONE', *, *, #836, .F. ) ;
#1031 = DIRECTION ( 'NONE',  ( -1.000000000000000000, 0.000000000000000000, 0.000000000000000000 ) ) ;
#1032 = CARTESIAN_POINT ( 'NONE',  ( -44.88722585882248950, -43.23723148550483586, -1.000000000000000000 ) ) ;
#1033 = CARTESIAN_POINT ( 'NONE',  ( -43.75223403046771153, -12.99993138616776989, -0.08825469086070961144 ) ) ;
#1034 = EDGE_CURVE ( 'NONE', #1071, #1221, #962, .T. ) ;
#1035 = DIRECTION ( 'NONE',  ( -1.000000000000000000, 0.000000000000000000, 0.000000000000000000 ) ) ;
#1036 = ORIENTED_EDGE ( 'NONE', *, *, #459, .F. ) ;
#1037 = DIRECTION ( 'NONE',  ( -0.000000000000000000, -0.000000000000000000, 1.000000000000000000 ) ) ;
#1038 = CIRCLE ( 'NONE', #1305, 1.800000000000000711 ) ;
#1039 = EDGE_LOOP ( 'NONE', ( #154, #1128 ) ) ;
#1040 = VECTOR ( 'NONE', #1037, 1000.000000000000000 ) ;
#1041 = CARTESIAN_POINT ( 'NONE',  ( -26.38725206655752586, -12.99993138616776989, 0.4464277560554750779 ) ) ;
#1042 = VECTOR ( 'NONE', #1235, 1000.000000000000000 ) ;
#1043 = CARTESIAN_POINT ( 'NONE',  ( -47.97191496096312591, 12.00006861383223011, 3.911745309139291749 ) ) ;
#1044 = FACE_BOUND ( 'NONE', #10, .T. ) ;
#1045 = DIRECTION ( 'NONE',  ( 1.000000000000000000, 0.000000000000000000, 0.000000000000000000 ) ) ;
#1046 = ORIENTED_EDGE ( 'NONE', *, *, #817, .F. ) ;
#1047 = CARTESIAN_POINT ( 'NONE',  ( -43.75223403046771153, 12.00006861383223011, -0.08825469086070961144 ) ) ;
#1048 = ORIENTED_EDGE ( 'NONE', *, *, #1114, .F. ) ;
#1049 = ADVANCED_FACE ( 'NONE', ( #20 ), #657, .F. ) ;
#1050 = CARTESIAN_POINT ( 'NONE',  ( -1.335016159205108854, 19.39267481122346837, -1.000000000000000000 ) ) ;
#1051 = CARTESIAN_POINT ( 'NONE',  ( -47.83256164536424393, 12.65254820714462625, -2.000000000000000000 ) ) ;
#1052 = FACE_OUTER_BOUND ( 'NONE', #180, .T. ) ;
#1053 = VECTOR ( 'NONE', #541, 1000.000000000000000 ) ;
#1054 = LINE ( 'NONE', #325, #270 ) ;
#1055 = ORIENTED_EDGE ( 'NONE', *, *, #261, .F. ) ;
#1056 = CARTESIAN_POINT ( 'NONE',  ( 0.4649838407948918007, -43.23723148550483586, 0.000000000000000000 ) ) ;
#1057 = ORIENTED_EDGE ( 'NONE', *, *, #1203, .T. ) ;
#1058 = CYLINDRICAL_SURFACE ( 'NONE', #563, 1.149999999999998135 ) ;
#1059 = EDGE_CURVE ( 'NONE', #342, #1126, #1172, .T. ) ;
#1060 = CARTESIAN_POINT ( 'NONE',  ( -43.75223403046771153, 12.00006861383223011, 1.911745309139289972 ) ) ;
#1061 = DIRECTION ( 'NONE',  ( 1.000000000000000000, 0.000000000000000000, 0.000000000000000000 ) ) ;
#1062 = LINE ( 'NONE', #29, #293 ) ;
#1063 = EDGE_LOOP ( 'NONE', ( #1055, #243, #1214, #529, #269, #41 ) ) ;
#1064 = EDGE_LOOP ( 'NONE', ( #422, #248, #326, #1149 ) ) ;
#1065 = DIRECTION ( 'NONE',  ( -1.000000000000000000, 0.000000000000000000, 0.000000000000000000 ) ) ;
#1066 = VECTOR ( 'NONE', #540, 1000.000000000000000 ) ;
#1067 = ADVANCED_FACE ( 'NONE', ( #1184 ), #244, .T. ) ;
#1068 = DIRECTION ( 'NONE',  ( 0.000000000000000000, 0.000000000000000000, 1.000000000000000000 ) ) ;
#1069 = VECTOR ( 'NONE', #310, 1000.000000000000114 ) ;
#1070 = DIRECTION ( 'NONE',  ( 0.000000000000000000, 0.000000000000000000, 1.000000000000000000 ) ) ;
#1071 = VERTEX_POINT ( 'NONE', #1189 ) ;
#1072 = VECTOR ( 'NONE', #528, 1000.000000000000000 ) ;
#1073 = EDGE_LOOP ( 'NONE', ( #1301, #971, #1036, #24, #1110 ) ) ;
#1074 = CARTESIAN_POINT ( 'NONE',  ( -0.1850161592051086101, 19.39267481122346837, -1.000000000000000000 ) ) ;
#1075 = EDGE_CURVE ( 'NONE', #426, #558, #359, .T. ) ;
#1076 = CARTESIAN_POINT ( 'NONE',  ( -47.75028585900997768, 12.00006861383223011, 1.911745309139292193 ) ) ;
#1077 = ORIENTED_EDGE ( 'NONE', *, *, #63, .F. ) ;
#1078 = ORIENTED_EDGE ( 'NONE', *, *, #692, .T. ) ;
#1079 = DIRECTION ( 'NONE',  ( 1.000000000000000000, 0.000000000000000000, 0.000000000000000000 ) ) ;
#1080 = DIRECTION ( 'NONE',  ( 0.000000000000000000, 0.000000000000000000, 1.000000000000000000 ) ) ;
#1081 = LINE ( 'NONE', #468, #726 ) ;
#1082 = ORIENTED_EDGE ( 'NONE', *, *, #905, .F. ) ;
#1083 = EDGE_CURVE ( 'NONE', #1167, #1281, #501, .T. ) ;
#1084 = VERTEX_POINT ( 'NONE', #600 ) ;
#1085 = DIRECTION ( 'NONE',  ( 1.387778780781533555E-14, -1.000000000000000000, 0.000000000000000000 ) ) ;
#1086 = DIRECTION ( 'NONE',  ( 0.000000000000000000, 0.000000000000000000, 1.000000000000000000 ) ) ;
#1087 = AXIS2_PLACEMENT_3D ( 'NONE', #174, #902, #266 ) ;
#1088 = DIRECTION ( 'NONE',  ( 0.000000000000000000, 1.000000000000000000, 0.000000000000000000 ) ) ;
#1089 = ORIENTED_EDGE ( 'NONE', *, *, #603, .F. ) ;
#1090 = ORIENTED_EDGE ( 'NONE', *, *, #1217, .F. ) ;
#1091 = AXIS2_PLACEMENT_3D ( 'NONE', #1160, #203, #1045 ) ;
#1092 = DIRECTION ( 'NONE',  ( 1.000000000000000000, 0.000000000000000000, 0.000000000000000000 ) ) ;
#1093 = EDGE_CURVE ( 'NONE', #578, #749, #1005, .T. ) ;
#1094 = AXIS2_PLACEMENT_3D ( 'NONE', #452, #838, #472 ) ;
#1095 =( LENGTH_UNIT ( ) NAMED_UNIT ( * ) SI_UNIT ( .MILLI., .METRE. ) );
#1096 = FACE_OUTER_BOUND ( 'NONE', #483, .T. ) ;
#1097 = EDGE_LOOP ( 'NONE', ( #1275, #979, #444, #219 ) ) ;
#1098 = DIRECTION ( 'NONE',  ( 0.000000000000000000, 0.000000000000000000, -1.000000000000000000 ) ) ;
#1099 = ADVANCED_FACE ( 'NONE', ( #1314 ), #60, .T. ) ;
#1100 = DIRECTION ( 'NONE',  ( 1.000000000000000000, 0.000000000000000000, 0.000000000000000000 ) ) ;
#1101 = EDGE_CURVE ( 'NONE', #465, #1161, #380, .T. ) ;
#1102 = FACE_OUTER_BOUND ( 'NONE', #810, .T. ) ;
#1103 = ORIENTED_EDGE ( 'NONE', *, *, #43, .F. ) ;
#1104 = CARTESIAN_POINT ( 'NONE',  ( 1.459655412721065249, -41.11841504291472660, -2.000000000000000000 ) ) ;
#1105 = EDGE_CURVE ( 'NONE', #857, #26, #168, .T. ) ;
#1106 = DIRECTION ( 'NONE',  ( 1.000000000000000000, 0.000000000000000000, 0.000000000000000000 ) ) ;
#1107 = EDGE_CURVE ( 'NONE', #165, #1177, #696, .T. ) ;
#1108 = CIRCLE ( 'NONE', #97, 1.149999999999999023 ) ;
#1109 = AXIS2_PLACEMENT_3D ( 'NONE', #904, #1098, #155 ) ;
#1110 = ORIENTED_EDGE ( 'NONE', *, *, #486, .T. ) ;
#1111 = ORIENTED_EDGE ( 'NONE', *, *, #1010, .F. ) ;
#1112 = DIRECTION ( 'NONE',  ( 0.000000000000000000, 0.000000000000000000, 1.000000000000000000 ) ) ;
#1113 = VECTOR ( 'NONE', #1137, 1000.000000000000000 ) ;
#1114 = EDGE_CURVE ( 'NONE', #738, #921, #434, .T. ) ;
#1115 = VERTEX_POINT ( 'NONE', #491 ) ;
#1116 = ORIENTED_EDGE ( 'NONE', *, *, #50, .F. ) ;
#1117 = DIRECTION ( 'NONE',  ( -1.000000000000000000, 0.000000000000000000, 0.000000000000000000 ) ) ;
#1118 = DIRECTION ( 'NONE',  ( -1.000000000000000000, 0.000000000000000000, 0.000000000000000000 ) ) ;
#1119 = ORIENTED_EDGE ( 'NONE', *, *, #443, .F. ) ;
#1120 = EDGE_CURVE ( 'NONE', #928, #1226, #591, .T. ) ;
#1121 = CARTESIAN_POINT ( 'NONE',  ( -26.38725206655752586, -15.51993787714232198, 0.4464277560554757440 ) ) ;
#1122 = DIRECTION ( 'NONE',  ( -1.000000000000000000, 0.000000000000000000, 0.000000000000000000 ) ) ;
#1123 = PLANE ( 'NONE',  #108 ) ;
#1124 = DIRECTION ( 'NONE',  ( 0.5814737217272544223, 0.000000000000000000, -0.8135651854280979700 ) ) ;
#1125 = AXIS2_PLACEMENT_3D ( 'NONE', #1032, #515, #1092 ) ;
#1126 = VERTEX_POINT ( 'NONE', #799 ) ;
#1127 = CARTESIAN_POINT ( 'NONE',  ( -1.335016159205108854, 19.39267481122346837, -1.000000000000000000 ) ) ;
#1128 = ORIENTED_EDGE ( 'NONE', *, *, #603, .T. ) ;
#1129 = FACE_BOUND ( 'NONE', #378, .T. ) ;
#1130 = AXIS2_PLACEMENT_3D ( 'NONE', #1280, #447, #753 ) ;
#1131 = DIRECTION ( 'NONE',  ( -0.000000000000000000, 1.000000000000000000, 0.000000000000000000 ) ) ;
#1132 = ORIENTED_EDGE ( 'NONE', *, *, #1284, .F. ) ;
#1133 = CARTESIAN_POINT ( 'NONE',  ( -45.79441320444033181, -12.99993138616776989, 1.955872654569645874 ) ) ;
#1134 = DIRECTION ( 'NONE',  ( 0.000000000000000000, 0.000000000000000000, -1.000000000000000000 ) ) ;
#1135 = CARTESIAN_POINT ( 'NONE',  ( -45.75028585900997768, -12.99993138616776989, 1.911745309139292193 ) ) ;
#1136 = EDGE_CURVE ( 'NONE', #608, #426, #1347, .T. ) ;
#1137 = DIRECTION ( 'NONE',  ( -0.000000000000000000, -0.000000000000000000, 1.000000000000000000 ) ) ;
#1138 = ORIENTED_EDGE ( 'NONE', *, *, #544, .F. ) ;
#1139 = CARTESIAN_POINT ( 'NONE',  ( -3.135016159205108455, 19.39267481122346837, -1.000000000000000000 ) ) ;
#1140 = EDGE_LOOP ( 'NONE', ( #1132, #706 ) ) ;
#1141 = FACE_OUTER_BOUND ( 'NONE', #329, .T. ) ;
#1142 = CARTESIAN_POINT ( 'NONE',  ( -43.98256164536420698, 22.59374527427766211, -2.000000000000000000 ) ) ;
#1143 = LINE ( 'NONE', #200, #482 ) ;
#1144 = EDGE_CURVE ( 'NONE', #1004, #290, #900, .T. ) ;
#1145 = CARTESIAN_POINT ( 'NONE',  ( -46.68722585882249376, -43.23723148550483586, -1.000000000000000000 ) ) ;
#1146 = EDGE_LOOP ( 'NONE', ( #599, #263 ) ) ;
#1147 = DIRECTION ( 'NONE',  ( 1.000000000000000000, 0.000000000000000000, 0.000000000000000000 ) ) ;
#1148 = AXIS2_PLACEMENT_3D ( 'NONE', #182, #279, #894 ) ;
#1149 = ORIENTED_EDGE ( 'NONE', *, *, #911, .T. ) ;
#1150 = CARTESIAN_POINT ( 'NONE',  ( -47.97191496096312591, -12.99993138616776989, 1.911745309139289972 ) ) ;
#1151 = DIRECTION ( 'NONE',  ( 0.000000000000000000, -1.000000000000000000, 0.000000000000000000 ) ) ;
#1152 = CIRCLE ( 'NONE', #370, 1.799999999999999822 ) ;
#1153 = CARTESIAN_POINT ( 'NONE',  ( 0.4649838407948909125, 19.39267481122346837, -1.000000000000000000 ) ) ;
#1154 = EDGE_LOOP ( 'NONE', ( #1089, #1246, #31, #2 ) ) ;
#1155 = ADVANCED_FACE ( 'NONE', ( #908 ), #69, .T. ) ;
#1156 = LINE ( 'NONE', #936, #996 ) ;
#1157 = ORIENTED_EDGE ( 'NONE', *, *, #1308, .F. ) ;
#1158 = FACE_OUTER_BOUND ( 'NONE', #771, .T. ) ;
#1159 = CARTESIAN_POINT ( 'NONE',  ( -47.83256164536424393, 12.65254820714462625, 0.000000000000000000 ) ) ;
#1160 = CARTESIAN_POINT ( 'NONE',  ( -44.22735356466332490, -41.61841504291472660, -2.000000000000000000 ) ) ;
#1161 = VERTEX_POINT ( 'NONE', #64 ) ;
#1162 = VERTEX_POINT ( 'NONE', #805 ) ;
#1163 = EDGE_CURVE ( 'NONE', #340, #303, #55, .T. ) ;
#1164 = FACE_BOUND ( 'NONE', #215, .T. ) ;
#1165 = CARTESIAN_POINT ( 'NONE',  ( -47.75028585900997768, 12.00006861383223011, 0.000000000000000000 ) ) ;
#1166 = VERTEX_POINT ( 'NONE', #398 ) ;
#1167 = VERTEX_POINT ( 'NONE', #702 ) ;
#1168 = PRESENTATION_STYLE_ASSIGNMENT (( #760 ) ) ;
#1169 = AXIS2_PLACEMENT_3D ( 'NONE', #875, #1304, #1292 ) ;
#1170 = EDGE_CURVE ( 'NONE', #766, #98, #811, .T. ) ;
#1171 = LINE ( 'NONE', #1074, #341 ) ;
#1172 = CIRCLE ( 'NONE', #955, 3.849999999999999201 ) ;
#1173 = LINE ( 'NONE', #234, #1072 ) ;
#1174 = ORIENTED_EDGE ( 'NONE', *, *, #782, .T. ) ;
#1175 = CIRCLE ( 'NONE', #347, 1.149999999999999023 ) ;
#1176 = AXIS2_PLACEMENT_3D ( 'NONE', #1218, #1336, #728 ) ;
#1177 = VERTEX_POINT ( 'NONE', #685 ) ;
#1178 = CARTESIAN_POINT ( 'NONE',  ( -44.88722585882248950, -43.23723148550483586, -2.000000000000000000 ) ) ;
#1179 = DIRECTION ( 'NONE',  ( -0.000000000000000000, -0.000000000000000000, -1.000000000000000000 ) ) ;
#1180 = EDGE_CURVE ( 'NONE', #578, #137, #870, .T. ) ;
#1181 = CARTESIAN_POINT ( 'NONE',  ( -1.335016159205108854, 19.39267481122346837, 0.000000000000000000 ) ) ;
#1182 = EDGE_LOOP ( 'NONE', ( #892, #758 ) ) ;
#1183 = ORIENTED_EDGE ( 'NONE', *, *, #353, .T. ) ;
#1184 = FACE_OUTER_BOUND ( 'NONE', #788, .T. ) ;
#1185 = FACE_OUTER_BOUND ( 'NONE', #825, .T. ) ;
#1186 = DIRECTION ( 'NONE',  ( 1.000000000000000000, 1.387778780781533555E-14, -0.000000000000000000 ) ) ;
#1187 = ORIENTED_EDGE ( 'NONE', *, *, #1093, .T. ) ;
#1188 = ORIENTED_EDGE ( 'NONE', *, *, #1101, .F. ) ;
#1189 = CARTESIAN_POINT ( 'NONE',  ( -44.22735356466328938, -45.46841504291472802, -2.000000000000000000 ) ) ;
#1190 = VECTOR ( 'NONE', #624, 1000.000000000000000 ) ;
#1191 = VECTOR ( 'NONE', #1208, 1000.000000000000000 ) ;
#1192 = DIRECTION ( 'NONE',  ( 1.000000000000000000, 0.000000000000000000, 0.000000000000000000 ) ) ;
#1193 = DIRECTION ( 'NONE',  ( -0.000000000000000000, -0.000000000000000000, 1.000000000000000000 ) ) ;
#1194 = ORIENTED_EDGE ( 'NONE', *, *, #222, .T. ) ;
#1195 = EDGE_CURVE ( 'NONE', #1115, #925, #268, .T. ) ;
#1196 = VECTOR ( 'NONE', #869, 1000.000000000000000 ) ;
#1197 = DIRECTION ( 'NONE',  ( 0.000000000000000000, 0.000000000000000000, -1.000000000000000000 ) ) ;
#1198 = ADVANCED_FACE ( 'NONE', ( #476 ), #893, .F. ) ;
#1199 = DIRECTION ( 'NONE',  ( -0.000000000000000000, -0.000000000000000000, 1.000000000000000000 ) ) ;
#1200 = DIRECTION ( 'NONE',  ( 1.000000000000000000, 0.000000000000000000, 0.000000000000000000 ) ) ;
#1201 = VERTEX_POINT ( 'NONE', #375 ) ;
#1202 = DIRECTION ( 'NONE',  ( 0.000000000000000000, 0.000000000000000000, 1.000000000000000000 ) ) ;
#1203 = EDGE_CURVE ( 'NONE', #1084, #980, #406, .T. ) ;
#1204 = LINE ( 'NONE', #478, #1261 ) ;
#1205 = AXIS2_PLACEMENT_3D ( 'NONE', #1273, #651, #941 ) ;
#1206 = ADVANCED_FACE ( 'NONE', ( #413 ), #944, .T. ) ;
#1207 = VERTEX_POINT ( 'NONE', #1252 ) ;
#1208 = DIRECTION ( 'NONE',  ( 0.000000000000000000, 1.000000000000000000, 0.000000000000000000 ) ) ;
#1209 = CYLINDRICAL_SURFACE ( 'NONE', #674, 1.149999999999998135 ) ;
#1210 = EDGE_CURVE ( 'NONE', #141, #19, #1260, .T. ) ;
#1211 = VECTOR ( 'NONE', #150, 1000.000000000000114 ) ;
#1212 = AXIS2_PLACEMENT_3D ( 'NONE', #1127, #179, #609 ) ;
#1213 = ORIENTED_EDGE ( 'NONE', *, *, #274, .F. ) ;
#1214 = ORIENTED_EDGE ( 'NONE', *, *, #86, .F. ) ;
#1215 = CARTESIAN_POINT ( 'NONE',  ( -43.75223403046771153, -12.99993138616776989, -0.08825469086070961144 ) ) ;
#1216 = VECTOR ( 'NONE', #621, 1000.000000000000000 ) ;
#1217 = EDGE_CURVE ( 'NONE', #426, #991, #436, .T. ) ;
#1218 = CARTESIAN_POINT ( 'NONE',  ( -26.33706251844780510, 0.000000000000000000, 1.911745309139289972 ) ) ;
#1219 = VERTEX_POINT ( 'NONE', #319 ) ;
#1220 = DIRECTION ( 'NONE',  ( 0.000000000000000000, -1.000000000000000000, 0.000000000000000000 ) ) ;
#1221 = VERTEX_POINT ( 'NONE', #747 ) ;
#1222 = DIRECTION ( 'NONE',  ( 0.000000000000000000, 0.000000000000000000, -1.000000000000000000 ) ) ;
#1223 = CARTESIAN_POINT ( 'NONE',  ( -43.75223403046771153, -12.99993138616776989, 1.911745309139289972 ) ) ;
#1224 = PRODUCT ( '0808 V2\X2\5e9558f3\X0\', '0808 V2\X2\5e9558f3\X0\', '', ( #681 ) ) ;
#1225 = DIRECTION ( 'NONE',  ( -0.000000000000000000, -0.000000000000000000, 1.000000000000000000 ) ) ;
#1226 = VERTEX_POINT ( 'NONE', #530 ) ;
#1227 = CARTESIAN_POINT ( 'NONE',  ( 1.459655412721067025, 18.74374527427763581, -2.000000000000000000 ) ) ;
#1228 = VERTEX_POINT ( 'NONE', #641 ) ;
#1229 = CARTESIAN_POINT ( 'NONE',  ( -44.22735356466332490, -41.61841504291472660, -2.000000000000000000 ) ) ;
#1230 = FACE_OUTER_BOUND ( 'NONE', #614, .T. ) ;
#1231 = DIRECTION ( 'NONE',  ( 0.000000000000000000, 0.000000000000000000, -1.000000000000000000 ) ) ;
#1232 = VECTOR ( 'NONE', #864, 1000.000000000000000 ) ;
#1233 = ORIENTED_EDGE ( 'NONE', *, *, #802, .T. ) ;
#1234 = AXIS2_PLACEMENT_3D ( 'NONE', #506, #302, #730 ) ;
#1235 = DIRECTION ( 'NONE',  ( -1.000000000000000000, -0.000000000000000000, -0.000000000000000000 ) ) ;
#1236 = ORIENTED_EDGE ( 'NONE', *, *, #164, .T. ) ;
#1237 = EDGE_CURVE ( 'NONE', #921, #738, #519, .T. ) ;
#1238 = CARTESIAN_POINT ( 'NONE',  ( -48.07735355008384914, -41.61875009804676040, -2.000000000000000000 ) ) ;
#1239 = PRODUCT_DEFINITION ( 'æœ', '', #368, #995 ) ;
#1240 = FACE_OUTER_BOUND ( 'NONE', #997, .T. ) ;
#1241 = CARTESIAN_POINT ( 'NONE',  ( -44.88722585882248950, 19.14266193162950103, -1.000000000000000000 ) ) ;
#1242 = FACE_OUTER_BOUND ( 'NONE', #590, .T. ) ;
#1243 = EDGE_LOOP ( 'NONE', ( #453, #572, #710, #1077 ) ) ;
#1244 = DIRECTION ( 'NONE',  ( 0.000000000000000000, -1.000000000000000000, 0.000000000000000000 ) ) ;
#1245 = AXIS2_PLACEMENT_3D ( 'NONE', #360, #1193, #254 ) ;
#1246 = ORIENTED_EDGE ( 'NONE', *, *, #905, .T. ) ;
#1247 = CARTESIAN_POINT ( 'NONE',  ( -1.335016159205108854, 19.39267481122346837, -1.000000000000000000 ) ) ;
#1248 = CARTESIAN_POINT ( 'NONE',  ( -2.390344587278932842, -41.61841504291471949, 0.000000000000000000 ) ) ;
#1249 = DIRECTION ( 'NONE',  ( 0.000000000000000000, 1.000000000000000000, 0.000000000000000000 ) ) ;
#1250 = CARTESIAN_POINT ( 'NONE',  ( -26.38725206655752586, 12.00006861383223011, 1.911745309139289972 ) ) ;
#1251 = ORIENTED_EDGE ( 'NONE', *, *, #431, .F. ) ;
#1252 = CARTESIAN_POINT ( 'NONE',  ( -46.03722585882248808, -43.23723148550483586, -1.000000000000000000 ) ) ;
#1253 = ORIENTED_EDGE ( 'NONE', *, *, #1358, .T. ) ;
#1254 = DIRECTION ( 'NONE',  ( 1.000000000000000000, 0.000000000000000000, -0.000000000000000000 ) ) ;
#1255 = FACE_OUTER_BOUND ( 'NONE', #914, .T. ) ;
#1256 = FACE_OUTER_BOUND ( 'NONE', #236, .T. ) ;
#1257 = EDGE_CURVE ( 'NONE', #1004, #505, #927, .T. ) ;
#1258 = CARTESIAN_POINT ( 'NONE',  ( -47.16449942138306994, 12.00006861383223011, 3.325958871512387116 ) ) ;
#1259 = VERTEX_POINT ( 'NONE', #291 ) ;
#1260 = LINE ( 'NONE', #513, #125 ) ;
#1261 = VECTOR ( 'NONE', #65, 1000.000000000000000 ) ;
#1262 = ORIENTED_EDGE ( 'NONE', *, *, #99, .T. ) ;
#1263 =( GEOMETRIC_REPRESENTATION_CONTEXT ( 3 ) GLOBAL_UNCERTAINTY_ASSIGNED_CONTEXT ( ( #87 ) ) GLOBAL_UNIT_ASSIGNED_CONTEXT ( ( #48, #365, #873 ) ) REPRESENTATION_CONTEXT ( 'NONE', 'WORKASPACE' ) );
#1264 = FACE_OUTER_BOUND ( 'NONE', #1243, .T. ) ;
#1265 = CARTESIAN_POINT ( 'NONE',  ( -1.335016159205108854, 19.39267481122346837, -1.000000000000000000 ) ) ;
#1266 = AXIS2_PLACEMENT_3D ( 'NONE', #1322, #498, #1353 ) ;
#1267 = ADVANCED_FACE ( 'NONE', ( #721 ), #11, .F. ) ;
#1268 = DIRECTION ( 'NONE',  ( 0.000000000000000000, 0.000000000000000000, 1.000000000000000000 ) ) ;
#1269 = ORIENTED_EDGE ( 'NONE', *, *, #1277, .F. ) ;
#1270 = ORIENTED_EDGE ( 'NONE', *, *, #1144, .T. ) ;
#1271 = CYLINDRICAL_SURFACE ( 'NONE', #545, 1.799999999999999822 ) ;
#1272 = AXIS2_PLACEMENT_3D ( 'NONE', #780, #1307, #776 ) ;
#1273 = CARTESIAN_POINT ( 'NONE',  ( -1.335016159205108854, -43.23723148550483586, -1.000000000000000000 ) ) ;
#1274 = CARTESIAN_POINT ( 'NONE',  ( -43.98256164536420698, 22.59374527427766211, -2.000000000000000000 ) ) ;
#1275 = ORIENTED_EDGE ( 'NONE', *, *, #306, .F. ) ;
#1276 = VERTEX_POINT ( 'NONE', #1056 ) ;
#1277 = EDGE_CURVE ( 'NONE', #608, #469, #196, .T. ) ;
#1278 = CARTESIAN_POINT ( 'NONE',  ( -45.75028585900997768, -12.99993138616776989, 0.000000000000000000 ) ) ;
#1279 = DIRECTION ( 'NONE',  ( 0.000000000000000000, 0.000000000000000000, -1.000000000000000000 ) ) ;
#1280 = CARTESIAN_POINT ( 'NONE',  ( -44.88722585882248950, -43.23723148550483586, -2.000000000000000000 ) ) ;
#1281 = VERTEX_POINT ( 'NONE', #1227 ) ;
#1282 = ORIENTED_EDGE ( 'NONE', *, *, #1257, .T. ) ;
#1283 = SURFACE_STYLE_FILL_AREA ( #779 ) ;
#1284 = EDGE_CURVE ( 'NONE', #1276, #1161, #697, .T. ) ;
#1285 = VECTOR ( 'NONE', #28, 1000.000000000000000 ) ;
#1286 = CARTESIAN_POINT ( 'NONE',  ( -44.88722585882248950, 19.14266193162950103, -1.000000000000000000 ) ) ;
#1287 = AXIS2_PLACEMENT_3D ( 'NONE', #82, #1339, #1031 ) ;
#1288 = DIRECTION ( 'NONE',  ( 1.000000000000000000, 0.000000000000000000, 0.000000000000000000 ) ) ;
#1289 = ORIENTED_EDGE ( 'NONE', *, *, #1083, .T. ) ;
#1290 = VECTOR ( 'NONE', #1268, 1000.000000000000000 ) ;
#1291 = ORIENTED_EDGE ( 'NONE', *, *, #450, .F. ) ;
#1292 = DIRECTION ( 'NONE',  ( 1.000000000000000000, 0.000000000000000000, 0.000000000000000000 ) ) ;
#1293 = APPLICATION_PROTOCOL_DEFINITION ( 'draft international standard', 'automotive_design', 1998, #840 ) ;
#1294 = DIRECTION ( 'NONE',  ( -0.000000000000000000, 0.000000000000000000, 1.000000000000000000 ) ) ;
#1295 = ORIENTED_EDGE ( 'NONE', *, *, #486, .F. ) ;
#1296 = ORIENTED_EDGE ( 'NONE', *, *, #395, .F. ) ;
#1297 = CARTESIAN_POINT ( 'NONE',  ( -44.88722585882248950, -43.23723148550483586, -1.000000000000000000 ) ) ;
#1298 = LINE ( 'NONE', #354, #628 ) ;
#1299 = EDGE_CURVE ( 'NONE', #558, #1177, #100, .T. ) ;
#1300 = CYLINDRICAL_SURFACE ( 'NONE', #1245, 1.800000000000000711 ) ;
#1301 = ORIENTED_EDGE ( 'NONE', *, *, #1277, .T. ) ;
#1302 = ORIENTED_EDGE ( 'NONE', *, *, #1136, .T. ) ;
#1303 = DIRECTION ( 'NONE',  ( 1.000000000000000000, 0.000000000000000000, 0.000000000000000000 ) ) ;
#1304 = DIRECTION ( 'NONE',  ( 0.000000000000000000, 0.000000000000000000, 1.000000000000000000 ) ) ;
#1305 = AXIS2_PLACEMENT_3D ( 'NONE', #573, #42, #1079 ) ;
#1306 = AXIS2_PLACEMENT_3D ( 'NONE', #1332, #1202, #485 ) ;
#1307 = DIRECTION ( 'NONE',  ( 0.000000000000000000, 0.000000000000000000, 1.000000000000000000 ) ) ;
#1308 = EDGE_CURVE ( 'NONE', #928, #549, #824, .T. ) ;
#1309 = CLOSED_SHELL ( 'NONE', ( #917, #1198, #964, #374, #631, #594, #471, #901, #775, #1329, #405, #34, #899, #151, #1067, #240, #496, #808, #574, #386, #677, #1099, #542, #355, #1206, #938, #1049, #440, #112, #79, #1155, #1267, #827, #612, #57, #874, #744, #620, #533, #926, #458, #345, #559 ) ) ;
#1310 = VERTEX_POINT ( 'NONE', #111 ) ;
#1311 = CARTESIAN_POINT ( 'NONE',  ( -1.335016159205108854, -43.23723148550483586, -1.000000000000000000 ) ) ;
#1312 = ORIENTED_EDGE ( 'NONE', *, *, #1019, .T. ) ;
#1313 = ORIENTED_EDGE ( 'NONE', *, *, #1358, .F. ) ;
#1314 = FACE_OUTER_BOUND ( 'NONE', #1073, .T. ) ;
#1315 = EDGE_CURVE ( 'NONE', #1228, #1310, #267, .T. ) ;
#1316 = FACE_BOUND ( 'NONE', #47, .T. ) ;
#1317 = ORIENTED_EDGE ( 'NONE', *, *, #1284, .T. ) ;
#1318 = DIRECTION ( 'NONE',  ( 0.000000000000000000, 0.000000000000000000, 1.000000000000000000 ) ) ;
#1319 = EDGE_CURVE ( 'NONE', #340, #878, #832, .T. ) ;
#1320 = CIRCLE ( 'NONE', #143, 1.149999999999998135 ) ;
#1321 = AXIS2_PLACEMENT_3D ( 'NONE', #1311, #260, #690 ) ;
#1322 = CARTESIAN_POINT ( 'NONE',  ( -2.390344587278931954, 18.74374527427766068, -2.000000000000000000 ) ) ;
#1323 = DIRECTION ( 'NONE',  ( 0.7071067811865474617, 0.000000000000000000, -0.7071067811865474617 ) ) ;
#1324 = ORIENTED_EDGE ( 'NONE', *, *, #967, .T. ) ;
#1325 = VECTOR ( 'NONE', #661, 1000.000000000000000 ) ;
#1326 = FACE_BOUND ( 'NONE', #523, .T. ) ;
#1327 = AXIS2_PLACEMENT_3D ( 'NONE', #1181, #1012, #241 ) ;
#1328 = PLANE ( 'NONE',  #183 ) ;
#1329 = ADVANCED_FACE ( 'NONE', ( #3 ), #1023, .T. ) ;
#1330 = LINE ( 'NONE', #1250, #981 ) ;
#1331 = ORIENTED_EDGE ( 'NONE', *, *, #994, .F. ) ;
#1332 = CARTESIAN_POINT ( 'NONE',  ( -1.335016159205108854, 19.39267481122346837, -1.000000000000000000 ) ) ;
#1333 = ORIENTED_EDGE ( 'NONE', *, *, #796, .T. ) ;
#1334 = DIRECTION ( 'NONE',  ( -0.000000000000000000, -0.000000000000000000, 1.000000000000000000 ) ) ;
#1335 = EDGE_CURVE ( 'NONE', #1219, #26, #1156, .T. ) ;
#1336 = DIRECTION ( 'NONE',  ( 0.000000000000000000, 1.000000000000000000, 0.000000000000000000 ) ) ;
#1337 = VERTEX_POINT ( 'NONE', #711 ) ;
#1338 = EDGE_CURVE ( 'NONE', #531, #259, #455, .T. ) ;
#1339 = DIRECTION ( 'NONE',  ( 0.000000000000000000, 0.000000000000000000, -1.000000000000000000 ) ) ;
#1340 = ORIENTED_EDGE ( 'NONE', *, *, #173, .F. ) ;
#1341 = DIRECTION ( 'NONE',  ( -1.000000000000000000, 0.000000000000000000, -0.000000000000000000 ) ) ;
#1342 = DIRECTION ( 'NONE',  ( -0.000000000000000000, -0.000000000000000000, -1.000000000000000000 ) ) ;
#1343 = CYLINDRICAL_SURFACE ( 'NONE', #1176, 2.000000000000000000 ) ;
#1344 = AXIS2_PLACEMENT_3D ( 'NONE', #1150, #617, #1341 ) ;
#1345 = ORIENTED_EDGE ( 'NONE', *, *, #395, .T. ) ;
#1346 = EDGE_CURVE ( 'NONE', #839, #998, #1298, .T. ) ;
#1347 = CIRCLE ( 'NONE', #366, 2.000000000000000000 ) ;
#1348 = DIRECTION ( 'NONE',  ( 0.000000000000000000, 0.000000000000000000, 1.000000000000000000 ) ) ;
#1349 = ORIENTED_EDGE ( 'NONE', *, *, #1107, .T. ) ;
#1350 = FACE_OUTER_BOUND ( 'NONE', #1039, .T. ) ;
#1351 = DIRECTION ( 'NONE',  ( -0.000000000000000000, -0.000000000000000000, 1.000000000000000000 ) ) ;
#1352 = DIRECTION ( 'NONE',  ( 0.000000000000000000, 0.000000000000000000, 1.000000000000000000 ) ) ;
#1353 = DIRECTION ( 'NONE',  ( 1.000000000000000000, 0.000000000000000000, 0.000000000000000000 ) ) ;
#1354 = ORIENTED_EDGE ( 'NONE', *, *, #181, .T. ) ;
#1355 = CARTESIAN_POINT ( 'NONE',  ( -47.97191496096312591, 12.00006861383223011, 3.911745309139291749 ) ) ;
#1356 = VERTEX_POINT ( 'NONE', #896 ) ;
#1357 = FACE_OUTER_BOUND ( 'NONE', #30, .T. ) ;
#1358 = EDGE_CURVE ( 'NONE', #303, #340, #35, .T. ) ;
#1359 = DIRECTION ( 'NONE',  ( 1.000000000000000000, 0.000000000000000000, 0.000000000000000000 ) ) ;
ENDSEC;
END-ISO-10303-21;
